<svg xmlns="http://www.w3.org/2000/svg" viewBox="0 0 412.7 360.48"><defs><style>.cls-1{fill:#f4f9ff;}.cls-2{fill:#cddcf8;}.cls-3{fill:#f2f2f2;}.cls-4{fill:#e1ecfd;}.cls-5{fill:#ecf0fd;}.cls-6{fill:#e1e7ff;}.cls-7{fill:#c8d3fb;}.cls-8{fill:#edf1ff;}.cls-9{fill:#6680e1;}.cls-10{fill:#abcafb;}.cls-11{fill:#0044a4;opacity:0.1;}.cls-12{fill:#ffd06e;}.cls-13{fill:#ffad36;}.cls-14{fill:#becff4;}.cls-15{fill:#6a98f5;}.cls-16{fill:#a8c3ea;}.cls-17,.cls-20{fill:#fff;}.cls-18,.cls-20{opacity:0.3;}.cls-19{fill:#ff735e;}</style></defs><g id="Layer_2" data-name="Layer 2"><g id="Layer_1-2" data-name="Layer 1"><rect class="cls-1" x="18.45" y="138.71" width="166.2" height="122.6"/><rect class="cls-2" x="18.45" y="138.71" width="166.2" height="15.29"/><path class="cls-3" d="M31.79,146.71a3.5,3.5,0,1,1-3.5-3.5A3.5,3.5,0,0,1,31.79,146.71Z"/><path class="cls-3" d="M43.57,146.71a3.5,3.5,0,1,1-3.5-3.5A3.5,3.5,0,0,1,43.57,146.71Z"/><path class="cls-3" d="M55.35,146.71a3.5,3.5,0,1,1-3.49-3.5A3.5,3.5,0,0,1,55.35,146.71Z"/><polygon class="cls-4" points="129.92 187.35 121.56 178.99 101.55 199.01 81.53 178.99 73.17 187.35 93.19 207.36 73.17 227.38 81.53 235.74 101.55 215.72 121.56 235.74 129.92 227.38 109.9 207.36 129.92 187.35"/><rect class="cls-1" x="222.47" y="61.38" width="166.2" height="122.6"/><rect class="cls-2" x="222.47" y="61.38" width="166.2" height="15.29"/><path class="cls-3" d="M235.81,69.38a3.5,3.5,0,1,1-3.5-3.5A3.5,3.5,0,0,1,235.81,69.38Z"/><path class="cls-3" d="M247.6,69.38a3.5,3.5,0,1,1-3.5-3.5A3.5,3.5,0,0,1,247.6,69.38Z"/><path class="cls-3" d="M259.38,69.38a3.5,3.5,0,1,1-3.5-3.5A3.5,3.5,0,0,1,259.38,69.38Z"/><polygon class="cls-4" points="333.94 110.02 325.59 101.67 305.57 121.68 285.55 101.67 277.19 110.02 297.21 130.04 277.19 150.06 285.55 158.41 305.57 138.4 325.59 158.41 333.94 150.06 313.93 130.04 333.94 110.02"/><ellipse class="cls-5" cx="205.35" cy="342.92" rx="203.17" ry="17.56"/><path class="cls-6" d="M155.8,63.42A9.7,9.7,0,0,1,156,54l.84-1.45a15.19,15.19,0,0,0,1.55-3,2.85,2.85,0,0,0-.18-2.17q-1.32-2.76-5.95-.56a20.71,20.71,0,0,0-4.16,2.69,22.56,22.56,0,0,0-3.56,3.69l-3.51-7.34a26,26,0,0,1,8.87-6.69q5.87-2.79,10.47-2a8.77,8.77,0,0,1,6.68,5.16,7.27,7.27,0,0,1,.78,4.46,18.21,18.21,0,0,1-2.12,5.13c-.77,1.42-1.31,2.49-1.63,3.21a5.22,5.22,0,0,0-.48,2.13,5.46,5.46,0,0,0,.6,2.29l.43.91-8.39,4Zm6.43,11a5,5,0,0,1-3-6.27,4.81,4.81,0,0,1,2.57-2.75,4.92,4.92,0,0,1,3.78-.25,4.85,4.85,0,0,1,3,6.25A4.86,4.86,0,0,1,166,74.12,4.74,4.74,0,0,1,162.23,74.37Z"/><path class="cls-6" d="M196.55,35.41a14.6,14.6,0,0,1,10.83-9.18l2.46-.52a23.25,23.25,0,0,0,5-1.31A4.35,4.35,0,0,0,217.08,22q1.78-4.26-5.34-7.24a30.74,30.74,0,0,0-7.19-2,34.53,34.53,0,0,0-7.72-.3l4.73-11.3A39,39,0,0,1,218,4.45q9,3.78,12.72,9.77a13.15,13.15,0,0,1,.9,12.67,10.87,10.87,0,0,1-4.22,5.35A27.28,27.28,0,0,1,219.48,35c-2.36.56-4.11,1-5.24,1.39a7.68,7.68,0,0,0-2.86,1.6,8,8,0,0,0-2,3l-.58,1.4L195.9,37Zm-5.86,18.2a7.55,7.55,0,0,1,4-9.65,7.25,7.25,0,0,1,5.68.14,7.38,7.38,0,0,1,4.07,4,7.3,7.3,0,0,1-4,9.61,7.34,7.34,0,0,1-5.69-.1A7.17,7.17,0,0,1,190.69,53.61Z"/><polygon class="cls-7" points="406.06 215.37 406.06 209.63 402.24 209.63 402.24 215.37 396.5 215.37 396.5 219.19 402.24 219.19 402.24 224.93 406.06 224.93 406.06 219.19 411.8 219.19 411.8 215.37 406.06 215.37"/><polygon class="cls-7" points="370.01 31.6 370.01 22.84 364.19 22.84 364.19 31.6 355.43 31.6 355.43 37.42 364.19 37.42 364.19 46.18 370.01 46.18 370.01 37.42 378.76 37.42 378.76 31.6 370.01 31.6"/><polygon class="cls-7" points="354.14 201.08 354.14 196.9 351.36 196.9 351.36 201.08 347.18 201.08 347.18 203.86 351.36 203.86 351.36 208.04 354.14 208.04 354.14 203.86 358.32 203.86 358.32 201.08 354.14 201.08"/><polygon class="cls-7" points="115.71 55.65 115.71 51.47 112.93 51.47 112.93 55.65 108.75 55.65 108.75 58.43 112.93 58.43 112.93 62.61 115.71 62.61 115.71 58.43 119.89 58.43 119.89 55.65 115.71 55.65"/><polygon class="cls-7" points="83.48 28 83.48 22.25 79.66 22.25 79.66 28 73.92 28 73.92 31.81 79.66 31.81 79.66 37.55 83.48 37.55 83.48 31.81 89.22 31.81 89.22 28 83.48 28"/><path class="cls-8" d="M272,39.72a2.19,2.19,0,1,1-2.18-2.19A2.19,2.19,0,0,1,272,39.72Z"/><path class="cls-8" d="M281,2.18A2.19,2.19,0,1,1,278.77,0,2.19,2.19,0,0,1,281,2.18Z"/><circle class="cls-8" cx="323.6" cy="20.13" r="4.13"/><path class="cls-8" d="M410.7,175.42a2.19,2.19,0,1,1-2.19-2.18A2.18,2.18,0,0,1,410.7,175.42Z"/><path class="cls-8" d="M408.51,243.59a2.18,2.18,0,1,1-2.18-2.19A2.18,2.18,0,0,1,408.51,243.59Z"/><path class="cls-8" d="M76.11,124.37a2.19,2.19,0,1,1-2.19-2.19A2.19,2.19,0,0,1,76.11,124.37Z"/><circle class="cls-8" cx="38.11" cy="33.82" r="4.13"/><path class="cls-8" d="M119.63,10.5a2.18,2.18,0,1,1-2.18-2.19A2.18,2.18,0,0,1,119.63,10.5Z"/><path class="cls-8" d="M4.37,141.42a2.19,2.19,0,1,1-2.19-2.18A2.19,2.19,0,0,1,4.37,141.42Z"/><path class="cls-8" d="M4.37,257.77a2.19,2.19,0,1,1-2.19-2.19A2.19,2.19,0,0,1,4.37,257.77Z"/><path class="cls-9" d="M322.68,323.51s-36.18-72.33,61.95-120.33C384.63,203.18,392.15,306.24,322.68,323.51Z"/><path class="cls-10" d="M326.85,314.3c0-10.34,2.13-20.62,5.11-30.53.38-1.24.72-2.49,1.14-3.72l1.33-3.65,1.33-3.66,1.51-3.59c1.94-4.82,4.37-9.41,6.67-14.06l3.91-6.73c1.26-2.27,2.7-4.43,4.15-6.58s2.86-4.32,4.39-6.41,3.14-4.12,4.74-6.16l2.39-3.05,2.56-2.92,5.17-5.77c.85-1,1.79-1.87,2.71-2.77l2.78-2.69q2.79-2.69,5.63-5.31c-1.63,2-3.26,4-4.91,6L375,215.62c-.83,1-1.68,1.94-2.43,3l-4.67,6.1-2.36,3-2.19,3.15c-1.46,2.1-2.92,4.19-4.4,6.27s-2.74,4.3-4.12,6.45c-2.85,4.23-5.2,8.77-7.76,13.17a218.62,218.62,0,0,0-12.48,27.87A151.68,151.68,0,0,0,326.85,314.3Z"/><path class="cls-11" d="M381,202.46c-1.38,24.87-9.9,91-61.36,106a63.6,63.6,0,0,0,4.11,12c69.47-17.26,62-120.33,62-120.33C384.06,200.87,382.49,201.67,381,202.46Z"/><path class="cls-12" d="M313.83,346.79s5.15-22,26.68-48.71c23.59-29.24,54.36-39.76,67.13-25.71C420,286,409.5,304.86,377.57,314.49S327.59,328.27,313.83,346.79Z"/><path class="cls-13" d="M397.53,280c-7.31,2.89-14.39,6.24-21.34,9.79A205.78,205.78,0,0,0,356,301.64,148,148,0,0,0,337.69,316a110.43,110.43,0,0,0-15.43,17.55,80.21,80.21,0,0,1,6.29-10,90.56,90.56,0,0,1,7.75-9,117.4,117.4,0,0,1,18.32-15c3.31-2.17,6.68-4.24,10.13-6.17s7-3.7,10.57-5.32A132.59,132.59,0,0,1,397.53,280Z"/><path class="cls-11" d="M407.64,272.37a18.11,18.11,0,0,0-2.24-2.06C395,295.68,364.77,314.06,329,314.1c-12,18.93-15.19,32.69-15.19,32.69,13.76-18.52,31.81-22.67,63.74-32.3S420,286,407.64,272.37Z"/><path class="cls-9" d="M128.51,334.42S54.19,366.31,12,265.55C12,265.55,115.33,264.06,128.51,334.42Z"/><path class="cls-10" d="M122.57,330.93c-10.32-.58-20.45-3.34-30.17-6.89-1.21-.45-2.45-.86-3.65-1.35l-3.57-1.54-3.57-1.55-3.5-1.71c-4.7-2.22-9.13-4.92-13.65-7.48L58,306.11c-2.19-1.39-4.27-2.95-6.33-4.53s-4.15-3.1-6.14-4.75-3.93-3.38-5.87-5.09l-2.92-2.56L34,286.44,28.5,281c-.92-.9-1.75-1.9-2.6-2.87l-2.53-2.94q-2.52-2.94-5-5.92c1.91,1.74,3.8,3.48,5.67,5.24l2.8,2.65c.93.88,1.84,1.78,2.84,2.59l5.81,5,2.89,2.52,3,2.38c2,1.57,4,3.15,6,4.76s4.14,3,6.2,4.48c4.06,3.1,8.45,5.71,12.69,8.52a218.9,218.9,0,0,0,27.1,14.09A151.78,151.78,0,0,0,122.57,330.93Z"/><path class="cls-11" d="M14.09,270.38c24.75,2.82,90.25,15.19,102.19,67.44a63.09,63.09,0,0,0,12.23-3.4C115.33,264.06,12,265.55,12,265.55Q13,268,14.09,270.38Z"/><path class="cls-12" d="M97.94,307.27S97.58,284.66,82.19,254C65.34,220.43,37.5,203.63,22,214.65,7,225.36,13.33,246,42.5,262.19S88.42,286.25,97.94,307.27Z"/><path class="cls-13" d="M30.3,224.28c6.53,4.37,12.73,9.15,18.77,14.09A206.21,206.21,0,0,1,66.26,254.2a149.29,149.29,0,0,1,14.9,17.91,110.9,110.9,0,0,1,11.35,20.43,79.78,79.78,0,0,0-4-11.11A90.45,90.45,0,0,0,82.82,271a116.35,116.35,0,0,0-14.73-18.58c-2.77-2.83-5.62-5.57-8.58-8.18s-6-5.09-9.21-7.44A133,133,0,0,0,30.3,224.28Z"/><path class="cls-11" d="M22,214.65a18.75,18.75,0,0,1,2.63-1.53c4.74,27,30.42,51.36,65.35,59,7.69,21,7.92,35.17,7.92,35.17-9.52-21-26.28-28.9-55.44-45.08S7,225.36,22,214.65Z"/><path class="cls-13" d="M303.8,329.17c-.81,5.35-6.19,9.72-11.95,9.72H121.36c-5.77,0-11.2-4.37-12.08-9.71L81.05,158c-.88-5.34,3.11-9.71,8.87-9.71H320.66c5.76,0,9.82,4.37,9,9.73Z"/><polygon class="cls-14" points="261.01 91.07 117.45 91.07 117.45 293.32 293.01 293.32 293.01 123.54 261.01 91.07"/><polygon class="cls-15" points="261.01 91.07 293.25 123.3 261.01 123.3 261.01 91.07"/><polygon class="cls-16" points="253.96 155.03 239.65 140.71 205.35 175.01 171.05 140.71 156.73 155.03 191.03 189.32 156.73 223.62 171.05 237.94 205.35 203.64 239.65 237.94 253.96 223.62 219.66 189.32 253.96 155.03"/><path class="cls-12" d="M222,207a11.88,11.88,0,0,1-10.66-7.86l-6.57-21.33A11.9,11.9,0,0,0,194.12,170H77.17a6.67,6.67,0,0,0-6.79,8.1L98.92,338.93a10.22,10.22,0,0,0,9.67,8.11H311.18a10,10,0,0,0,9.52-8.13L340.34,215a6.81,6.81,0,0,0-6.94-8.12Z"/><path class="cls-17" d="M193.52,282.41A16.9,16.9,0,0,1,201,267.76l2.4-1.65a27,27,0,0,0,4.74-3.64,5,5,0,0,0,1.34-3.54q0-5.34-8.94-5.34a35.09,35.09,0,0,0-8.56,1.1,39.56,39.56,0,0,0-8.38,3.13V243.64a45.14,45.14,0,0,1,19-3.86q11.33,0,18,4.74a15.23,15.23,0,0,1,6.63,13.12,12.57,12.57,0,0,1-2.11,7.59,31.67,31.67,0,0,1-7.18,6.49c-2.28,1.66-3.93,2.94-5,3.83a8.91,8.91,0,0,0-2.34,3,9.29,9.29,0,0,0-.79,4v1.75h-16.2Zm1.89,22a8.71,8.71,0,0,1,0-12.11,8.34,8.34,0,0,1,6.12-2.39,8.52,8.52,0,0,1,6.12,2.43,8.46,8.46,0,0,1,0,12.07,8.53,8.53,0,0,1-6.12,2.44A8.31,8.31,0,0,1,195.41,304.46Z"/><path class="cls-11" d="M333.4,206.85l-12.67,0c.28,2.92.43,5.86.43,8.83,0,66.44-71.1,120.3-158.81,120.3a201.86,201.86,0,0,1-65.87-10.81l2.44,13.74a10.22,10.22,0,0,0,9.67,8.11H311.18a10,10,0,0,0,9.52-8.13L340.34,215A6.81,6.81,0,0,0,333.4,206.85Z"/><g class="cls-18"><path class="cls-17" d="M90,193.84q.91,6.06,1.81,12.12,2.14,14.4,4.3,28.82,2.61,17.55,5.23,35.11l4.5,30.13c.5,3.34,1,6.68,1.49,10,.24,1.57.37,3.2.71,4.75l0,.2a2.6,2.6,0,0,0,3.16,1.8,2.65,2.65,0,0,0,1.8-3.17q-.9-6.06-1.81-12.11-2.15-14.42-4.3-28.83-2.61-17.55-5.23-35.1l-4.5-30.14c-.49-3.34-1-6.67-1.49-10-.23-1.57-.37-3.2-.71-4.74l0-.21a2.58,2.58,0,0,0-3.16-1.79,2.64,2.64,0,0,0-1.8,3.16Z"/></g><path class="cls-19" d="M372.36,104.78a28.61,28.61,0,0,0-21.82,47.14l-1.19,14.74,13.67-6.2a28.62,28.62,0,1,0,9.34-55.68Z"/><path class="cls-3" d="M370.38,148.06a2.65,2.65,0,0,1-.79-1.95,2.7,2.7,0,0,1,2.73-2.72,2.69,2.69,0,0,1,2,.79,2.58,2.58,0,0,1,.81,1.93,2.63,2.63,0,0,1-.81,1.95,2.72,2.72,0,0,1-2,.78A2.64,2.64,0,0,1,370.38,148.06Zm-1.62-32.2H376l-1.33,23H370.1Z"/><path class="cls-11" d="M356.68,148.57a51.87,51.87,0,0,1-9.07-.79,28.88,28.88,0,0,0,2.93,4.14l-1.19,14.74,13.67-6.2a28.63,28.63,0,0,0,35.84-37.88C393.13,137.66,376.41,148.57,356.68,148.57Z"/><path class="cls-13" d="M79.1,97V69.89A6,6,0,0,0,73.17,64H23.7a6,6,0,0,0-5.93,5.92V104.1A5.94,5.94,0,0,0,23.7,110H93.37Z"/><path class="cls-17" d="M40.17,83.18c0,2.61-1.52,4.72-3.38,4.72s-3.38-2.11-3.38-4.72,1.51-4.71,3.38-4.71S40.17,80.58,40.17,83.18Z"/><path class="cls-17" d="M62.63,83.18c0,2.61-1.52,4.72-3.38,4.72s-3.38-2.11-3.38-4.72,1.51-4.71,3.38-4.71S62.63,80.58,62.63,83.18Z"/><path class="cls-17" d="M40.27,96.37a11.2,11.2,0,0,1,4.38-2.85c4.05-1.46,8,.07,11.07,2.85.82.74,2.05-.48,1.22-1.23-3.43-3.08-7.87-4.89-12.43-3.4a13.15,13.15,0,0,0-5.46,3.4c-.75.82.47,2,1.22,1.23Z"/><path class="cls-11" d="M79.1,97V69.89A6,6,0,0,0,73.17,64H68.1a37.8,37.8,0,0,1,1.35,10c0,14.42-8.19,27.33-21.11,36.06h45Z"/><path class="cls-19" d="M250,249.05a40.62,40.62,0,1,0,57.45,0A40.63,40.63,0,0,0,250,249.05Zm52.8,52.79a34,34,0,1,1,0-48.13A34,34,0,0,1,302.84,301.84Z"/><circle class="cls-20" cx="278.77" cy="277.77" r="34.04"/><rect class="cls-9" x="323.29" y="293.32" width="7.2" height="65.14" transform="translate(-134.7 326.6) rotate(-45)"/><rect class="cls-19" x="308.74" y="299.35" width="7.2" height="23.99" transform="translate(-128.67 312.05) rotate(-45)"/><path class="cls-17" d="M259,263.78a17.27,17.27,0,0,1,7.53-8.83,22.59,22.59,0,0,1,23.13,0,17.32,17.32,0,0,1,7.52,8.84,77.79,77.79,0,0,0-10-2.86A46,46,0,0,0,278,260a45.39,45.39,0,0,0-9.1.92A74.73,74.73,0,0,0,259,263.78Z"/></g></g></svg>