<svg xmlns="http://www.w3.org/2000/svg" xmlns:xlink="http://www.w3.org/1999/xlink" viewBox="0 0 436.45 337.38"><defs><style>.cls-1{fill:none;}.cls-2{fill:#c8d3fb;}.cls-3{fill:#e1e7ff;}.cls-4{fill:#ecf0fd;}.cls-5{fill:#ff735e;}.cls-6{clip-path:url(#clip-path);}.cls-7{fill:#ffad36;}.cls-8{fill:#0044a4;opacity:0.1;}.cls-9{clip-path:url(#clip-path-2);}.cls-10{fill:#6680e1;}.cls-11{fill:#cddcf8;}.cls-12{fill:#7b98f0;}.cls-13{fill:#fff;}.cls-14{fill:#b2c4f4;}.cls-15{fill:#f4f9ff;}.cls-16{opacity:0.2;}.cls-17{fill:#ffb0a7;}.cls-18{fill:#e1ecfd;}.cls-19{fill:#ecf4ff;}</style><clipPath id="clip-path"><path class="cls-1" d="M359.69,310.59s-31.18-63.31,64-90.91C423.65,219.68,430.27,315.62,359.69,310.59Z"/></clipPath><clipPath id="clip-path-2"><path class="cls-1" d="M76.82,303.9s-55.26,13.18-60.09-66.24C16.73,237.66,93.27,249.52,76.82,303.9Z"/></clipPath></defs><g id="Layer_2" data-name="Layer 2"><g id="Layer_1-2" data-name="Layer 1"><polygon class="cls-2" points="432.75 99.75 426.15 99.75 426.15 93.15 421.47 93.15 421.47 99.75 414.87 99.75 414.87 104.43 421.47 104.43 421.47 111.03 426.15 111.03 426.15 104.43 432.75 104.43 432.75 99.75"/><polygon class="cls-2" points="397.89 204.19 392.06 204.19 392.06 198.37 387.92 198.37 387.92 204.19 382.1 204.19 382.1 208.33 387.92 208.33 387.92 214.16 392.06 214.16 392.06 208.33 397.89 208.33 397.89 204.19"/><polygon class="cls-2" points="148.9 36.51 143.07 36.51 143.07 30.68 138.93 30.68 138.93 36.51 133.11 36.51 133.11 40.65 138.93 40.65 138.93 46.48 143.07 46.48 143.07 40.65 148.9 40.65 148.9 36.51"/><polygon class="cls-2" points="421.91 129.46 417.69 129.46 417.69 125.24 414.69 125.24 414.69 129.46 410.46 129.46 410.46 132.46 414.69 132.46 414.69 136.69 417.69 136.69 417.69 132.46 421.91 132.46 421.91 129.46"/><polygon class="cls-2" points="129.88 62.08 125.66 62.08 125.66 57.85 122.66 57.85 122.66 62.08 118.43 62.08 118.43 65.08 122.66 65.08 122.66 69.31 125.66 69.31 125.66 65.08 129.88 65.08 129.88 62.08"/><polygon class="cls-2" points="19.06 113.07 13.23 113.07 13.23 107.24 9.09 107.24 9.09 113.07 3.27 113.07 3.27 117.2 9.09 117.2 9.09 123.03 13.23 123.03 13.23 117.2 19.06 117.2 19.06 113.07"/><polygon class="cls-2" points="21.19 294.87 16.96 294.87 16.96 290.64 13.96 290.64 13.96 294.87 9.74 294.87 9.74 297.87 13.96 297.87 13.96 302.1 16.96 302.1 16.96 297.87 21.19 297.87 21.19 294.87"/><circle class="cls-3" cx="9.74" cy="210.06" r="3.91"/><path class="cls-3" d="M425.12,166.36a2.07,2.07,0,1,1-2.07-2.06A2.07,2.07,0,0,1,425.12,166.36Z"/><path class="cls-3" d="M423.53,296.37a3.91,3.91,0,1,1-3.91-3.91A3.91,3.91,0,0,1,423.53,296.37Z"/><path class="cls-3" d="M148.48,2.06A2.07,2.07,0,1,1,146.41,0,2.07,2.07,0,0,1,148.48,2.06Z"/><path class="cls-3" d="M105.32,4.59A3.91,3.91,0,1,1,101.41.68,3.91,3.91,0,0,1,105.32,4.59Z"/><circle class="cls-3" cx="176.58" cy="14.59" r="3.91"/><path class="cls-3" d="M4.13,149.38a2.07,2.07,0,1,1-2.07-2.06A2.07,2.07,0,0,1,4.13,149.38Z"/><path class="cls-3" d="M43.09,217.62A2.07,2.07,0,1,1,41,215.55,2.06,2.06,0,0,1,43.09,217.62Z"/><path class="cls-3" d="M415,58.09A2.07,2.07,0,1,1,412.91,56,2.07,2.07,0,0,1,415,58.09Z"/><path class="cls-3" d="M338.06,20.43A2.07,2.07,0,1,1,336,18.37,2.07,2.07,0,0,1,338.06,20.43Z"/><circle class="cls-3" cx="369.29" cy="8.41" r="3.91"/><path class="cls-3" d="M431.81,276.68a2.07,2.07,0,1,1-2.06-2.07A2.06,2.06,0,0,1,431.81,276.68Z"/><path class="cls-3" d="M62.15,8.5a2.07,2.07,0,1,1-2.07-2.07A2.07,2.07,0,0,1,62.15,8.5Z"/><ellipse class="cls-4" cx="213.16" cy="318.96" rx="209.89" ry="18.42"/><path class="cls-5" d="M359.69,310.59s-31.18-63.31,64-90.91C423.65,219.68,430.27,315.62,359.69,310.59Z"/><g class="cls-6"><path class="cls-7" d="M436.4,234.42l-.54-.91a134,134,0,0,1-41,16.1c4.71-5.56,9.36-10.66,13.57-15.08a72.44,72.44,0,0,0,28-12.85l-.64-.85a72.74,72.74,0,0,1-26.07,12.34c9.14-9.5,15.89-15.52,16.09-15.7l-.7-.79c-.21.18-7.11,6.33-16.41,16,.9-12.06,6.82-23.87,6.88-24l-1-.48c-.06.12-6.5,13-7.07,25.66-4.21,4.43-8.87,9.55-13.59,15.13.34-15.78,7.1-34.27,7.17-34.46l-1-.37c-.07.2-7.27,19.88-7.25,36.12-4.55,5.44-9.13,11.3-13.41,17.38-.83-22.73,5.89-46.18,6-46.42l-1-.29c-.07.25-7.12,24.82-5.94,48.16-3.16,4.58-6.15,9.29-8.8,14-4.71-24.44,1.36-46.62,1.42-46.84l-1-.29c-.07.23-6.42,23.4-1.2,48.59A110.67,110.67,0,0,0,362.26,299c-6-17.09-7.19-41.57-6.93-43l-1.05-.19c-.28,1.53.8,27.07,7.41,44.74a65.43,65.43,0,0,0-3.29,13.64l1.05.12a63.63,63.63,0,0,1,3.16-13.16,55.67,55.67,0,0,0,11,.87h1.51c8-.13,21.39-1.34,40.17-6.42l-.28-1c-32,8.65-48.82,6.18-52,5.56a108.43,108.43,0,0,1,6.81-14.93c.86.08,3.09.26,6.34.26,10.23,0,30.35-1.81,47.84-14.26l-.61-.87c-21.95,15.62-48.08,14.27-53,13.85,2.71-4.9,5.79-9.77,9.06-14.51,3.29-.33,32.51-3.68,52-18.86l-.66-.83c-18,14.05-44.59,17.84-50.52,18.54,4.33-6.18,9-12.13,13.6-17.64A132.59,132.59,0,0,0,436.4,234.42Z"/></g><path class="cls-8" d="M423.65,219.68c-5.63,1.63-10.8,3.39-15.58,5.26a62.29,62.29,0,0,1,3.19,19.77c0,31.59-23.22,57.2-51.86,57.2-.91,0-1.82,0-2.72-.08a49.27,49.27,0,0,0,3,8.76C430.27,315.62,423.65,219.68,423.65,219.68Z"/><path class="cls-7" d="M76.82,303.9s-55.26,13.18-60.09-66.24C16.73,237.66,93.27,249.52,76.82,303.9Z"/><g class="cls-9"><path class="cls-5" d="M30.57,230.29l-.82.26a107,107,0,0,1,5.39,35c-3.53-4.68-6.71-9.22-9.44-13.3A58.14,58.14,0,0,0,20.57,228l-.78.35A58.38,58.38,0,0,1,24.86,251c-5.84-8.85-9.37-15.2-9.48-15.39l-.75.41c.11.19,3.72,6.69,9.68,15.69C15,248.82,6.77,242.08,6.68,242l-.54.66c.09.07,9,7.39,18.91,10.09,2.73,4.09,5.93,8.65,9.47,13.34C22.19,263,8.86,254.45,8.72,254.36l-.46.72c.14.09,14.32,9.23,27.08,12.09,3.47,4.54,7.26,9.16,11.29,13.6-18-3.39-35.24-12.82-35.41-12.92l-.42.75c.18.1,18.24,10,36.78,13.21,3,3.3,6.21,6.47,9.47,9.39a92.51,92.51,0,0,1-36.55-9.44l-.41.76c.17.09,17.25,9.18,38,9.57a89.69,89.69,0,0,0,10.11,7.74c-14.49,1.68-33.93-1.75-35-2.21l-.34.79c1.15.49,21.41,4.18,36.46,2.14a52.62,52.62,0,0,0,10.13,5l.28-.81a51.14,51.14,0,0,1-9.78-4.81,44.56,44.56,0,0,0,2.63-8.45c.09-.38.17-.77.26-1.18,1.31-6.26,2.74-17,2.08-32.6l-.86,0c1.13,26.61-3.79,39.34-4.85,41.74a88.49,88.49,0,0,1-10.52-8c.22-.66.76-2.37,1.33-4.92,1.81-8,3.95-24.09-2.73-40l-.79.33c8.38,20,2.69,40.19,1.49,44-3.37-3-6.65-6.27-9.79-9.68.32-2.63,2.87-26.11-5.61-44.06l-.77.36c7.85,16.62,6.12,38.1,5.61,42.87-4.08-4.49-7.93-9.19-11.44-13.79A106.5,106.5,0,0,0,30.57,230.29Z"/></g><path class="cls-8" d="M16.73,237.66c.29,4.7.75,9.06,1.37,13.13a50.72,50.72,0,0,1,16.1,1C59,257.42,75,280.16,69.94,302.59c-.16.71-.34,1.42-.54,2.11a39.45,39.45,0,0,0,7.42-.8C93.27,249.52,16.73,237.66,16.73,237.66Z"/><rect class="cls-10" x="55.34" y="80.11" width="315.64" height="196.56" rx="8"/><rect class="cls-11" x="64.25" y="89.76" width="297.83" height="177.28"/><rect class="cls-12" x="164.16" y="276.68" width="98" height="24.54"/><path class="cls-10" d="M309.06,315.31C291.14,300.84,254.92,291,213.16,291s-78,9.89-95.91,24.36Z"/><path class="cls-12" d="M117.25,317.81h184c2.5,0,5,.06,7.5,0h.32c3.22,0,3.23-5,0-5h-184c-2.5,0-5-.06-7.5,0h-.33c-3.21,0-3.22,5,0,5Z"/><rect class="cls-13" x="80.51" y="102.09" width="265.29" height="153.38"/><rect class="cls-3" x="80.51" y="102.09" width="265.29" height="14.78"/><path class="cls-5" d="M93.41,109.82A3.39,3.39,0,1,1,90,106.44,3.38,3.38,0,0,1,93.41,109.82Z"/><path class="cls-7" d="M104.8,109.82a3.39,3.39,0,1,1-3.39-3.38A3.38,3.38,0,0,1,104.8,109.82Z"/><path class="cls-10" d="M116.19,109.82a3.39,3.39,0,1,1-3.39-3.38A3.38,3.38,0,0,1,116.19,109.82Z"/><path class="cls-3" d="M306.9,181.74c0,9.15-7.86,16.62-17.46,16.62H141.84c-9.6,0-17.46-7.47-17.46-16.62s7.86-16.62,17.46-16.62h147.6C299,165.12,306.9,172.6,306.9,181.74Z"/><path class="cls-10" d="M160.89,189.58l-6-5.64a7.33,7.33,0,1,0-1.35,1.45l6.06,5.64Zm-15.62-5.94a5.31,5.31,0,1,1,7.23-7.77h0a5.31,5.31,0,1,1-7.23,7.77Z"/><circle class="cls-14" cx="187.16" cy="181.46" r="1.71"/><circle class="cls-14" cx="207.16" cy="181.46" r="1.71"/><circle class="cls-14" cx="227.16" cy="181.46" r="1.71"/><circle class="cls-14" cx="247.16" cy="181.46" r="1.71"/><rect class="cls-15" x="272.82" y="42.22" width="132.05" height="145.28"/><rect class="cls-3" x="272.82" y="42.22" width="132.05" height="16.38"/><path class="cls-5" d="M287.11,50.78A3.75,3.75,0,1,1,283.36,47,3.75,3.75,0,0,1,287.11,50.78Z"/><path class="cls-7" d="M299.73,50.78A3.75,3.75,0,1,1,296,47,3.75,3.75,0,0,1,299.73,50.78Z"/><path class="cls-10" d="M312.35,50.78A3.75,3.75,0,1,1,308.6,47,3.75,3.75,0,0,1,312.35,50.78Z"/><rect class="cls-5" x="383.95" y="125.89" width="7.71" height="69.13" transform="translate(0.13 321.22) rotate(-45)"/><rect class="cls-10" x="362.56" y="132.34" width="14.51" height="20.23" transform="translate(7.58 303.22) rotate(-45)"/><g class="cls-16"><path class="cls-15" d="M363.37,136a32.79,32.79,0,1,1,0-46.37A32.82,32.82,0,0,1,363.37,136Z"/></g><path class="cls-5" d="M366.48,139.13a37.19,37.19,0,1,1,0-52.6A37.24,37.24,0,0,1,366.48,139.13ZM319.34,92A29.48,29.48,0,1,0,361,92,29.5,29.5,0,0,0,319.34,92Z"/><polygon class="cls-7" points="356.49 101.32 351.69 96.52 340.18 108.02 328.68 96.52 323.87 101.32 335.38 112.83 323.87 124.33 328.68 129.13 340.18 117.63 351.69 129.13 356.49 124.33 344.99 112.83 356.49 101.32"/><polygon class="cls-5" points="129.76 210.06 70.02 210.06 70.02 317.97 162.16 317.97 162.16 241.1 129.76 210.06"/><polygon class="cls-17" points="129.76 210.06 162.16 241.1 129.76 241.1 129.76 210.06"/><path class="cls-13" d="M106.26,251.53c0,3.24-1.88,5.87-4.2,5.87s-4.2-2.63-4.2-5.87,1.88-5.86,4.2-5.86S106.26,248.29,106.26,251.53Z"/><ellipse class="cls-13" cx="130" cy="251.53" rx="4.2" ry="5.86"/><path class="cls-13" d="M104.34,269.14a16.82,16.82,0,0,1,6.6-4.29c6.13-2.21,12,.09,16.72,4.29,1.24,1.12,3.1-.72,1.84-1.85-5.17-4.65-11.88-7.38-18.76-5.13a19.72,19.72,0,0,0-8.24,5.13c-1.13,1.24.71,3.09,1.84,1.85Z"/><path class="cls-7" d="M98.28,28.11H31.09a7.31,7.31,0,0,0-7.28,7.29V82.53a7.31,7.31,0,0,0,7.28,7.29H54.7l10,12.16,10-12.16H98.28a7.31,7.31,0,0,0,7.29-7.29V35.4A7.31,7.31,0,0,0,98.28,28.11Z"/><path class="cls-13" d="M64.69,36.87A22.25,22.25,0,1,0,86.94,59.12,22.27,22.27,0,0,0,64.69,36.87Zm0,4.19A18,18,0,0,1,75.88,45L50.53,70.31A18,18,0,0,1,64.69,41.06Zm0,36.11a18,18,0,0,1-11.19-3.9L78.84,47.93A18,18,0,0,1,64.69,77.17Z"/><polygon class="cls-11" points="349.07 217.62 293.35 217.25 292.68 317.92 378.64 318.49 379.11 246.77 349.07 217.62"/><polygon class="cls-18" points="349.07 217.62 379.11 246.77 348.88 246.57 349.07 217.62"/><polygon class="cls-19" points="354.22 255.14 348.91 249.76 336.03 262.48 323.31 249.6 317.93 254.9 330.65 267.79 317.76 280.51 323.07 285.88 335.96 273.17 348.67 286.05 354.05 280.75 341.33 267.86 354.22 255.14"/><polygon class="cls-11" points="68.1 139.96 34.75 123.25 4.55 183.5 55.99 209.28 77.5 166.36 68.1 139.96"/><polygon class="cls-18" points="68.1 139.96 77.5 166.36 59.41 157.29 68.1 139.96"/><polygon class="cls-19" points="60.08 164.02 58.49 159.22 46.99 163.04 43.16 151.54 38.36 153.13 42.19 164.63 30.68 168.46 32.28 173.26 43.78 169.44 47.6 180.94 52.4 179.34 48.58 167.84 60.08 164.02"/><polygon class="cls-11" points="192.85 28.13 166.16 36.81 181.85 85.03 223.02 71.64 211.84 37.28 192.85 28.13"/><polygon class="cls-18" points="192.85 28.13 211.84 37.28 197.36 42 192.85 28.13"/><polygon class="cls-19" points="201.28 45.24 197.89 43.52 193.75 51.64 185.62 47.51 183.9 50.9 192.02 55.03 187.89 63.16 191.28 64.89 195.41 56.76 203.54 60.9 205.27 57.51 197.14 53.37 201.28 45.24"/><path class="cls-5" d="M275.25,23.5h-2.34a19.87,19.87,0,0,0-2.36-5.77l1.66-1.65a3.33,3.33,0,0,0,0-4.69L270.3,9.44a3.34,3.34,0,0,0-4.7,0l-1.66,1.65a20.31,20.31,0,0,0-5.75-2.41V6.33A3.35,3.35,0,0,0,254.89,3h-2.74a3.33,3.33,0,0,0-3.33,3.3V8.63A19.94,19.94,0,0,0,243.05,11L241.4,9.34a3.34,3.34,0,0,0-4.7,0l-1.94,1.93a3.33,3.33,0,0,0,0,4.69l1.65,1.66A19.7,19.7,0,0,0,234,23.36h-2.34a3.32,3.32,0,0,0-3.33,3.31v2.73a3.32,3.32,0,0,0,3.31,3.33H234a20.06,20.06,0,0,0,2.37,5.77l-1.66,1.65a3.33,3.33,0,0,0,0,4.69l1.92,1.94a3.33,3.33,0,0,0,4.7,0l1.66-1.65a19.75,19.75,0,0,0,5.75,2.41V49.9A3.34,3.34,0,0,0,252,53.23h2.74a3.34,3.34,0,0,0,3.33-3.31V47.59a19.67,19.67,0,0,0,5.77-2.37l1.65,1.66a3.33,3.33,0,0,0,4.7,0L272.11,45a3.33,3.33,0,0,0,0-4.69l-1.65-1.66a19.7,19.7,0,0,0,2.41-5.76h2.34a3.32,3.32,0,0,0,3.33-3.31V26.83A3.32,3.32,0,0,0,275.25,23.5ZM253.4,37.37a9.26,9.26,0,1,1,9.3-9.23A9.27,9.27,0,0,1,253.4,37.37Z"/><path class="cls-7" d="M253.48,14.9a13.21,13.21,0,1,0,13.17,13.26A13.21,13.21,0,0,0,253.48,14.9Zm-.07,21.42a8.21,8.21,0,1,1,8.23-8.18A8.21,8.21,0,0,1,253.41,36.32Z"/><path class="cls-13" d="M93.05,281a5.53,5.53,0,0,1,.57-.07l.52,0h.47l.6.05-.47,2.09-.12,0c0,.33.06.69.08,1.11s0,.82,0,1.23,0,.77,0,1.09v2.28a3.12,3.12,0,0,1-.44.05h-.8a3.39,3.39,0,0,1-.47-.05Zm2.26,3.7c-.13-.29-.25-.58-.36-.86s-.21-.54-.28-.76l-.85-1L95.21,281l1.76,4.1c.15.34.28.66.41,1l.31.78.93,1-1.5,1Zm4-3.73v7.81a2.39,2.39,0,0,1-.36.05l-.42,0h-.79c-.2,0-.39,0-.6-.05l.48-2,.14,0c0-.35-.06-.75-.08-1.17s0-.83,0-1.23,0-.72,0-1V282a1.25,1.25,0,0,1,.25-.87,1.1,1.1,0,0,1,.78-.24h.59Z"/><path class="cls-13" d="M101.72,284.91a5.86,5.86,0,0,1,.37-2.15,3,3,0,0,1,1.13-1.43,3.41,3.41,0,0,1,1.91-.5,3.59,3.59,0,0,1,1.52.29,2.79,2.79,0,0,1,1.06.83,3.7,3.7,0,0,1,.63,1.29,6.22,6.22,0,0,1,.2,1.67,5.66,5.66,0,0,1-.37,2.15,3,3,0,0,1-1.13,1.43,3.33,3.33,0,0,1-1.91.51,3.51,3.51,0,0,1-1.51-.3,2.64,2.64,0,0,1-1.06-.83,3.7,3.7,0,0,1-.63-1.29A6.26,6.26,0,0,1,101.72,284.91Zm1.92,0c0,.3,0,.61,0,.92a3.45,3.45,0,0,0,.2.87,1.49,1.49,0,0,0,.45.64,1.17,1.17,0,0,0,.79.25,1.2,1.2,0,0,0,.8-.25,1.56,1.56,0,0,0,.44-.64,3.45,3.45,0,0,0,.2-.87,7.19,7.19,0,0,0,.05-.92,7.09,7.09,0,0,0-.05-.92,3.26,3.26,0,0,0-.2-.87,1.5,1.5,0,0,0-.44-.64,1.2,1.2,0,0,0-.8-.25,1.17,1.17,0,0,0-.79.25,1.43,1.43,0,0,0-.45.64,3.26,3.26,0,0,0-.2.87C103.66,284.3,103.64,284.6,103.64,284.91Z"/><path class="cls-13" d="M121,284.91a9.11,9.11,0,0,1-.09,1.29,4.14,4.14,0,0,1-.37,1.16,3,3,0,0,1-.83,1,2,2,0,0,1-.64.33,4,4,0,0,1-.76.19,4.51,4.51,0,0,1-.7.06H115.7l-1,0-.08-.08v-7.72l.08-.08,1,0h1.92a4.74,4.74,0,0,1,.71.06,4.94,4.94,0,0,1,.76.18,2.08,2.08,0,0,1,.63.33,3,3,0,0,1,.82,1,3.78,3.78,0,0,1,.37,1.15A7.75,7.75,0,0,1,121,284.91Zm-1.89,0a6.73,6.73,0,0,0-.05-.89,3.48,3.48,0,0,0-.21-.83,1.46,1.46,0,0,0-.45-.61,1.3,1.3,0,0,0-.79-.23h-1.14v5.14h1.14a1.3,1.3,0,0,0,.79-.23,1.43,1.43,0,0,0,.45-.62,3.48,3.48,0,0,0,.21-.83A6.58,6.58,0,0,0,119.12,284.91Z"/><path class="cls-13" d="M125.1,281l.52-.05h1.07a3.54,3.54,0,0,1,.53.06l2.47,7.71a1.48,1.48,0,0,1-.49.16,3,3,0,0,1-.56.06,1.11,1.11,0,0,1-.69-.2,1.64,1.64,0,0,1-.41-.79l-.82-2.91c-.09-.32-.19-.7-.31-1.14s-.22-.84-.32-1.22H126c0,.21-.09.44-.15.7l-.21.78c-.07.26-.14.49-.2.7l-1.17,4a1.36,1.36,0,0,1-.36.05h-.42a3.78,3.78,0,0,1-.46,0,1.67,1.67,0,0,1-.42-.09l-.07-.1Zm.13,6.2h-1.54l.55-1.43H128l.46,1.43h-3.19Z"/><path class="cls-13" d="M130.36,282.52c0-.14,0-.27-.05-.41s0-.24,0-.35,0-.23,0-.36,0-.27.05-.41H136a1.57,1.57,0,0,1,.07.34,2.36,2.36,0,0,1,0,.37.74.74,0,0,1-.23.63,1.09,1.09,0,0,1-.72.19h-4.82Zm1.91.84c0-.16,0-.3,0-.43v-1.18h1.82v.76c0,.16,0,.3,0,.42s0,.27,0,.43v5.47a3.87,3.87,0,0,1-.49.05h-.87a3.87,3.87,0,0,1-.49-.05Z"/><path class="cls-13" d="M139.19,281l.53-.05h1.06a3.69,3.69,0,0,1,.54.06l2.46,7.71a1.41,1.41,0,0,1-.49.16,2.81,2.81,0,0,1-.56.06,1.06,1.06,0,0,1-.68-.2,1.64,1.64,0,0,1-.41-.79l-.82-2.91c-.09-.32-.19-.7-.31-1.14s-.23-.84-.32-1.22h-.07c0,.21-.09.44-.16.7s-.13.52-.2.78-.14.49-.2.7l-1.17,4a1.44,1.44,0,0,1-.37.05h-.41a4,4,0,0,1-.47,0,1.68,1.68,0,0,1-.41-.09l-.07-.1Zm.14,6.2h-1.55l.56-1.43h3.72l.46,1.43h-3.19Z"/></g></g></svg>