<svg xmlns="http://www.w3.org/2000/svg" xmlns:xlink="http://www.w3.org/1999/xlink" viewBox="0 0 379.12 386.37"><defs><style>.cls-1{fill:none;}.cls-2{fill:#ecf0fd;}.cls-3{fill:#ff735e;}.cls-4{fill:#ffad36;}.cls-5,.cls-8{opacity:0.1;}.cls-6,.cls-8{fill:#0044a4;}.cls-7{fill:#6680e1;}.cls-9{fill:#becff4;}.cls-10{fill:#aac2ec;}.cls-11{fill:#cfdefa;}.cls-12{clip-path:url(#clip-path);}.cls-13{clip-path:url(#clip-path-2);}.cls-14{clip-path:url(#clip-path-3);}.cls-15{fill:#f2f2f2;}.cls-16{fill:#cfdef8;}.cls-17{fill:#ffd06e;}.cls-18{fill:#fff;}.cls-19{clip-path:url(#clip-path-4);}.cls-20{opacity:0.3;}.cls-21{clip-path:url(#clip-path-5);}.cls-22{fill:#c8d3fb;}.cls-23{fill:#e1e7ff;}</style><clipPath id="clip-path"><circle id="SVGID" class="cls-1" cx="137.19" cy="95.76" r="11.35"/></clipPath><clipPath id="clip-path-2"><circle id="SVGID-2" data-name="SVGID" class="cls-1" cx="240.47" cy="172.97" r="11.35"/></clipPath><clipPath id="clip-path-3"><circle id="SVGID-3" data-name="SVGID" class="cls-1" cx="137.19" cy="252.58" r="11.35"/></clipPath><clipPath id="clip-path-4"><polygon id="SVGID-4" data-name="SVGID" class="cls-1" points="313.35 362.89 203.97 362.89 251.25 246.29 266.07 246.29 313.35 362.89"/></clipPath><clipPath id="clip-path-5"><polygon id="SVGID-5" data-name="SVGID" class="cls-1" points="126.35 366.09 62.45 366.09 90.07 297.99 98.73 297.99 126.35 366.09"/></clipPath></defs><g id="Layer_2" data-name="Layer 2"><g id="Layer_1-2" data-name="Layer 1"><ellipse class="cls-2" cx="190.61" cy="367.33" rx="188.52" ry="19.04"/><path class="cls-3" d="M98,304.56c-6.28,0-3.29,20.4-3.29,20.4s-9.32-22-16.49-22.82-.88,18.41-.88,18.41S58.65,299.68,53.83,300.9s4,12.88,4,12.88-30.91-15.55-33.64-9.65,29.12,19.42,29.12,19.42-14.59.8-12.41,5.26S71.07,334,71.07,334s-18.72,7.62-13.48,12.58,28.07-2.18,28.07-2.18S68.2,355.28,72.23,360.1s41-14.76,41-14.76S104.23,304.51,98,304.56Z"/><path class="cls-4" d="M99.94,320.93l1.83,7.12c.6,2.38,1.28,4.74,1.92,7.1l1.68,6.17-5.79-2.77-9.46-4.45c-1.1-2.91-2.2-5.82-3.39-8.7L84.92,321c-.65-1.45-1.26-2.91-1.93-4.35.43,1.53.93,3,1.4,4.55l1.51,4.52c.87,2.58,1.8,5.13,2.74,7.69l-11.4-5.36L71,325.2c-1.23-2.06-2.46-4.11-3.76-6.13l-2-3.11c-.71-1-1.38-2-2.12-3,.52,1.13,1.09,2.23,1.63,3.34l1.74,3.27c.87,1.64,1.79,3.25,2.72,4.86L54.78,317.8c-7.51-3.37-15-6.73-22.59-10,7.37,3.67,14.79,7.23,22.22,10.78l14.48,6.8c-1.89.35-3.79.71-5.67,1.13-2.42.52-4.83,1.06-7.23,1.73,2.48-.2,4.93-.52,7.39-.86s4.87-.74,7.3-1.16l6.07,2.85,11.53,5.26c-2.6,1-5.19,1.93-7.76,3-3,1.18-5.91,2.37-8.82,3.69,3.07-.87,6.1-1.85,9.12-2.86s6-2.05,9-3.12l9.44,4.31,5.86,2.63-5.81,2.74c-2.23,1-4.47,2.08-6.68,3.17-4.43,2.15-8.85,4.32-13.22,6.61,4.57-1.85,9.09-3.82,13.6-5.8,2.26-1,4.49-2,6.74-3l6.73-3.05,0,0,4,1.79c3.77,1.65,7.53,3.32,11.32,4.93-3.68-1.84-7.39-3.62-11.08-5.44l-4-1.9v0l-2-7.07c-.69-2.35-1.34-4.72-2.07-7.06l-2.15-7c-.75-2.33-1.47-4.68-2.26-7C98.76,316.16,99.37,318.54,99.94,320.93Z"/><g class="cls-5"><path class="cls-6" d="M54.45,312.14c-8.09-3.83-28.08-12.7-30.25-8-.85,1.82,1.62,4.38,5.43,7C36.79,309.86,45.35,310.16,54.45,312.14Z"/><path class="cls-6" d="M77.22,320.33c14.65,7.46,25.6,17.78,30.45,27.84,3.35-1.68,5.52-2.83,5.52-2.83s-9-40.83-15.24-40.78S94.66,325,94.66,325s-9.32-22-16.49-22.82C71.45,301.4,76.55,318.19,77.22,320.33Z"/><path class="cls-6" d="M57.1,312.76a94.24,94.24,0,0,1,14.62,5q2.7,1.17,5.26,2.46c-2.43-2.68-18.69-20.43-23.15-19.3C49.89,301.91,55.09,309.89,57.1,312.76Z"/></g><path class="cls-3" d="M320.29,307.08c.64-6.25-19.92-5.5-19.92-5.5s22.91-6.86,24.48-13.9-18.21-2.88-18.21-2.88,22.79-16.25,22.1-21.18-13.24,2.58-13.24,2.58,18.84-29,13.27-32.38-22.48,26.82-22.48,26.82.8-14.59-3.88-12.91S294,277.14,294,277.14s-5.53-19.44-11-14.77-.9,28.14-.9,28.14-8.91-18.54-14.14-15.07,10.19,42.33,10.19,42.33S319.64,313.32,320.29,307.08Z"/><path class="cls-4" d="M303.8,307.26l-7.29,1.05c-2.43.33-4.84.75-7.27,1.12l-6.31,1,3.39-5.45,5.45-8.92c3-.78,6-1.56,9-2.42l4.57-1.33c1.51-.48,3-.92,4.54-1.44-1.57.26-3.12.6-4.68.9l-4.65,1c-2.66.58-5.3,1.22-7.95,1.88l6.57-10.75,3.52-5.89c2.18-1,4.36-2,6.5-3.07l3.32-1.66c1.08-.59,2.18-1.15,3.26-1.77-1.18.38-2.33.84-3.5,1.25l-3.44,1.37c-1.73.69-3.43,1.43-5.13,2.17l8.12-13.6c4.17-7.1,8.33-14.2,12.38-21.37-4.46,6.93-8.81,13.91-13.14,20.91l-8.35,13.65c-.14-1.92-.29-3.84-.5-5.76-.26-2.46-.53-4.92-.93-7.37-.08,2.48,0,5,.05,7.43s.2,4.93.35,7.39l-3.5,5.72-6.49,10.89c-.67-2.69-1.35-5.37-2.1-8-.84-3.07-1.71-6.13-2.7-9.17.53,3.15,1.17,6.27,1.84,9.38s1.39,6.16,2.13,9.23l-5.32,8.92-3.25,5.54L280.22,304c-.81-2.33-1.58-4.67-2.43-7-1.65-4.64-3.32-9.28-5.11-13.87,1.33,4.74,2.8,9.45,4.27,14.15.72,2.36,1.52,4.69,2.27,7l2.3,7,0,0-2.22,3.8c-2.05,3.57-4.13,7.12-6.14,10.71,2.24-3.46,4.41-6.95,6.62-10.42l2.32-3.73h.05l7.25-1.26c2.41-.43,4.83-.81,7.24-1.28l7.23-1.37c2.4-.49,4.81-.95,7.21-1.48C308.66,306.61,306.23,307,303.8,307.26Z"/><g class="cls-5"><path class="cls-6" d="M317.5,263c4.69-7.62,15.7-26.52,11.27-29.19-1.72-1-4.53,1.13-7.59,4.62C321.7,245.7,320.46,254.19,317.5,263Z"/><path class="cls-6" d="M306.87,284.75c-9,13.75-20.47,23.5-31,27.22,1.3,3.51,2.21,5.8,2.21,5.8s41.56-4.45,42.2-10.69-19.91-5.5-19.91-5.5,22.91-6.86,24.48-13.9C326.32,281.08,309.07,284.31,306.87,284.75Z"/><path class="cls-6" d="M316.6,265.58a95.52,95.52,0,0,1-6.55,14q-1.46,2.55-3,4.95c2.94-2.12,22.36-16.34,21.72-20.9C328.17,259.59,319.66,263.89,316.6,265.58Z"/></g><path class="cls-7" d="M42.92,244.19a71.63,71.63,0,0,0,4,7.56A117.32,117.32,0,0,0,59.33,269,106.86,106.86,0,0,0,81,288.24a93.21,93.21,0,0,0,31.84,13.46,107.21,107.21,0,0,0,42.64,0c2-.39,4.08-.83,6.1-1.31.63-.15.31-1.11-.32-1-14.36,3.43-29.35,4.57-44,2.13a92.26,92.26,0,0,1-32.7-12.18,104.19,104.19,0,0,1-22.57-18.76,116.62,116.62,0,0,1-13.31-17.71c-1.77-2.88-3.34-6-4.82-8.86a.78.78,0,0,1,0-.14c-.26-.59-1.22-.28-1,.32Z"/><path class="cls-7" d="M48.12,253.76a20.73,20.73,0,0,1-5.67-5.3A28.76,28.76,0,0,1,37,235.4a20.56,20.56,0,0,1,.28-7.76A20.6,20.6,0,0,1,43,232.93a28.32,28.32,0,0,1,3.52,6.2A28.71,28.71,0,0,1,48.38,246,20.74,20.74,0,0,1,48.12,253.76Z"/><path class="cls-6" d="M38.23,229.89c.85,1.74,1.65,3.5,2.43,5.27s1.52,3.55,2.29,5.33,1.46,3.58,2.15,5.38,1.38,3.61,2,5.45c-.86-1.74-1.65-3.5-2.44-5.27s-1.52-3.56-2.28-5.33-1.46-3.58-2.15-5.38S38.85,231.72,38.23,229.89Z"/><path class="cls-8" d="M43,232.93a20.6,20.6,0,0,0-5.68-5.29c-.09.37-.17.73-.23,1.09a22.85,22.85,0,0,1,3.73,3.92,28.26,28.26,0,0,1,3.52,6.19,28.84,28.84,0,0,1,1.88,6.87,21.58,21.58,0,0,1,0,6.66,18.29,18.29,0,0,0,1.95,1.39,20.74,20.74,0,0,0,.26-7.76,28.71,28.71,0,0,0-1.88-6.87A28.32,28.32,0,0,0,43,232.93Z"/><path class="cls-7" d="M53.31,261.25A20.81,20.81,0,0,1,50.52,254a28.51,28.51,0,0,1-.48-7.11,27.93,27.93,0,0,1,1.29-7A20.71,20.71,0,0,1,55,233a20.37,20.37,0,0,1,2.81,7.24,28.82,28.82,0,0,1-.84,14.12A20.87,20.87,0,0,1,53.31,261.25Z"/><path class="cls-6" d="M54.82,235.45c0,1.94,0,3.87-.11,5.8s-.18,3.86-.27,5.79-.24,3.86-.4,5.79-.34,3.85-.58,5.77c0-1.93,0-3.87.11-5.8s.18-3.86.27-5.79.25-3.86.41-5.78S54.58,237.37,54.82,235.45Z"/><path class="cls-8" d="M57.77,240.26A20.37,20.37,0,0,0,55,233c-.24.29-.46.59-.68.88a22.8,22.8,0,0,1,1.65,5.15,28,28,0,0,1,.46,7.11,28.48,28.48,0,0,1-1.3,7,21.5,21.5,0,0,1-2.93,6,18.31,18.31,0,0,0,1.15,2.1,20.87,20.87,0,0,0,3.62-6.87,28.82,28.82,0,0,0,.84-14.12Z"/><path class="cls-7" d="M53.13,260.76a20.78,20.78,0,0,1-7.62,1.48,29.17,29.17,0,0,1-7.08-.78,28.5,28.5,0,0,1-6.67-2.5,20.54,20.54,0,0,1-6.13-4.78,20.49,20.49,0,0,1,7.63-1.49,28.22,28.22,0,0,1,7.08.79A28.87,28.87,0,0,1,47,256,20.92,20.92,0,0,1,53.13,260.76Z"/><path class="cls-6" d="M28,254.74c1.91.33,3.81.73,5.7,1.13s3.77.86,5.65,1.28,3.76.92,5.62,1.42,3.74,1,5.59,1.58c-1.91-.33-3.8-.73-5.69-1.13s-3.77-.85-5.66-1.28-3.75-.92-5.62-1.42S29.85,255.31,28,254.74Z"/><path class="cls-8" d="M33.26,252.69a20.49,20.49,0,0,0-7.63,1.49c.25.29.5.56.75.82a22.68,22.68,0,0,1,5.37-.72,28.22,28.22,0,0,1,7.08.8,28.63,28.63,0,0,1,6.66,2.51,21.38,21.38,0,0,1,5.37,3.94,17.88,17.88,0,0,0,2.27-.77A20.92,20.92,0,0,0,47,256a28.87,28.87,0,0,0-6.67-2.51A28.22,28.22,0,0,0,33.26,252.69Z"/><path class="cls-7" d="M64.5,273.66A20.63,20.63,0,0,1,60.6,267,28.51,28.51,0,0,1,59,260a27.9,27.9,0,0,1,.17-7.12,20.47,20.47,0,0,1,2.51-7.35,20.63,20.63,0,0,1,3.9,6.71,28,28,0,0,1,1.58,6.95,28.38,28.38,0,0,1-.19,7.12A20.6,20.6,0,0,1,64.5,273.66Z"/><path class="cls-6" d="M61.94,248c.31,1.91.56,3.83.8,5.75s.43,3.84.65,5.76.36,3.85.5,5.78.28,3.85.34,5.79c-.31-1.91-.56-3.83-.8-5.75s-.43-3.84-.64-5.76-.37-3.85-.51-5.78S62,249.89,61.94,248Z"/><path class="cls-8" d="M65.6,252.24a20.63,20.63,0,0,0-3.9-6.71c-.2.32-.37.65-.54,1a22.91,22.91,0,0,1,2.44,4.84,27.86,27.86,0,0,1,1.57,6.94,28.93,28.93,0,0,1-.18,7.13,21.7,21.7,0,0,1-2,6.36,16.65,16.65,0,0,0,1.47,1.89A20.6,20.6,0,0,0,67,266.31a28.38,28.38,0,0,0,.19-7.12A28,28,0,0,0,65.6,252.24Z"/><path class="cls-7" d="M64.25,273.21a20.79,20.79,0,0,1-7.3,2.66,28.76,28.76,0,0,1-14.1-1.08,20.6,20.6,0,0,1-6.8-3.76,20.63,20.63,0,0,1,7.3-2.67,28,28,0,0,1,7.12-.33,29,29,0,0,1,7,1.43A20.93,20.93,0,0,1,64.25,273.21Z"/><path class="cls-6" d="M38.48,271.22c1.94,0,3.87.11,5.8.21s3.86.26,5.79.38,3.85.32,5.77.52,3.85.4,5.77.68c-1.94,0-3.87-.12-5.8-.22s-3.86-.25-5.79-.38-3.85-.32-5.77-.51S40.4,271.49,38.48,271.22Z"/><path class="cls-8" d="M43.35,268.36a20.63,20.63,0,0,0-7.3,2.67c.29.25.58.48.87.7a22.89,22.89,0,0,1,5.19-1.56,28.9,28.9,0,0,1,14.09,1.11,21.4,21.4,0,0,1,5.92,3.05,19,19,0,0,0,2.13-1.12,20.93,20.93,0,0,0-6.8-3.75,29,29,0,0,0-7-1.43A28,28,0,0,0,43.35,268.36Z"/><path class="cls-7" d="M77.88,285.29a20.58,20.58,0,0,1-4.91-6,28.12,28.12,0,0,1-2.67-6.6,28.56,28.56,0,0,1-1-7.06A20.73,20.73,0,0,1,70.64,258a20.67,20.67,0,0,1,4.93,6,28,28,0,0,1,2.65,6.61,28.42,28.42,0,0,1,1,7.06A20.83,20.83,0,0,1,77.88,285.29Z"/><path class="cls-6" d="M71.26,260.32c.62,1.83,1.17,3.69,1.71,5.54s1,3.73,1.55,5.59,1,3.74,1.42,5.62.89,3.76,1.26,5.66c-.61-1.83-1.16-3.69-1.71-5.54s-1-3.73-1.55-5.59-1-3.74-1.42-5.62S71.64,262.22,71.26,260.32Z"/><path class="cls-8" d="M75.57,264a20.67,20.67,0,0,0-4.93-6c-.14.35-.26.7-.37,1.05a22.9,22.9,0,0,1,3.17,4.38A28.16,28.16,0,0,1,76.1,270a29,29,0,0,1,1,7.06,21.68,21.68,0,0,1-.93,6.6,18.39,18.39,0,0,0,1.75,1.63,20.83,20.83,0,0,0,1.3-7.65,28.42,28.42,0,0,0-1-7.06A28,28,0,0,0,75.57,264Z"/><path class="cls-7" d="M77.56,284.89a20.58,20.58,0,0,1-6.78,3.78,28.74,28.74,0,0,1-14.09,1.18,20.56,20.56,0,0,1-7.31-2.63,20.85,20.85,0,0,1,6.78-3.8,28.48,28.48,0,0,1,7-1.45,28.91,28.91,0,0,1,7.12.3A20.92,20.92,0,0,1,77.56,284.89Z"/><path class="cls-6" d="M51.81,287c1.92-.28,3.84-.5,5.76-.71s3.85-.36,5.77-.55,3.86-.29,5.79-.41,3.86-.21,5.8-.24c-1.92.28-3.84.5-5.76.71s-3.85.36-5.78.54-3.85.3-5.78.41S53.75,287,51.81,287Z"/><path class="cls-8" d="M56.16,283.42a20.85,20.85,0,0,0-6.78,3.8c.33.2.65.38,1,.55a23.18,23.18,0,0,1,4.87-2.36,28.94,28.94,0,0,1,14.1-1.15,22.07,22.07,0,0,1,6.33,2.06,17.25,17.25,0,0,0,1.91-1.43,20.92,20.92,0,0,0-7.31-2.62,28.91,28.91,0,0,0-7.12-.3A28.48,28.48,0,0,0,56.16,283.42Z"/><path class="cls-7" d="M94.59,294.93a20.77,20.77,0,0,1-6-4.95,29,29,0,0,1-3.89-6,28,28,0,0,1-2.29-6.75,20.4,20.4,0,0,1-.19-7.76,20.52,20.52,0,0,1,6,4.95,27.91,27.91,0,0,1,3.87,6,28.5,28.5,0,0,1,2.29,6.74A20.82,20.82,0,0,1,94.59,294.93Z"/><path class="cls-6" d="M83.3,271.69c1,1.68,1.86,3.4,2.74,5.11s1.73,3.46,2.6,5.19,1.67,3.49,2.47,5.25,1.59,3.52,2.32,5.31c-1-1.68-1.85-3.39-2.74-5.11S89,284,88.1,282.25s-1.67-3.48-2.47-5.24S84,273.48,83.3,271.69Z"/><path class="cls-8" d="M88.23,274.45a20.52,20.52,0,0,0-6-4.95c-.07.37-.12.74-.17,1.1a22.64,22.64,0,0,1,4,3.69A28.76,28.76,0,0,1,92.2,287a21.9,21.9,0,0,1,.36,6.64,16.7,16.7,0,0,0,2,1.27,20.82,20.82,0,0,0-.2-7.76,28.5,28.5,0,0,0-2.29-6.74A27.91,27.91,0,0,0,88.23,274.45Z"/><path class="cls-7" d="M94.2,294.6a20.61,20.61,0,0,1-5.93,5,28.66,28.66,0,0,1-6.56,2.78,28,28,0,0,1-7,1.08A20.57,20.57,0,0,1,67,302.29a20.66,20.66,0,0,1,5.92-5,28.93,28.93,0,0,1,13.61-3.83A20.82,20.82,0,0,1,94.2,294.6Z"/><path class="cls-6" d="M69.33,301.63c1.83-.65,3.67-1.23,5.52-1.8s3.71-1.1,5.56-1.65,3.72-1,5.6-1.51,3.75-.95,5.64-1.35c-1.83.65-3.67,1.23-5.52,1.8s-3.7,1.1-5.56,1.64-3.72,1-5.6,1.51S71.23,301.22,69.33,301.63Z"/><path class="cls-8" d="M72.91,297.26a20.66,20.66,0,0,0-5.92,5c.35.13.7.25,1.05.35a23.11,23.11,0,0,1,4.33-3.25,28.48,28.48,0,0,1,6.57-2.76,28.87,28.87,0,0,1,7-1.07,21.54,21.54,0,0,1,6.61.82,18.7,18.7,0,0,0,1.61-1.78,20.82,20.82,0,0,0-7.68-1.17,28.93,28.93,0,0,0-13.61,3.83Z"/><path class="cls-7" d="M110.35,300.82a20.71,20.71,0,0,1-6.34-4.49,29.18,29.18,0,0,1-4.32-5.66,28.67,28.67,0,0,1-2.8-6.55,20.53,20.53,0,0,1-.76-7.74,20.71,20.71,0,0,1,6.34,4.49,28.5,28.5,0,0,1,4.31,5.67,29,29,0,0,1,2.79,6.56A20.86,20.86,0,0,1,110.35,300.82Z"/><path class="cls-6" d="M97.35,278.49c1.08,1.61,2.1,3.25,3.12,4.9s2,3.31,3,5,1.93,3.35,2.86,5.05,1.85,3.39,2.71,5.13c-1.08-1.61-2.1-3.25-3.11-4.9s-2-3.32-3-5-1.92-3.36-2.85-5.05S98.22,280.22,97.35,278.49Z"/><path class="cls-8" d="M102.47,280.87a20.71,20.71,0,0,0-6.34-4.49c0,.38-.07.75-.08,1.12a23.09,23.09,0,0,1,4.22,3.38,28.5,28.5,0,0,1,4.31,5.67,29,29,0,0,1,2.79,6.56,21.74,21.74,0,0,1,.86,6.6,16.23,16.23,0,0,0,2.12,1.11,20.86,20.86,0,0,0-.78-7.72,29,29,0,0,0-2.79-6.56A28.5,28.5,0,0,0,102.47,280.87Z"/><path class="cls-7" d="M109.93,300.52a20.51,20.51,0,0,1-5.54,5.44,28.84,28.84,0,0,1-13.27,4.87,20.75,20.75,0,0,1-7.75-.6,20.57,20.57,0,0,1,5.53-5.46,28.38,28.38,0,0,1,6.34-3.25,28.8,28.8,0,0,1,7-1.59A20.66,20.66,0,0,1,109.93,300.52Z"/><path class="cls-6" d="M85.66,309.39c1.77-.78,3.57-1.5,5.37-2.21s3.61-1.37,5.42-2.05,3.64-1.31,5.47-1.93,3.67-1.23,5.52-1.77c-1.77.78-3.56,1.5-5.36,2.21s-3.62,1.37-5.42,2.05S93,307,91.19,307.62,87.52,308.84,85.66,309.39Z"/><path class="cls-8" d="M88.9,304.77a20.57,20.57,0,0,0-5.53,5.46l1.08.27a22.45,22.45,0,0,1,4.08-3.56,27.56,27.56,0,0,1,6.34-3.25,28.63,28.63,0,0,1,6.94-1.6,21.94,21.94,0,0,1,6.65.32,18.17,18.17,0,0,0,1.47-1.89,20.66,20.66,0,0,0-7.74-.59,28.8,28.8,0,0,0-7,1.59A28.38,28.38,0,0,0,88.9,304.77Z"/><path class="cls-7" d="M130.51,303.43a20.66,20.66,0,0,1-7.15-3,28.74,28.74,0,0,1-5.43-4.6A28.14,28.14,0,0,1,113.8,290a20.44,20.44,0,0,1-2.41-7.38,20.69,20.69,0,0,1,7.16,3,28.93,28.93,0,0,1,9.55,10.43A20.76,20.76,0,0,1,130.51,303.43Z"/><path class="cls-6" d="M113,284.39c1.4,1.34,2.75,2.73,4.09,4.12s2.65,2.82,4,4.22,2.6,2.86,3.87,4.32,2.54,2.92,3.75,4.43c-1.4-1.34-2.75-2.72-4.09-4.11s-2.65-2.82-4-4.23-2.6-2.86-3.87-4.32S114.25,285.9,113,284.39Z"/><path class="cls-8" d="M118.55,285.62a20.69,20.69,0,0,0-7.16-3c0,.37.1.74.16,1.1a22.84,22.84,0,0,1,4.85,2.4,28.17,28.17,0,0,1,5.43,4.62,28.76,28.76,0,0,1,4.12,5.81,21.55,21.55,0,0,1,2.25,6.27,19,19,0,0,0,2.31.63,20.76,20.76,0,0,0-2.41-7.38,28.93,28.93,0,0,0-9.55-10.43Z"/><path class="cls-7" d="M130,303.22a20.74,20.74,0,0,1-4.24,6.5,28.51,28.51,0,0,1-5.5,4.54,27.73,27.73,0,0,1-6.43,3.05,20.5,20.5,0,0,1-7.7,1.07,20.62,20.62,0,0,1,4.24-6.51,28.16,28.16,0,0,1,5.5-4.53,28.82,28.82,0,0,1,6.44-3A20.83,20.83,0,0,1,130,303.22Z"/><path class="cls-6" d="M108.23,317.08c1.56-1.15,3.16-2.23,4.77-3.31s3.24-2.11,4.86-3.17,3.27-2.05,4.93-3.05,3.32-2,5-2.91c-1.57,1.14-3.17,2.23-4.77,3.31s-3.24,2.11-4.86,3.16-3.28,2.06-4.93,3.05S109.93,316.14,108.23,317.08Z"/><path class="cls-8" d="M110.41,311.87a20.62,20.62,0,0,0-4.24,6.51c.38,0,.75,0,1.12,0a23,23,0,0,1,3.21-4.35,28.8,28.8,0,0,1,11.94-7.57,21.62,21.62,0,0,1,6.57-1.12,18.81,18.81,0,0,0,1-2.16,20.83,20.83,0,0,0-7.69,1.08,28.82,28.82,0,0,0-6.44,3A28.16,28.16,0,0,0,110.41,311.87Z"/><path class="cls-7" d="M361,309.11a70.27,70.27,0,0,1-6.4,5.67,117.65,117.65,0,0,1-17.72,11.76,106.73,106.73,0,0,1-27.1,10.33,93.15,93.15,0,0,1-34.54,1.36,107.18,107.18,0,0,1-39.88-15.09c-1.78-1.08-3.52-2.22-5.25-3.38-.53-.36.11-1.15.64-.78,12.23,8.28,25.85,14.63,40.39,17.51a92,92,0,0,0,34.89.14A103.83,103.83,0,0,0,333.74,327a115.92,115.92,0,0,0,18.71-11.87c2.67-2.07,5.24-4.43,7.63-6.59a.94.94,0,0,0,.1-.1c.45-.47,1.24.16.79.63Z"/><path class="cls-7" d="M352.72,316.23a20.82,20.82,0,0,0,7.18-3,28.83,28.83,0,0,0,5.49-4.55,28.09,28.09,0,0,0,4.19-5.75,20.57,20.57,0,0,0,2.49-7.36,20.6,20.6,0,0,0-7.19,2.95,27.75,27.75,0,0,0-5.47,4.55,28.13,28.13,0,0,0-4.19,5.77A20.71,20.71,0,0,0,352.72,316.23Z"/><path class="cls-6" d="M370.4,297.39c-1.41,1.32-2.78,2.69-4.13,4.07s-2.68,2.78-4,4.18-2.63,2.83-3.92,4.27-2.57,2.89-3.8,4.39c1.42-1.32,2.78-2.69,4.14-4.07s2.68-2.79,4-4.18,2.63-2.83,3.91-4.28S369.17,298.88,370.4,297.39Z"/><path class="cls-8" d="M364.88,298.56a20.6,20.6,0,0,1,7.19-2.95c-.05.38-.11.74-.17,1.1a22.73,22.73,0,0,0-4.88,2.35,28.1,28.1,0,0,0-5.47,4.55,28.5,28.5,0,0,0-4.19,5.77,21.42,21.42,0,0,0-2.32,6.24,19.14,19.14,0,0,1-2.32.61,20.71,20.71,0,0,1,2.5-7.35,28.13,28.13,0,0,1,4.19-5.77A27.75,27.75,0,0,1,364.88,298.56Z"/><path class="cls-7" d="M345.23,321.4a20.93,20.93,0,0,0,5.17-5.79,29.1,29.1,0,0,0,3-6.49,28.09,28.09,0,0,0,1.27-7,20.61,20.61,0,0,0-1-7.7,20.47,20.47,0,0,0-5.18,5.78,28,28,0,0,0-2.94,6.49,28.71,28.71,0,0,0-1.26,7A20.59,20.59,0,0,0,345.23,321.4Z"/><path class="cls-6" d="M352.92,296.73c-.7,1.81-1.33,3.64-1.95,5.47s-1.19,3.68-1.79,5.51-1.13,3.7-1.66,5.56-1,3.72-1.51,5.6c.7-1.8,1.33-3.63,1.95-5.46s1.19-3.68,1.79-5.52,1.13-3.69,1.66-5.55S352.46,298.61,352.92,296.73Z"/><path class="cls-8" d="M348.46,300.19a20.47,20.47,0,0,1,5.18-5.78c.12.36.23.71.33,1.06a23.06,23.06,0,0,0-3.37,4.24,28.69,28.69,0,0,0-4.19,13.5,21.66,21.66,0,0,0,.63,6.63,17.53,17.53,0,0,1-1.81,1.56,20.59,20.59,0,0,1-1-7.7,28.71,28.71,0,0,1,1.26-7A28,28,0,0,1,348.46,300.19Z"/><path class="cls-7" d="M345.56,321a21,21,0,0,0,6.61,4.08,29.36,29.36,0,0,0,6.91,1.76,28.26,28.26,0,0,0,7.12,0,20.52,20.52,0,0,0,7.42-2.32,20.8,20.8,0,0,0-6.61-4.08,28,28,0,0,0-6.91-1.75,28.27,28.27,0,0,0-7.12,0A20.8,20.8,0,0,0,345.56,321Z"/><path class="cls-6" d="M371.2,324.25c-1.9-.37-3.81-.67-5.73-1s-3.83-.53-5.74-.79-3.84-.47-5.76-.66-3.85-.38-5.78-.5c1.9.37,3.81.67,5.72,1s3.83.53,5.74.8,3.84.46,5.77.65S369.26,324.13,371.2,324.25Z"/><path class="cls-8" d="M367,320.47a20.8,20.8,0,0,1,6.61,4.08c-.34.19-.67.36-1,.51a22.53,22.53,0,0,0-4.76-2.56,28.3,28.3,0,0,0-6.91-1.76,28.75,28.75,0,0,0-7.12,0,21.26,21.26,0,0,0-6.41,1.79,18.23,18.23,0,0,1-1.86-1.52,20.8,20.8,0,0,1,7.42-2.3,28.27,28.27,0,0,1,7.12,0A28,28,0,0,1,367,320.47Z"/><path class="cls-7" d="M330.38,329.07a20.65,20.65,0,0,0,6-4.91,28.94,28.94,0,0,0,6.29-12.66,20.81,20.81,0,0,0,.25-7.77,20.62,20.62,0,0,0-6,4.91,28.87,28.87,0,0,0-6.27,12.67A20.76,20.76,0,0,0,330.38,329.07Z"/><path class="cls-6" d="M341.84,305.92c-1,1.67-1.88,3.38-2.78,5.09s-1.75,3.44-2.63,5.16-1.7,3.48-2.51,5.23-1.62,3.51-2.37,5.3c1-1.68,1.88-3.38,2.78-5.09s1.76-3.45,2.64-5.17,1.7-3.47,2.51-5.23S341.1,307.7,341.84,305.92Z"/><path class="cls-8" d="M336.9,308.64a20.62,20.62,0,0,1,6-4.91c.06.38.11.74.15,1.11a22.7,22.7,0,0,0-4,3.66,28.28,28.28,0,0,0-3.92,5.94,28.83,28.83,0,0,0-2.34,6.73,21.58,21.58,0,0,0-.41,6.65,19.07,19.07,0,0,1-2,1.25,20.76,20.76,0,0,1,.25-7.76,28.87,28.87,0,0,1,6.27-12.67Z"/><path class="cls-7" d="M330.77,328.74a20.88,20.88,0,0,0,5.89,5.06,28.77,28.77,0,0,0,6.54,2.83,28.29,28.29,0,0,0,7,1.13,20.39,20.39,0,0,0,7.69-1.12,20.63,20.63,0,0,0-5.89-5.07,29,29,0,0,0-13.58-3.94A20.7,20.7,0,0,0,330.77,328.74Z"/><path class="cls-6" d="M355.58,336c-1.82-.66-3.66-1.25-5.5-1.84s-3.7-1.12-5.55-1.69-3.72-1.06-5.59-1.55-3.74-1-5.63-1.4c1.82.66,3.66,1.26,5.5,1.84s3.7,1.13,5.55,1.69,3.72,1.06,5.59,1.55S353.69,335.54,355.58,336Z"/><path class="cls-8" d="M352,331.57a20.63,20.63,0,0,1,5.89,5.07c-.36.13-.71.25-1.06.35a22.87,22.87,0,0,0-4.31-3.28,27.69,27.69,0,0,0-6.54-2.82,28.29,28.29,0,0,0-7-1.12,21.52,21.52,0,0,0-6.62.76,17.45,17.45,0,0,1-1.59-1.79,20.7,20.7,0,0,1,7.68-1.11A29,29,0,0,1,352,331.57Z"/><path class="cls-7" d="M313.75,335.23a21,21,0,0,0,6.72-3.89,28.79,28.79,0,0,0,4.83-5.24,28.38,28.38,0,0,0,3.39-6.26,20.41,20.41,0,0,0,1.48-7.63,20.74,20.74,0,0,0-6.73,3.88,28.1,28.1,0,0,0-4.82,5.25,28.42,28.42,0,0,0-3.38,6.27A20.56,20.56,0,0,0,313.75,335.23Z"/><path class="cls-6" d="M328.76,314.19c-1.23,1.51-2.4,3-3.56,4.59s-2.28,3.12-3.43,4.68-2.22,3.16-3.31,4.76-2.16,3.21-3.18,4.85c1.23-1.5,2.4-3,3.56-4.58s2.28-3.12,3.43-4.68,2.22-3.16,3.31-4.76S327.73,315.84,328.76,314.19Z"/><path class="cls-8" d="M323.44,316.09a20.74,20.74,0,0,1,6.73-3.88c0,.38,0,.75,0,1.12a22.81,22.81,0,0,0-4.52,3,28.1,28.1,0,0,0-4.82,5.25,28.42,28.42,0,0,0-3.38,6.27,21.5,21.5,0,0,0-1.47,6.49,18.55,18.55,0,0,1-2.21.92,20.56,20.56,0,0,1,1.49-7.62,28.77,28.77,0,0,1,8.2-11.52Z"/><path class="cls-7" d="M314.19,335a20.59,20.59,0,0,0,5,5.94A28.76,28.76,0,0,0,332,347a20.54,20.54,0,0,0,7.77.12,20.64,20.64,0,0,0-5-5.95A28.8,28.8,0,0,0,322,335.09,20.9,20.9,0,0,0,314.19,335Z"/><path class="cls-6" d="M337.53,346c-1.69-.94-3.41-1.82-5.14-2.69s-3.47-1.7-5.21-2.55-3.5-1.64-5.26-2.43-3.54-1.56-5.34-2.27c1.69.94,3.41,1.82,5.14,2.69s3.47,1.7,5.21,2.55,3.5,1.64,5.26,2.43S335.73,345.33,337.53,346Z"/><path class="cls-8" d="M334.73,341.15a20.45,20.45,0,0,1,5,5.94c-.37.07-.74.13-1.1.17a22.54,22.54,0,0,0-3.73-3.92,27.92,27.92,0,0,0-6-3.83,28.68,28.68,0,0,0-6.76-2.23,21.72,21.72,0,0,0-6.65-.3,16.64,16.64,0,0,1-1.29-2,20.9,20.9,0,0,1,7.76.13,28.61,28.61,0,0,1,6.77,2.23A28.16,28.16,0,0,1,334.73,341.15Z"/><path class="cls-7" d="M294.71,338.35a20.8,20.8,0,0,0,7.35-2.52,28.82,28.82,0,0,0,5.74-4.22,28.5,28.5,0,0,0,4.53-5.5,20.62,20.62,0,0,0,2.92-7.2,20.46,20.46,0,0,0-7.35,2.52,28.16,28.16,0,0,0-5.74,4.22,28.82,28.82,0,0,0-4.52,5.51A20.93,20.93,0,0,0,294.71,338.35Z"/><path class="cls-6" d="M313.48,320.59c-1.49,1.24-2.94,2.52-4.37,3.82s-2.84,2.62-4.26,3.93-2.79,2.67-4.16,4-2.74,2.73-4.05,4.15c1.48-1.23,2.93-2.52,4.37-3.81s2.83-2.63,4.25-3.94,2.8-2.67,4.16-4S312.16,322,313.48,320.59Z"/><path class="cls-8" d="M307.9,321.43a20.46,20.46,0,0,1,7.35-2.52c-.07.38-.15.74-.24,1.09a22.69,22.69,0,0,0-5,2.06,28.09,28.09,0,0,0-5.73,4.22,28.56,28.56,0,0,0-4.53,5.51,21.67,21.67,0,0,0-2.68,6.09,18.09,18.09,0,0,1-2.35.47,20.93,20.93,0,0,1,2.93-7.19,28.82,28.82,0,0,1,4.52-5.51A28.16,28.16,0,0,1,307.9,321.43Z"/><path class="cls-7" d="M295.2,338.18A20.57,20.57,0,0,0,299,345a29.24,29.24,0,0,0,5.16,4.92,28.78,28.78,0,0,0,6.21,3.49,20.6,20.6,0,0,0,7.6,1.61,20.5,20.5,0,0,0-3.77-6.8,28.09,28.09,0,0,0-5.16-4.9,28.85,28.85,0,0,0-6.22-3.49A20.75,20.75,0,0,0,295.2,338.18Z"/><path class="cls-6" d="M316,353.53c-1.48-1.25-3-2.45-4.52-3.63s-3.09-2.34-4.63-3.5-3.12-2.28-4.7-3.39-3.17-2.21-4.8-3.26c1.48,1.25,3,2.44,4.52,3.63s3.08,2.33,4.62,3.5,3.13,2.28,4.71,3.39S314.35,352.48,316,353.53Z"/><path class="cls-8" d="M314.17,348.18a20.5,20.5,0,0,1,3.77,6.8l-1.11,0a22.29,22.29,0,0,0-2.91-4.57,27.83,27.83,0,0,0-5.16-4.91,28.17,28.17,0,0,0-6.22-3.48,21.54,21.54,0,0,0-6.47-1.57,18.82,18.82,0,0,1-.87-2.23,20.75,20.75,0,0,1,7.59,1.61,28.85,28.85,0,0,1,6.22,3.49A28.09,28.09,0,0,1,314.17,348.18Z"/><path class="cls-7" d="M277.89,338.3a20.75,20.75,0,0,0,7.51-2,28.43,28.43,0,0,0,6-3.77,27.65,27.65,0,0,0,4.93-5.14,20.49,20.49,0,0,0,3.45-7,20.6,20.6,0,0,0-7.52,2,28.28,28.28,0,0,0-6,3.79,28.7,28.7,0,0,0-4.93,5.15A20.85,20.85,0,0,0,277.89,338.3Z"/><path class="cls-6" d="M297.93,322c-1.58,1.12-3.11,2.3-4.64,3.48s-3,2.41-4.54,3.61-3,2.45-4.46,3.71-2.93,2.52-4.35,3.84c1.58-1.12,3.12-2.3,4.65-3.48s3-2.4,4.54-3.6,3-2.46,4.45-3.72S296.51,323.31,297.93,322Z"/><path class="cls-8" d="M292.3,322.41a20.6,20.6,0,0,1,7.52-2c-.1.37-.2.73-.32,1.07a22.62,22.62,0,0,0-5.14,1.68,28.07,28.07,0,0,0-6,3.78,29,29,0,0,0-4.92,5.15,21.5,21.5,0,0,0-3.13,5.88,17.6,17.6,0,0,1-2.38.29,20.85,20.85,0,0,1,3.45-6.95,28.7,28.7,0,0,1,4.93-5.15A28.28,28.28,0,0,1,292.3,322.41Z"/><path class="cls-7" d="M278.39,338.16a20.49,20.49,0,0,0,3.26,7,28.64,28.64,0,0,0,10.7,9.24,20.56,20.56,0,0,0,7.46,2.17,20.44,20.44,0,0,0-3.25-7.06,28.41,28.41,0,0,0-4.79-5.28,28.85,28.85,0,0,0-5.93-3.94A20.83,20.83,0,0,0,278.39,338.16Z"/><path class="cls-6" d="M298,355c-1.38-1.36-2.81-2.66-4.24-4s-2.9-2.56-4.35-3.84-2.94-2.51-4.43-3.73-3-2.44-4.55-3.61c1.38,1.36,2.81,2.66,4.24,4s2.9,2.56,4.35,3.84,2.94,2.51,4.44,3.73S296.42,353.86,298,355Z"/><path class="cls-8" d="M296.56,349.56a20.44,20.44,0,0,1,3.25,7.06c-.38,0-.75-.07-1.11-.13a23,23,0,0,0-2.55-4.77,28.85,28.85,0,0,0-10.72-9.22,21.85,21.85,0,0,0-6.34-2.05,18.09,18.09,0,0,1-.7-2.29,20.83,20.83,0,0,1,7.45,2.18,28.85,28.85,0,0,1,5.93,3.94A28.41,28.41,0,0,1,296.56,349.56Z"/><path class="cls-7" d="M258.1,333.62a20.89,20.89,0,0,0,7.76-.31,28.64,28.64,0,0,0,6.71-2.4,28.13,28.13,0,0,0,5.92-4,20.64,20.64,0,0,0,4.86-6.06,20.53,20.53,0,0,0-7.77.31A28.71,28.71,0,0,0,263,327.57,20.75,20.75,0,0,0,258.1,333.62Z"/><path class="cls-6" d="M281.17,322c-1.78.76-3.53,1.58-5.28,2.4s-3.47,1.71-5.21,2.55-3.44,1.77-5.14,2.68-3.4,1.84-5.07,2.82c1.78-.76,3.53-1.58,5.28-2.41s3.47-1.7,5.2-2.55,3.45-1.76,5.15-2.67S279.5,323,281.17,322Z"/><path class="cls-8" d="M275.58,321.19a20.53,20.53,0,0,1,7.77-.31c-.18.34-.36.66-.54,1a22.88,22.88,0,0,0-5.39.53,29,29,0,0,0-12.61,6.38,21.64,21.64,0,0,0-4.32,5.07,16.86,16.86,0,0,1-2.39-.22,20.75,20.75,0,0,1,4.87-6.05,28.71,28.71,0,0,1,12.61-6.38Z"/><path class="cls-7" d="M258.62,333.59a20.7,20.7,0,0,0,1.67,7.59,28.92,28.92,0,0,0,3.54,6.18,28.22,28.22,0,0,0,4.95,5.13,20.51,20.51,0,0,0,6.82,3.71,20.44,20.44,0,0,0-1.67-7.58,27.87,27.87,0,0,0-3.54-6.18,28.24,28.24,0,0,0-5-5.12A20.87,20.87,0,0,0,258.62,333.59Z"/><path class="cls-6" d="M274.14,354.25c-1.07-1.62-2.18-3.2-3.3-4.77s-2.29-3.12-3.43-4.68-2.34-3.08-3.53-4.59-2.41-3-3.67-4.5c1.06,1.62,2.17,3.2,3.29,4.78s2.29,3.11,3.43,4.67,2.34,3.08,3.54,4.6S272.88,352.78,274.14,354.25Z"/><path class="cls-8" d="M273.93,348.62a20.44,20.44,0,0,1,1.67,7.58l-1.06-.35a23.19,23.19,0,0,0-1.47-5.21,28.9,28.9,0,0,0-8.5-11.3,21.92,21.92,0,0,0-5.75-3.36,18,18,0,0,1-.2-2.39,20.87,20.87,0,0,1,6.81,3.73,28.24,28.24,0,0,1,5,5.12A27.87,27.87,0,0,1,273.93,348.62Z"/><rect class="cls-7" x="94.66" y="52.81" width="188.06" height="310.08" rx="14.18"/><path class="cls-9" d="M226,64.13c-1.58,5.57-17.69,10-37.34,10s-35.75-4.38-37.34-10h-42.5V331.37H268.54V64.13Z"/><path class="cls-10" d="M247.87,112h-119a3.35,3.35,0,0,0-3.35,3.34v42.06l13.34-7.25h109a3.35,3.35,0,0,0,3.34-3.35V115.29A3.35,3.35,0,0,0,247.87,112Z"/><rect class="cls-11" x="136.32" y="119.87" width="104.15" height="1.11"/><rect class="cls-11" x="136.32" y="131.02" width="104.15" height="1.11"/><rect class="cls-11" x="136.32" y="142.17" width="74.01" height="1.11"/><circle class="cls-10" cx="137.19" cy="95.76" r="11.35"/><g class="cls-12"><circle class="cls-11" cx="137.19" cy="93.99" r="3.1"/><path class="cls-11" d="M137.19,98.25a6.3,6.3,0,1,0,6.3,6.29A6.3,6.3,0,0,0,137.19,98.25Z"/></g><path class="cls-10" d="M128.92,190h119a3.35,3.35,0,0,1,3.34,3.34V235.4l-13.33-7.26h-109a3.36,3.36,0,0,1-3.35-3.35V193.33A3.35,3.35,0,0,1,128.92,190Z"/><rect class="cls-11" x="136.32" y="197.91" width="104.15" height="1.11"/><rect class="cls-11" x="136.32" y="209.06" width="104.15" height="1.11"/><rect class="cls-11" x="166.46" y="220.21" width="74.01" height="1.11"/><circle class="cls-10" cx="240.47" cy="172.97" r="11.35"/><g class="cls-13"><path class="cls-11" d="M240.47,174.3a3.11,3.11,0,1,0-3.11-3.1A3.1,3.1,0,0,0,240.47,174.3Z"/><path class="cls-11" d="M240.47,175.45a6.3,6.3,0,1,0,6.29,6.3A6.3,6.3,0,0,0,240.47,175.45Z"/></g><path class="cls-10" d="M247.87,270.26h-119a3.36,3.36,0,0,0-3.35,3.35v42.06l13.34-7.26h109a3.35,3.35,0,0,0,3.34-3.34V273.61A3.35,3.35,0,0,0,247.87,270.26Z"/><rect class="cls-11" x="136.32" y="278.18" width="104.15" height="1.11"/><rect class="cls-11" x="136.32" y="289.33" width="104.15" height="1.11"/><rect class="cls-11" x="136.32" y="300.48" width="74.01" height="1.11"/><circle class="cls-10" cx="137.19" cy="252.58" r="11.35"/><g class="cls-14"><path class="cls-11" d="M137.19,253.91a3.1,3.1,0,1,0-3.11-3.1A3.1,3.1,0,0,0,137.19,253.91Z"/><path class="cls-11" d="M137.19,255.07a6.3,6.3,0,1,0,6.3,6.29A6.3,6.3,0,0,0,137.19,255.07Z"/></g><polygon class="cls-7" points="239.72 172.39 224.7 157.36 188.69 193.36 152.69 157.36 137.67 172.39 173.67 208.39 137.67 244.39 152.69 259.42 188.69 223.41 224.7 259.42 239.72 244.39 203.72 208.39 239.72 172.39"/><rect class="cls-15" x="229.12" y="34.77" width="132.6" height="99.93"/><rect class="cls-16" x="236.88" y="41.07" width="117.09" height="15.96"/><polygon class="cls-15" points="350.15 44.66 348.38 42.88 344.13 47.13 339.89 42.88 338.12 44.66 342.36 48.9 338.12 53.14 339.89 54.91 344.13 50.67 348.38 54.91 350.15 53.14 345.9 48.9 350.15 44.66"/><path class="cls-7" d="M295,116.39H295a78.21,78.21,0,0,1-25-4,73.06,73.06,0,0,1-12.48-5.54,67.85,67.85,0,0,1-6.28-4A51.45,51.45,0,0,1,245,97.6l-1.42-1.38L245,94.84a52.48,52.48,0,0,1,6.33-5.26,70.92,70.92,0,0,1,6.22-4A73.38,73.38,0,0,1,270,80.08a78.09,78.09,0,0,1,24.93-4H295a77,77,0,0,1,24.89,4,72.21,72.21,0,0,1,12.5,5.54,73.85,73.85,0,0,1,6.28,4A50.69,50.69,0,0,1,345,94.84l1.41,1.38L345,97.59a49.93,49.93,0,0,1-6.32,5.29,70.92,70.92,0,0,1-6.23,4,72,72,0,0,1-12.52,5.56A77,77,0,0,1,295,116.39Z"/><path class="cls-17" d="M304.15,98a11,11,0,0,1-11-11,10.82,10.82,0,0,1,.87-4.27,13.49,13.49,0,1,0,14.39,14.39A11,11,0,0,1,304.15,98Z"/><rect class="cls-3" x="261.46" y="94.66" width="67.02" height="3.11" transform="translate(18.36 236.76) rotate(-45)"/><path class="cls-17" d="M106.48,155.19a45.7,45.7,0,1,0,45.7,45.69A45.75,45.75,0,0,0,106.48,155.19Z"/><path class="cls-18" d="M106.48,169.29a31.6,31.6,0,1,0,31.6,31.59A31.62,31.62,0,0,0,106.48,169.29Zm0,6a25.46,25.46,0,0,1,15.89,5.54l-36,36a25.61,25.61,0,0,1,20.09-41.52Zm0,51.27A25.46,25.46,0,0,1,90.6,221l36-36a25.61,25.61,0,0,1-20.1,41.52Z"/><path class="cls-4" d="M99.17,112H94.8c-.1-.46-.21-.91-.35-1.36l3.78-2.17A4.07,4.07,0,0,0,99.74,103l-.46-.8a4.07,4.07,0,0,0-5.54-1.51l-3.8,2.18c-.37-.4-.75-.77-1.14-1.14L91,97.88a4.07,4.07,0,0,0-1.5-5.54l-.8-.46a4.07,4.07,0,0,0-5.54,1.5L81,97.17c-.45-.14-.91-.25-1.37-.36V92.44a4.08,4.08,0,0,0-4.06-4.06h-.92a4.07,4.07,0,0,0-4.06,4.06v4.37c-.46.11-.92.22-1.37.36L67,93.38a4.07,4.07,0,0,0-5.54-1.5l-.8.46a4.07,4.07,0,0,0-1.51,5.54l2.18,3.8c-.39.37-.77.74-1.14,1.14l-3.8-2.18a4.07,4.07,0,0,0-5.54,1.51l-.46.8a4.07,4.07,0,0,0,1.51,5.54l3.78,2.17c-.14.45-.25.9-.35,1.36H51a4.08,4.08,0,0,0-4.06,4.07V117A4.08,4.08,0,0,0,51,121.07h4.38c.1.46.21.92.35,1.37l-3.78,2.16a4.08,4.08,0,0,0-1.51,5.55l.46.8a4.07,4.07,0,0,0,5.54,1.5l3.8-2.17c.37.39.75.77,1.14,1.13l-2.18,3.8a4.08,4.08,0,0,0,1.51,5.55l.8.46A4.07,4.07,0,0,0,67,139.71l2.17-3.78c.45.14.91.25,1.37.35v4.37a4.06,4.06,0,0,0,4.06,4.06h.92a4.07,4.07,0,0,0,4.06-4.06v-4.37c.46-.1.92-.21,1.37-.35l2.17,3.78a4.07,4.07,0,0,0,5.54,1.51l.8-.46a4.08,4.08,0,0,0,1.5-5.55l-2.17-3.8c.39-.36.77-.74,1.14-1.13l3.8,2.17a4.07,4.07,0,0,0,5.54-1.5l.46-.8a4.08,4.08,0,0,0-1.51-5.55l-3.78-2.16c.14-.45.25-.91.35-1.37h4.37a4.08,4.08,0,0,0,4.07-4.06v-.92A4.08,4.08,0,0,0,99.17,112Zm-24.1,18.47A13.95,13.95,0,1,1,89,116.55,13.95,13.95,0,0,1,75.07,130.49Z"/><path class="cls-3" d="M66,64.08l-2.89.66c-.14-.29-.28-.58-.44-.85l2.18-2A2.77,2.77,0,0,0,65,58l-.42-.46a2.76,2.76,0,0,0-3.89-.16l-2.19,2c-.3-.21-.6-.4-.92-.59L58.47,56a2.76,2.76,0,0,0-1.83-3.44l-.59-.18a2.76,2.76,0,0,0-3.44,1.82L51.74,57c-.31,0-.63,0-1,0l-.66-2.89A2.76,2.76,0,0,0,46.84,52l-.61.14a2.74,2.74,0,0,0-2.07,3.29l.65,2.89c-.29.14-.57.28-.85.44l-2-2.18a2.77,2.77,0,0,0-3.89-.16l-.46.42a2.77,2.77,0,0,0-.16,3.89l2,2.19c-.21.3-.4.6-.58.92L36,63a2.77,2.77,0,0,0-3.44,1.83l-.18.59a2.76,2.76,0,0,0,1.83,3.44l2.82.87c0,.31,0,.63,0,1l-2.89.66a2.76,2.76,0,0,0-2.08,3.29l.14.61a2.76,2.76,0,0,0,3.3,2.07l2.88-.65c.14.29.28.57.44.85l-2.17,2a2.76,2.76,0,0,0-.17,3.89l.43.46a2.77,2.77,0,0,0,3.89.16L43,82c.3.21.61.4.92.58l-.86,2.84a2.75,2.75,0,0,0,1.82,3.44l.6.18a2.77,2.77,0,0,0,3.44-1.83l.86-2.82c.32,0,.64,0,1,0l.65,2.89a2.77,2.77,0,0,0,3.3,2.08l.6-.14a2.77,2.77,0,0,0,2.08-3.3l-.66-2.88c.29-.14.58-.28.85-.44l2,2.17a2.76,2.76,0,0,0,3.89.17l.46-.43a2.76,2.76,0,0,0,.16-3.89l-2-2.18c.21-.3.4-.61.59-.92l2.83.86a2.76,2.76,0,0,0,3.44-1.82l.18-.6a2.76,2.76,0,0,0-1.82-3.44l-2.83-.86q0-.48,0-1l2.89-.65a2.77,2.77,0,0,0,2.07-3.3l-.14-.6A2.76,2.76,0,0,0,66,64.08ZM52.86,79.9A9.45,9.45,0,1,1,60,68.59,9.44,9.44,0,0,1,52.86,79.9Z"/><path class="cls-3" d="M330.37,138.76l-2.83.64c-.14-.28-.28-.56-.43-.83l2.13-2a2.72,2.72,0,0,0,.16-3.83l-.41-.45a2.72,2.72,0,0,0-3.82-.16l-2.15,2a8.64,8.64,0,0,0-.91-.57l.86-2.79a2.73,2.73,0,0,0-1.8-3.38l-.58-.18a2.71,2.71,0,0,0-3.38,1.8l-.85,2.77c-.31,0-.62,0-.94,0l-.64-2.83a2.72,2.72,0,0,0-3.24-2l-.6.14a2.7,2.7,0,0,0-2,3.23l.64,2.84c-.28.13-.56.27-.84.43l-2-2.14a2.72,2.72,0,0,0-3.82-.16l-.45.42a2.7,2.7,0,0,0-.16,3.82l2,2.14c-.2.3-.39.6-.57.91l-2.79-.85a2.7,2.7,0,0,0-3.37,1.79l-.18.59a2.71,2.71,0,0,0,1.79,3.38l2.78.84c0,.32,0,.63,0,.94l-2.84.65a2.7,2.7,0,0,0-2,3.23l.13.6a2.72,2.72,0,0,0,3.24,2l2.83-.64c.14.28.28.56.43.83l-2.13,2a2.72,2.72,0,0,0-.16,3.83l.41.45a2.72,2.72,0,0,0,3.82.16l2.15-2a9.81,9.81,0,0,0,.91.57l-.86,2.79a2.73,2.73,0,0,0,1.8,3.38l.59.18a2.7,2.7,0,0,0,3.37-1.8l.85-2.77c.31,0,.63,0,.94,0l.64,2.83a2.72,2.72,0,0,0,3.24,2l.6-.14a2.7,2.7,0,0,0,2-3.23l-.65-2.84c.28-.13.57-.27.84-.43l2,2.14a2.72,2.72,0,0,0,3.82.16l.45-.42a2.7,2.7,0,0,0,.16-3.82l-2-2.14c.2-.3.39-.6.57-.91l2.79.85a2.7,2.7,0,0,0,3.37-1.79l.18-.59a2.71,2.71,0,0,0-1.79-3.38l-2.78-.84c0-.32,0-.63,0-.94l2.84-.65a2.71,2.71,0,0,0,2-3.23l-.14-.6A2.72,2.72,0,0,0,330.37,138.76ZM317.45,154.3a9.28,9.28,0,1,1,7-11.11A9.28,9.28,0,0,1,317.45,154.3Z"/><rect class="cls-17" x="190.97" y="362.89" width="135.37" height="7.7"/><polygon class="cls-4" points="313.35 362.89 203.97 362.89 251.25 246.29 266.07 246.29 313.35 362.89"/><g class="cls-19"><rect class="cls-17" x="184.19" y="320.04" width="148.94" height="27.95"/><rect class="cls-17" x="184.19" y="264.48" width="148.94" height="27.95"/></g><path class="cls-8" d="M276.2,288c8.81,26.78,9.61,53.39,3.81,74.89h33.34l-47.28-116.6h-11.3A146.12,146.12,0,0,1,276.2,288Z"/><g class="cls-20"><path class="cls-18" d="M249.2,269.67q-4.6,12.1-9.2,24.2-7.35,19.31-14.69,38.62l-3.39,8.92c-1,2.67,3.27,3.83,4.27,1.18q4.6-12.09,9.2-24.2l14.69-38.61,3.39-8.93c1-2.67-3.27-3.82-4.27-1.18Z"/></g><rect class="cls-17" x="54.87" y="366.09" width="79.07" height="4.5"/><polygon class="cls-4" points="126.35 366.09 62.45 366.09 90.07 297.99 98.73 297.99 126.35 366.09"/><g class="cls-21"><rect class="cls-17" x="50.9" y="341.06" width="87" height="16.32"/><rect class="cls-17" x="50.9" y="308.61" width="87" height="16.32"/></g><path class="cls-8" d="M104.65,322.35c5.14,15.64,5.61,31.18,2.23,43.74h19.47L98.73,298h-6.6A85.2,85.2,0,0,1,104.65,322.35Z"/><g class="cls-20"><path class="cls-18" d="M88.87,311.64,83.5,325.78l-8.58,22.55-2,5.22c-.59,1.56,1.91,2.23,2.5.68l5.37-14.13,8.58-22.56,2-5.21c.59-1.56-1.91-2.23-2.5-.69Z"/></g><polygon class="cls-22" points="313.57 188.07 306.04 188.07 306.04 180.53 303.35 180.53 303.35 188.07 295.81 188.07 295.81 190.75 303.35 190.75 303.35 198.29 306.04 198.29 306.04 190.75 313.57 190.75 313.57 188.07"/><polygon class="cls-22" points="359.5 264.09 352.89 264.09 352.89 257.49 350.55 257.49 350.55 264.09 343.94 264.09 343.94 266.44 350.55 266.44 350.55 273.05 352.89 273.05 352.89 266.44 359.5 266.44 359.5 264.09"/><polygon class="cls-22" points="364.17 209.33 360.4 209.33 360.4 205.56 359.05 205.56 359.05 209.33 355.28 209.33 355.28 210.68 359.05 210.68 359.05 214.45 360.4 214.45 360.4 210.68 364.17 210.68 364.17 209.33"/><polygon class="cls-22" points="207.9 21.5 204.13 21.5 204.13 17.73 202.79 17.73 202.79 21.5 199.02 21.5 199.02 22.84 202.79 22.84 202.79 26.61 204.13 26.61 204.13 22.84 207.9 22.84 207.9 21.5"/><polygon class="cls-22" points="238 7.54 230.46 7.54 230.46 0 227.77 0 227.77 7.54 220.23 7.54 220.23 10.22 227.77 10.22 227.77 17.76 230.46 17.76 230.46 10.22 238 10.22 238 7.54"/><polygon class="cls-22" points="46.48 172.93 39.87 172.93 39.87 166.32 37.52 166.32 37.52 172.93 30.91 172.93 30.91 175.28 37.52 175.28 37.52 181.88 39.87 181.88 39.87 175.28 46.48 175.28 46.48 172.93"/><polygon class="cls-22" points="20.14 114.79 16.37 114.79 16.37 111.02 15.03 111.02 15.03 114.79 11.26 114.79 11.26 116.13 15.03 116.13 15.03 119.9 16.37 119.9 16.37 116.13 20.14 116.13 20.14 114.79"/><polygon class="cls-22" points="15.7 274.04 11.93 274.04 11.93 270.27 10.59 270.27 10.59 274.04 6.82 274.04 6.82 275.38 10.59 275.38 10.59 279.16 11.93 279.16 11.93 275.38 15.7 275.38 15.7 274.04"/><polygon class="cls-22" points="93.7 36.61 87.1 36.61 87.1 30 84.75 30 84.75 36.61 78.14 36.61 78.14 38.96 84.75 38.96 84.75 45.56 87.1 45.56 87.1 38.96 93.7 38.96 93.7 36.61"/><path class="cls-23" d="M168.54,30.31a2.09,2.09,0,1,1-2.08-2.08A2.08,2.08,0,0,1,168.54,30.31Z"/><path class="cls-23" d="M355.28,184a4,4,0,1,1-3.95-4A4,4,0,0,1,355.28,184Z"/><path class="cls-23" d="M4.18,169.29a2.09,2.09,0,1,1-2.09-2.09A2.09,2.09,0,0,1,4.18,169.29Z"/><path class="cls-23" d="M125.75,11.55a4,4,0,1,1-4-4A4,4,0,0,1,125.75,11.55Z"/><path class="cls-23" d="M8.9,65.75a2.09,2.09,0,1,1-2.09-2.09A2.09,2.09,0,0,1,8.9,65.75Z"/><path class="cls-23" d="M19.65,336.83a3.95,3.95,0,1,1-3.95-3.95A4,4,0,0,1,19.65,336.83Z"/><path class="cls-23" d="M302.68,225.56a2.09,2.09,0,1,1-2.09-2.08A2.09,2.09,0,0,1,302.68,225.56Z"/><path class="cls-23" d="M306.78,7.6a2.09,2.09,0,1,1-2.09-2.09A2.08,2.08,0,0,1,306.78,7.6Z"/><path class="cls-23" d="M32,212.69a4,4,0,1,1-4-3.95A4,4,0,0,1,32,212.69Z"/><path class="cls-17" d="M140.8,46.58c-.46.71-.47,1.12-.44,1.19a2.05,2.05,0,0,0,1.23.26h42.33a2,2,0,0,0,1.24-.27,2,2,0,0,0-.45-1.18L164.09,15a1.87,1.87,0,0,0-1.33-1c-.43,0-.92.38-1.34,1Z"/><path class="cls-4" d="M183.92,52.51H141.59c-2.39,0-4.27-.95-5.17-2.62s-.67-3.76.63-5.76h0l20.62-31.59a5.77,5.77,0,0,1,10.17,0l20.62,31.59c1.31,2,1.54,4.1.64,5.76S186.31,52.51,183.92,52.51ZM140.8,46.58c-.46.71-.47,1.12-.44,1.19a2.05,2.05,0,0,0,1.23.26h42.33a2,2,0,0,0,1.24-.27,2,2,0,0,0-.45-1.18L164.09,15a1.87,1.87,0,0,0-1.33-1c-.43,0-.92.38-1.34,1Z"/><path class="cls-18" d="M161.56,43.26a1.64,1.64,0,0,1,1.17-2.8,1.61,1.61,0,0,1,1.18.47,1.63,1.63,0,0,1,0,2.33,1.61,1.61,0,0,1-1.18.48A1.59,1.59,0,0,1,161.56,43.26Zm-1-19.36h4.33l-.8,13.86h-2.73Z"/></g></g></svg>