<svg xmlns="http://www.w3.org/2000/svg" xmlns:xlink="http://www.w3.org/1999/xlink" viewBox="0 0 463.98 363.31"><defs><style>.cls-1{fill:none;}.cls-2{fill:#ff735e;}.cls-3{fill:#6680e1;}.cls-4{clip-path:url(#clip-path);}.cls-5{fill:#abcafb;}.cls-6{fill:#0044a4;opacity:0.1;}.cls-7{clip-path:url(#clip-path-2);}.cls-8{fill:#ebeffc;}.cls-9{fill:#f4f9ff;}.cls-10{fill:#cddcf8;}.cls-11{fill:#ffad36;}.cls-12{fill:#ffd06e;}.cls-13{clip-path:url(#clip-path-3);}.cls-14{opacity:0.3;}.cls-15{fill:#fff;}.cls-16{fill:#e1e7ff;}.cls-17{fill:#c8d3fb;}</style><clipPath id="clip-path"><path id="SVGID" class="cls-1" d="M122.32,192.51a58.33,58.33,0,0,0,4-12.94,67.68,67.68,0,0,0-1-6.73c-.36-1.9-.81-3.74-1.31-5.55a23.35,23.35,0,0,1-4.84,6.16,57.21,57.21,0,0,0,3.48-10.58,70.81,70.81,0,0,0-5.33-11.8,22.87,22.87,0,0,1-2.78,6.21,59.28,59.28,0,0,0,.75-9.58c-.41-.63-.81-1.27-1.23-1.89a71.89,71.89,0,0,0-7.93-9.64,24.61,24.61,0,0,1-1.64,7.3,62,62,0,0,0-1-9.9A70.53,70.53,0,0,0,93.57,126a24.91,24.91,0,0,1-.56,7.12,62.69,62.69,0,0,0-2.15-8.78,74.6,74.6,0,0,0-10.55-5,23,23,0,0,1,.62,5.92,61.84,61.84,0,0,0-3.1-6.84A79.27,79.27,0,0,0,69,115.94a61.43,61.43,0,0,0-10.49-1.49,62,62,0,0,0-2.38,10.33,78.85,78.85,0,0,0-.84,9.13,60.14,60.14,0,0,0,5.27,5.33,23.1,23.1,0,0,1-5.31-2.69,74.74,74.74,0,0,0,.91,11.64,61.46,61.46,0,0,0,7.43,5.15,24.51,24.51,0,0,1-6.85-2,69.87,69.87,0,0,0,3.53,11.92,61.34,61.34,0,0,0,8.87,4.52,24.58,24.58,0,0,1-7.41-1.08,72.71,72.71,0,0,0,6.17,10.85c.43.62.88,1.22,1.33,1.82a59.73,59.73,0,0,0,9.2,2.74,22.91,22.91,0,0,1-6.79.37,71.34,71.34,0,0,0,9.11,9.21,57.59,57.59,0,0,0,11.13.53,23.68,23.68,0,0,1-7.49,2.32c1.51,1.11,3.07,2.19,4.71,3.21q2.82,1.76,5.94,3.31a58.1,58.1,0,0,0,13.5.94,22.18,22.18,0,0,1-6.5,2.14l2,.73a78.8,78.8,0,0,0,8.95,2.54,61,61,0,0,0,10.45,1.5,60.87,60.87,0,0,0,2.34-10.3,79.19,79.19,0,0,0,.84-9.26c0-.72,0-1.42,0-2.12A22,22,0,0,1,122.32,192.51Z"/></clipPath><clipPath id="clip-path-2"><path id="SVGID-2" data-name="SVGID" class="cls-1" d="M394.26,279.82a58.15,58.15,0,0,0,13.5-1.05q3.11-1.59,5.91-3.37c1.63-1,3.18-2.12,4.68-3.25a23.48,23.48,0,0,1-7.51-2.25,57.18,57.18,0,0,0,11.12-.63,70.6,70.6,0,0,0,9-9.29,22.32,22.32,0,0,1-6.79-.31,59.29,59.29,0,0,0,9.18-2.82c.44-.6.89-1.21,1.31-1.83a71.88,71.88,0,0,0,6.06-10.91,24.21,24.21,0,0,1-7.39,1.15,61.67,61.67,0,0,0,8.83-4.6,70.32,70.32,0,0,0,3.42-11.95,24.39,24.39,0,0,1-6.83,2.08,61.93,61.93,0,0,0,7.39-5.22,75,75,0,0,0,.8-11.64,23.43,23.43,0,0,1-5.29,2.74,60.22,60.22,0,0,0,5.23-5.39,77.7,77.7,0,0,0-.93-9.12,61.16,61.16,0,0,0-2.46-10.3A60.75,60.75,0,0,0,433,193.44a78.12,78.12,0,0,0-8.8,2.55,61.77,61.77,0,0,0-3,6.87,23.25,23.25,0,0,1,.55-5.93A74,74,0,0,0,411.27,202a61.57,61.57,0,0,0-2.07,8.8,24.5,24.5,0,0,1-.63-7.12,69.74,69.74,0,0,0-9.8,7.66,61.2,61.2,0,0,0-1,9.91,24.56,24.56,0,0,1-1.7-7.29,71.88,71.88,0,0,0-7.85,9.71c-.41.63-.8,1.27-1.2,1.9a59.1,59.1,0,0,0,.82,9.57,22.46,22.46,0,0,1-2.82-6.18,70.56,70.56,0,0,0-5.24,11.85,57.34,57.34,0,0,0,3.58,10.55,23.91,23.91,0,0,1-4.9-6.12c-.47,1.81-.91,3.66-1.25,5.56a67.8,67.8,0,0,0-.91,6.73,58,58,0,0,0,4.07,12.91,22,22,0,0,1-4.37-5.26c0,.7,0,1.41,0,2.12a80,80,0,0,0,.91,9.26,62.35,62.35,0,0,0,2.43,10.27,62.21,62.21,0,0,0,10.44-1.59,79.75,79.75,0,0,0,8.93-2.62l2-.75A22.07,22.07,0,0,1,394.26,279.82Z"/></clipPath><clipPath id="clip-path-3"><path id="SVGID-3" data-name="SVGID" class="cls-1" d="M125.7,182.47H83.06l-32.74,153c27.15,5.85,54.06,5.85,54.06,5.85s26.91,0,54.06-5.85Z"/></clipPath></defs><g id="Layer_2" data-name="Layer 2"><g id="Layer_1-2" data-name="Layer 1"><path class="cls-2" d="M69.28,215.47c-.25-.34-.5-.69-.76-1q-4.36-5.81-9.25-11.16c.08-7.2-.09-34.4-7.38-33-6.73,1.29,2.06,22.83,5.81,31.32-1.42-1.51-2.87-3-4.35-4.45-4.92-6.38-21.46-26.94-26.31-21.37-4.49,5.15,15.17,16.53,23.8,21.18q2.41,2.29,4.72,4.69c-8.33-4.16-29.08-13.76-30.93-7.2-2,7.12,25.14,8.62,32.51,8.9a155.9,155.9,0,0,1,10.79,13c-7.46-4.72-28.09-17-30.63-10.54-2.72,7,24.86,11.15,31.76,12.08a170.9,170.9,0,0,1,10,15.59c-7.13-6-24.93-20.23-28.28-14.31-3.63,6.44,22.31,14.34,29.44,16.38.49.89,1,1.78,1.46,2.68,2.43,4.57,4.67,9.26,6.74,14-6.46-6.33-23.71-22.33-27.52-16.56-4.1,6.19,21.48,15.95,28.31,18.43A185.34,185.34,0,0,1,97,276.4c-5.52-7.19-20.33-25.4-24.91-20.23-4.92,5.55,19,18.81,25.46,22.21.09.32.19.64.27,1,.68,2.6,1.33,5.22,1.79,7.86a.8.8,0,0,0,1.58-.24c-.45-2.63-1-5.25-1.72-7.85,3.28-6.59,14.83-30.92,7.69-32.83-6.49-1.73-8,20.56-8.4,30.17-1.22-4.33-2.65-8.61-4.14-12.81q-1.61-4.5-3.42-8.93c2.25-6.76,10.44-32.83,3-33.72-6.74-.82-5,21.92-4.06,31.32Q86.67,244,82.35,236c1.78-6.9,8.13-33.48.7-33.85-6.86-.35-3.43,22.71-1.81,31.83a176.26,176.26,0,0,0-10.3-16.27c.81-7.5,3.16-34-4.15-33.32C60.14,185,66.28,206.24,69.28,215.47Z"/><path class="cls-2" d="M414.14,171.65c.18-.39.37-.78.54-1.17q3-6.6,5.39-13.45c6.36-3.37,30.18-16.52,25.46-22.25-4.35-5.3-19.07,12.71-24.74,20.06q1-3,1.83-6c3.25-7.37,13.42-31.71,6.21-33.31-6.68-1.48-7.28,21.22-7.24,31q-.85,3.21-1.87,6.38c-.32-9.29-1.8-32.12-8.45-30.6-7.21,1.64,4.44,26.2,7.72,32.81a155.88,155.88,0,0,1-6.27,15.69c.58-8.81,1.56-32.82-5.38-31.94-7.42.94,2.09,27.16,4.57,33.67a170.77,170.77,0,0,1-8.9,16.26c1.9-9.14,5.86-31.56-.94-31.67-7.39-.12-1.94,26.45-.32,33.68-.55.86-1.1,1.72-1.66,2.57q-4.29,6.48-9.1,12.61c2.48-8.7,8.29-31.49,1.4-32.08-7.39-.64-3.75,26.49-2.66,33.68a187.48,187.48,0,0,1-15.86,17.47c3.68-8.28,12.6-30,5.87-31.55-7.23-1.67-7.42,25.71-7.35,33l-.71.69c-2,1.83-3.95,3.67-6.05,5.33-.81.64.16,1.91,1,1.27,2.09-1.66,4.11-3.42,6.07-5.26,7.35-.27,34.24-1.75,32.51-8.93-1.58-6.53-21.9,2.76-30.51,7,3.22-3.14,6.3-6.43,9.27-9.75,2.13-2.37,4.19-4.8,6.21-7.28,7-1.25,33.83-6.51,31.08-13.42-2.5-6.31-21.67,6-29.45,11.4,3.74-4.73,7.27-9.63,10.54-14.69,6.91-1.73,33.29-8.86,30.07-15.56-3-6.19-21.59,7.84-28.82,13.62a176,176,0,0,0,9.36-16.82c7-2.87,31.38-13.47,27.3-19.57C436.51,149.07,420.82,164.6,414.14,171.65Z"/><path class="cls-3" d="M122.32,192.51a58.33,58.33,0,0,0,4-12.94,67.68,67.68,0,0,0-1-6.73c-.36-1.9-.81-3.74-1.31-5.55a23.35,23.35,0,0,1-4.84,6.16,57.21,57.21,0,0,0,3.48-10.58,70.81,70.81,0,0,0-5.33-11.8,22.87,22.87,0,0,1-2.78,6.21,59.28,59.28,0,0,0,.75-9.58c-.41-.63-.81-1.27-1.23-1.89a71.89,71.89,0,0,0-7.93-9.64,24.61,24.61,0,0,1-1.64,7.3,62,62,0,0,0-1-9.9A70.53,70.53,0,0,0,93.57,126a24.91,24.91,0,0,1-.56,7.12,62.69,62.69,0,0,0-2.15-8.78,74.6,74.6,0,0,0-10.55-5,23,23,0,0,1,.62,5.92,61.84,61.84,0,0,0-3.1-6.84A79.27,79.27,0,0,0,69,115.94a61.43,61.43,0,0,0-10.49-1.49,62,62,0,0,0-2.38,10.33,78.85,78.85,0,0,0-.84,9.13,60.14,60.14,0,0,0,5.27,5.33,23.1,23.1,0,0,1-5.31-2.69,74.74,74.74,0,0,0,.91,11.64,61.46,61.46,0,0,0,7.43,5.15,24.51,24.51,0,0,1-6.85-2,69.87,69.87,0,0,0,3.53,11.92,61.34,61.34,0,0,0,8.87,4.52,24.58,24.58,0,0,1-7.41-1.08,72.71,72.71,0,0,0,6.17,10.85c.43.62.88,1.22,1.33,1.82a59.73,59.73,0,0,0,9.2,2.74,22.91,22.91,0,0,1-6.79.37,71.34,71.34,0,0,0,9.11,9.21,57.59,57.59,0,0,0,11.13.53,23.68,23.68,0,0,1-7.49,2.32c1.51,1.11,3.07,2.19,4.71,3.21q2.82,1.76,5.94,3.31a58.1,58.1,0,0,0,13.5.94,22.18,22.18,0,0,1-6.5,2.14l2,.73a78.8,78.8,0,0,0,8.95,2.54,61,61,0,0,0,10.45,1.5,60.87,60.87,0,0,0,2.34-10.3,79.19,79.19,0,0,0,.84-9.26c0-.72,0-1.42,0-2.12A22,22,0,0,1,122.32,192.51Z"/><g class="cls-4"><path class="cls-5" d="M112.44,137.74l-1-.12a71.2,71.2,0,0,1-12.69,34.44l-8.87-12.9c12.16-16.92,10.64-38.66,10.62-38.87h-1c0,.21,1.49,21.33-10.25,37.92l-7.89-11.49c12.11-17,.65-41.06.54-41.31l-.91.42c.11.24,11.15,23.43-.28,39.95L72.2,133.48C76.66,116.56,65.11,95.22,65,95l-.89.46c.12.21,11.08,20.49,7.31,36.86L54,107l-.83.56,17.44,25.36c-16.64-2.34-31.64-19.83-31.8-20l-.75.66c.16.19,16,18.61,33.34,20.52l8.46,12.31c-19.52,4.76-37.22-13.86-37.4-14.05l-.71.7c.18.2,18.52,19.5,38.76,14.29l7.9,11.48c-19.68,5-38.89-3.91-39.08-4l-.38.95c.2.09,19.95,9.29,40.1,4l8.88,12.91a71.21,71.21,0,0,1-36.7-.49l-.26,1a72.18,72.18,0,0,0,37.6.43l6.68,9.71c-19.65,5.19-34.21,3.05-34.35,3l-.09,1c.15,0,15.06,2.22,35.08-3.14l7.28,10.59c-16.46,4.33-28.65,2.55-28.77,2.54l-.09,1c.13,0,12.67,1.86,29.5-2.64l6.07,8.82a50.6,50.6,0,0,1-18,1.73l-.07,1c.33,0,8,1.08,18.72-1.83l11.82,17.19.83-.57-11.82-17.19c6.55-9,8.34-16.5,8.42-16.82l-1-.31A50.62,50.62,0,0,1,120.68,204l-6.06-8.82c10.22-14.11,13-26.47,13-26.6l-1-.29c0,.12-2.73,12.14-12.67,25.95l-7.28-10.59c12.17-16.76,15.46-31.47,15.5-31.62l-1-.3c0,.15-3.25,14.51-15.13,31L99.37,173A72.31,72.31,0,0,0,112.44,137.74Z"/></g><path class="cls-6" d="M115.28,147.7c-.41-.63-.81-1.27-1.23-1.89a71.89,71.89,0,0,0-7.93-9.64,24.61,24.61,0,0,1-1.64,7.3,62,62,0,0,0-1-9.9A70.53,70.53,0,0,0,93.57,126a24.91,24.91,0,0,1-.56,7.12,62.69,62.69,0,0,0-2.15-8.78,74.6,74.6,0,0,0-10.55-5,23,23,0,0,1,.62,5.92,61.84,61.84,0,0,0-3.1-6.84A79.27,79.27,0,0,0,69,115.94a61.43,61.43,0,0,0-10.49-1.49l64.92,94.44a60.87,60.87,0,0,0,2.34-10.3,79.19,79.19,0,0,0,.84-9.26c0-.72,0-1.42,0-2.12a22,22,0,0,1-4.32,5.3,58.33,58.33,0,0,0,4-12.94,67.68,67.68,0,0,0-1-6.73c-.36-1.9-.81-3.74-1.31-5.55a23.35,23.35,0,0,1-4.84,6.16,57.21,57.21,0,0,0,3.48-10.58,70.81,70.81,0,0,0-5.33-11.8,22.87,22.87,0,0,1-2.78,6.21A59.28,59.28,0,0,0,115.28,147.7Z"/><path class="cls-3" d="M394.26,279.82a58.15,58.15,0,0,0,13.5-1.05q3.11-1.59,5.91-3.37c1.63-1,3.18-2.12,4.68-3.25a23.48,23.48,0,0,1-7.51-2.25,57.18,57.18,0,0,0,11.12-.63,70.6,70.6,0,0,0,9-9.29,22.32,22.32,0,0,1-6.79-.31,59.29,59.29,0,0,0,9.18-2.82c.44-.6.89-1.21,1.31-1.83a71.88,71.88,0,0,0,6.06-10.91,24.21,24.21,0,0,1-7.39,1.15,61.67,61.67,0,0,0,8.83-4.6,70.32,70.32,0,0,0,3.42-11.95,24.39,24.39,0,0,1-6.83,2.08,61.93,61.93,0,0,0,7.39-5.22,75,75,0,0,0,.8-11.64,23.43,23.43,0,0,1-5.29,2.74,60.22,60.22,0,0,0,5.23-5.39,77.7,77.7,0,0,0-.93-9.12,61.16,61.16,0,0,0-2.46-10.3A60.75,60.75,0,0,0,433,193.44a78.12,78.12,0,0,0-8.8,2.55,61.77,61.77,0,0,0-3,6.87,23.25,23.25,0,0,1,.55-5.93A74,74,0,0,0,411.27,202a61.57,61.57,0,0,0-2.07,8.8,24.5,24.5,0,0,1-.63-7.12,69.74,69.74,0,0,0-9.8,7.66,61.2,61.2,0,0,0-1,9.91,24.56,24.56,0,0,1-1.7-7.29,71.88,71.88,0,0,0-7.85,9.71c-.41.63-.8,1.27-1.2,1.9a59.1,59.1,0,0,0,.82,9.57,22.46,22.46,0,0,1-2.82-6.18,70.56,70.56,0,0,0-5.24,11.85,57.34,57.34,0,0,0,3.58,10.55,23.91,23.91,0,0,1-4.9-6.12c-.47,1.81-.91,3.66-1.25,5.56a67.8,67.8,0,0,0-.91,6.73,58,58,0,0,0,4.07,12.91,22,22,0,0,1-4.37-5.26c0,.7,0,1.41,0,2.12a80,80,0,0,0,.91,9.26,62.35,62.35,0,0,0,2.43,10.27,62.21,62.21,0,0,0,10.44-1.59,79.75,79.75,0,0,0,8.93-2.62l2-.75A22.07,22.07,0,0,1,394.26,279.82Z"/><g class="cls-7"><path class="cls-5" d="M441.61,250.57l-.27-1a71,71,0,0,1-36.69.81l8.76-13c20.19,5.12,39.86-4.26,40.06-4.35l-.39-1c-.19.09-19.31,9.2-39,4.35l7.8-11.55c20.29,5,38.45-14.43,38.63-14.63l-.72-.7c-.18.2-17.71,19-37.27,14.38l8.35-12.38c17.38-2.06,33-20.62,33.15-20.81l-.75-.65c-.16.18-15,17.81-31.62,20.3l17.21-25.52-.83-.56-17.21,25.52c-3.91-16.34,6.87-36.71,7-36.92l-.89-.46c-.11.22-11.47,21.66-6.87,38.54l-8.35,12.38c-11.58-16.42-.75-39.71-.64-39.94l-.91-.41c-.12.24-11.36,24.37.91,41.3l-7.8,11.56c-11.87-16.47-10.6-37.62-10.58-37.83h-1c0,.22-1.33,22,11,38.77l-8.76,13a71.21,71.21,0,0,1-13-34.33l-1,.13a72.25,72.25,0,0,0,13.38,35.14l-6.58,9.77c-12-16.38-15.38-30.71-15.42-30.85l-1,.3c0,.15,3.45,14.83,15.77,31.49l-7.19,10.65c-10-13.72-12.87-25.72-12.9-25.84l-1,.3c0,.13,2.91,12.47,13.26,26.49l-6,8.87a50.51,50.51,0,0,1-8.21-16.12l-1,.32c.07.32,1.93,7.86,8.57,16.74l-11.67,17.3.83.56,11.67-17.3c10.72,2.82,18.41,1.72,18.73,1.67l-.08-1a50.55,50.55,0,0,1-18-1.57l6-8.88c16.87,4.35,29.4,2.4,29.52,2.38l-.09-1c-.12,0-12.3,1.9-28.8-2.28L396.79,262c20.06,5.18,34.95,2.85,35.1,2.83l-.09-1c-.15,0-14.69,2.28-34.38-2.73l6.59-9.77A72.27,72.27,0,0,0,441.61,250.57Z"/></g><path class="cls-6" d="M433.38,256.85c.44-.6.89-1.21,1.31-1.83a71.88,71.88,0,0,0,6.06-10.91,24.21,24.21,0,0,1-7.39,1.15,61.67,61.67,0,0,0,8.83-4.6,70.32,70.32,0,0,0,3.42-11.95,24.39,24.39,0,0,1-6.83,2.08,61.93,61.93,0,0,0,7.39-5.22,75,75,0,0,0,.8-11.64,23.43,23.43,0,0,1-5.29,2.74,60.22,60.22,0,0,0,5.23-5.39,77.7,77.7,0,0,0-.93-9.12,61.16,61.16,0,0,0-2.46-10.3l-64.09,95a62.21,62.21,0,0,0,10.44-1.59,79.75,79.75,0,0,0,8.93-2.62l2-.75a22.07,22.07,0,0,1-6.52-2.09,58.15,58.15,0,0,0,13.5-1.05q3.11-1.59,5.91-3.37c1.63-1,3.18-2.12,4.68-3.25a23.48,23.48,0,0,1-7.51-2.25,57.18,57.18,0,0,0,11.12-.63,70.6,70.6,0,0,0,9-9.29,22.32,22.32,0,0,1-6.79-.31A59.29,59.29,0,0,0,433.38,256.85Z"/><ellipse class="cls-8" cx="229.71" cy="346.25" rx="229.71" ry="17.06"/><rect class="cls-9" x="108.64" y="75.72" width="291.48" height="261.48"/><rect class="cls-10" x="108.64" y="75.72" width="291.48" height="30.92"/><path class="cls-2" d="M132.16,91.18a5.94,5.94,0,1,1-5.94-5.93A5.93,5.93,0,0,1,132.16,91.18Z"/><path class="cls-11" d="M152.16,91.18a5.94,5.94,0,1,1-5.94-5.93A5.93,5.93,0,0,1,152.16,91.18Z"/><path class="cls-3" d="M172.16,91.18a5.94,5.94,0,1,1-5.94-5.93A5.93,5.93,0,0,1,172.16,91.18Z"/><path class="cls-12" d="M357.41,195.92c1.4-3.54-.58-6.44-4.38-6.44H212.73a11,11,0,0,0-9.46,6.44l-31.1,78.87c-1.4,3.54.57,6.44,4.38,6.44h140.3a11,11,0,0,0,9.46-6.44Z"/><path class="cls-12" d="M165.44,268.06l31.1-78.87a11,11,0,0,1,9.46-6.44H316.14v-7a7,7,0,0,0-6.92-6.93H260.09a12.85,12.85,0,0,1-10.23-6.08l-6.69-12.32A12.84,12.84,0,0,0,233,144.35H169.82a7,7,0,0,0-6.92,6.93v116.3a6.94,6.94,0,0,0,5.57,6.78C165.57,273.75,164.22,271.15,165.44,268.06Z"/><path class="cls-2" d="M267.38,211.31a26.16,26.16,0,1,0,26.15,26.15A26.16,26.16,0,0,0,267.38,211.31Zm12.8,35.18-3.77,3.77-9-9-9,9-3.77-3.77,9-9-9-9,3.77-3.77,9,9,9-9,3.77,3.77-9,9Z"/><ellipse class="cls-2" cx="104.38" cy="338.15" rx="75.85" ry="12.39"/><path class="cls-12" d="M125.7,182.47H83.06l-32.74,153c27.15,5.85,54.06,5.85,54.06,5.85s26.91,0,54.06-5.85Z"/><ellipse class="cls-2" cx="104.38" cy="182.47" rx="21.32" ry="3.25"/><g class="cls-13"><path class="cls-11" d="M103.45,328.71c-43.89,0-73.53-7.34-75.37-7.8l6.11-24.05-3.06,12,3-12c.63.15,63.89,15.66,141.09-.13l5,24.31A384.14,384.14,0,0,1,103.45,328.71Z"/><path class="cls-11" d="M103.45,274.73c-43.89,0-73.53-7.33-75.37-7.8l6.11-24.05-3.06,12,3-12c.63.16,63.89,15.66,141.09-.13l5,24.31A384.14,384.14,0,0,1,103.45,274.73Z"/><path class="cls-11" d="M103.45,220.75c-43.89,0-73.53-7.33-75.37-7.8l6.11-24-3.06,12,3-12c.63.16,63.89,15.66,141.09-.13l5,24.31A384.14,384.14,0,0,1,103.45,220.75Z"/></g><path class="cls-6" d="M131,256.28c0,33.26-6.88,63.3-18,84.76a286.25,286.25,0,0,0,45.37-5.6l-32.74-153h-7.64C126.18,202.69,131,228.35,131,256.28Z"/><g class="cls-14"><path class="cls-15" d="M85.37,206.07Q84.2,211.71,83,217.35q-2.82,13.54-5.62,27.08Q74,260.9,70.59,277.36q-2.93,14.17-5.87,28.34c-.95,4.57-2.12,9.16-2.86,13.77a1.06,1.06,0,0,1,0,.19c-.78,3.79,5.11,4.86,5.89,1.09l2.34-11.28q2.81-13.55,5.62-27.08,3.4-16.47,6.82-32.93l5.88-28.34c.95-4.57,2.12-9.16,2.85-13.77,0-.07,0-.13,0-.2.79-3.78-5.1-4.85-5.89-1.08Z"/></g><rect class="cls-3" x="241.4" y="316.14" width="147.04" height="9.03" transform="translate(-75.93 98.77) rotate(-15.93)"/><rect class="cls-2" x="319.85" y="305.16" width="67.05" height="9.03" transform="translate(-71.44 108.91) rotate(-15.93)"/><circle class="cls-2" cx="385.62" cy="300.47" r="45.26" transform="translate(-24.06 33.73) rotate(-4.86)"/><circle class="cls-10" cx="385.62" cy="300.47" r="36.43" transform="translate(-45.83 530.33) rotate(-65.97)"/><path class="cls-15" d="M413,292.65l-4.34,1.24A24,24,0,0,0,379,277.43l-1.24-4.35A28.51,28.51,0,0,1,413,292.65Z"/><polygon class="cls-16" points="351.88 74.08 308.56 60.94 282.51 146.87 349.83 167.27 368.81 104.67 351.88 74.08"/><polygon class="cls-17" points="347.5 108.04 344.41 102.25 330.54 109.67 323.12 95.8 317.33 98.89 324.75 112.76 310.88 120.18 313.98 125.97 327.85 118.55 335.26 132.42 341.05 129.32 333.63 115.45 347.5 108.04"/><polygon class="cls-16" points="236.92 15.24 192.94 25.96 214.19 113.19 282.53 96.54 267.05 32.98 236.92 15.24"/><polygon class="cls-17" points="250.42 46.71 244.81 43.3 236.64 56.74 223.2 48.57 219.79 54.17 233.22 62.35 225.05 75.79 230.66 79.2 238.83 65.76 252.27 73.93 255.68 68.32 242.25 60.15 250.42 46.71"/><polygon class="cls-16" points="391.05 23.1 379.87 23.1 379.87 11.92 375.88 11.92 375.88 23.1 364.7 23.1 364.7 27.08 375.88 27.08 375.88 38.26 379.87 38.26 379.87 27.08 391.05 27.08 391.05 23.1"/><polygon class="cls-16" points="416.09 61.57 410 61.57 410 55.48 407.83 55.48 407.83 61.57 401.74 61.57 401.74 63.73 407.83 63.73 407.83 69.82 410 69.82 410 63.73 416.09 63.73 416.09 61.57"/><polygon class="cls-16" points="348.88 50.94 341.5 50.94 341.5 43.57 338.88 43.57 338.88 50.94 331.5 50.94 331.5 53.57 338.88 53.57 338.88 60.94 341.5 60.94 341.5 53.57 348.88 53.57 348.88 50.94"/><polygon class="cls-16" points="69.67 49.79 58.49 49.79 58.49 38.61 54.51 38.61 54.51 49.79 43.33 49.79 43.33 53.77 54.51 53.77 54.51 64.95 58.49 64.95 58.49 53.77 69.67 53.77 69.67 49.79"/><polygon class="cls-16" points="118.47 43.12 112.38 43.12 112.38 37.03 110.21 37.03 110.21 43.12 104.12 43.12 104.12 45.29 110.21 45.29 110.21 51.38 112.38 51.38 112.38 45.29 118.47 45.29 118.47 43.12"/><polygon class="cls-16" points="81.39 92.78 74.02 92.78 74.02 85.41 71.39 85.41 71.39 92.78 64.02 92.78 64.02 95.41 71.39 95.41 71.39 102.78 74.02 102.78 74.02 95.41 81.39 95.41 81.39 92.78"/><path class="cls-17" d="M326.24,4.59a2.43,2.43,0,1,1-2.43-2.42A2.42,2.42,0,0,1,326.24,4.59Z"/><path class="cls-17" d="M435.69,91.74a4.59,4.59,0,1,1-4.59-4.59A4.59,4.59,0,0,1,435.69,91.74Z"/><path class="cls-17" d="M290.4,29.87A2.43,2.43,0,1,1,288,27.44,2.42,2.42,0,0,1,290.4,29.87Z"/><path class="cls-17" d="M152.37,4.59A4.59,4.59,0,1,1,147.78,0,4.6,4.6,0,0,1,152.37,4.59Z"/><path class="cls-17" d="M170.2,53.25a2.43,2.43,0,1,1-2.42-2.42A2.42,2.42,0,0,1,170.2,53.25Z"/><path class="cls-17" d="M28.57,100.19a2.42,2.42,0,1,1-2.42-2.42A2.42,2.42,0,0,1,28.57,100.19Z"/></g></g></svg>