<svg xmlns="http://www.w3.org/2000/svg" xmlns:xlink="http://www.w3.org/1999/xlink" viewBox="0 0 493.01 342.79"><defs><style>.cls-1{fill:none;}.cls-2{fill:#e1e7ff;}.cls-3{fill:#cddcf8;}.cls-4{fill:#ecf0fd;}.cls-5{fill:#ffad36;}.cls-6{clip-path:url(#clip-path);}.cls-7{fill:#ff735e;}.cls-8{fill:#0044a4;opacity:0.1;}.cls-9{clip-path:url(#clip-path-2);}.cls-10{fill:#ffd06e;}.cls-11{clip-path:url(#clip-path-3);}.cls-12{clip-path:url(#clip-path-4);}.cls-13{fill:#6680e1;}.cls-14{fill:#8aa8f7;}.cls-15{fill:#fff;}.cls-16{fill:#f4f9ff;}.cls-17{fill:#bcd2f6;}.cls-18{fill:#cdd7fb;}.cls-19{fill:#edf1ff;}</style><clipPath id="clip-path" transform="translate(14.16)"><path class="cls-1" d="M422.31,221s-42.64,18.55-54.88,34.74-2.19,35.4-2.19,35.4,20.86,5.94,34.22-9.34S422.31,221,422.31,221Z"/></clipPath><clipPath id="clip-path-2" transform="translate(14.16)"><path class="cls-1" d="M457.11,262.12s-44.35.35-63,8.42-20.94,25.25-20.94,25.25,13.56,10.82,32.59,3.78S457.11,262.12,457.11,262.12Z"/></clipPath><clipPath id="clip-path-3" transform="translate(14.16)"><path class="cls-1" d="M12.46,169.82s26.2,38.42,44.4,47.42,35.19-4.48,35.19-4.48S94,191.17,76.47,180.9,12.46,169.82,12.46,169.82Z"/></clipPath><clipPath id="clip-path-4" transform="translate(14.16)"><path class="cls-1" d="M46.33,128S55,171.46,66.39,188.24s28.73,15.85,28.73,15.85,8.09-15.34-2.39-32.72S46.33,128,46.33,128Z"/></clipPath></defs><g id="Layer_2" data-name="Layer 2"><g id="Layer_1-2" data-name="Layer 1"><polygon class="cls-2" points="162.68 93.43 156.43 93.43 156.43 87.18 152 87.18 152 93.43 145.75 93.43 145.75 97.87 152 97.87 152 104.12 156.43 104.12 156.43 97.87 162.68 97.87 162.68 93.43"/><polygon class="cls-2" points="68.11 39.57 63.57 39.57 63.57 35.04 60.35 35.04 60.35 39.57 55.82 39.57 55.82 42.79 60.35 42.79 60.35 47.33 63.57 47.33 63.57 42.79 68.11 42.79 68.11 39.57"/><polygon class="cls-2" points="151.89 13.81 147.35 13.81 147.35 9.27 144.14 9.27 144.14 13.81 139.6 13.81 139.6 17.02 144.14 17.02 144.14 21.56 147.35 21.56 147.35 17.02 151.89 17.02 151.89 13.81"/><polygon class="cls-2" points="431.25 97.06 426.72 97.06 426.72 92.53 423.5 92.53 423.5 97.06 418.97 97.06 418.97 100.28 423.5 100.28 423.5 104.81 426.72 104.81 426.72 100.28 431.25 100.28 431.25 97.06"/><polygon class="cls-2" points="447.16 66.18 440.9 66.18 440.9 59.93 436.47 59.93 436.47 66.18 430.22 66.18 430.22 70.62 436.47 70.62 436.47 76.87 440.9 76.87 440.9 70.62 447.16 70.62 447.16 66.18"/><polygon class="cls-2" points="52.16 108.28 45.91 108.28 45.91 102.03 41.47 102.03 41.47 108.28 35.22 108.28 35.22 112.71 41.47 112.71 41.47 118.96 45.91 118.96 45.91 112.71 52.16 112.71 52.16 108.28"/><polygon class="cls-2" points="460.7 234.53 456.17 234.53 456.17 229.99 452.95 229.99 452.95 234.53 448.42 234.53 448.42 237.74 452.95 237.74 452.95 242.28 456.17 242.28 456.17 237.74 460.7 237.74 460.7 234.53"/><circle class="cls-3" cx="177.91" cy="3.91" r="3.91"/><path class="cls-3" d="M325.65,18.24a2.07,2.07,0,1,1-2.07-2.06A2.07,2.07,0,0,1,325.65,18.24Z" transform="translate(14.16)"/><path class="cls-3" d="M414.86,29.44A3.91,3.91,0,1,1,411,25.53,3.91,3.91,0,0,1,414.86,29.44Z" transform="translate(14.16)"/><path class="cls-3" d="M23.12,147.19a2.07,2.07,0,1,1-2.06-2.06A2.07,2.07,0,0,1,23.12,147.19Z" transform="translate(14.16)"/><path class="cls-3" d="M461,218.37a3.91,3.91,0,1,1-3.91-3.91A3.91,3.91,0,0,1,461,218.37Z" transform="translate(14.16)"/><circle class="cls-3" cx="39.12" cy="71.84" r="3.91"/><ellipse class="cls-4" cx="245.65" cy="311.94" rx="231.48" ry="30.85"/><path class="cls-5" d="M422.31,221s-42.64,18.55-54.88,34.74-2.19,35.4-2.19,35.4,20.86,5.94,34.22-9.34S422.31,221,422.31,221Z" transform="translate(14.16)"/><g class="cls-6"><path class="cls-7" d="M433.87,247.58l5.27-.82c.9-.14.76-1.55-.15-1.41l-37.18,5.73-3.48.54,2.89-3.56,10.14-12.46,36.88-5.69,5.27-.81c.9-.14.76-1.56-.14-1.42l-37.19,5.74-3.48.54,5.61-6.9,5.66-6.95a35,35,0,0,0,2.66-3.28l.12-.15a.71.71,0,0,0-1.1-.89l-6.79,8.34-7.27,8.93q-.91-17.88-1.85-35.77l-.27-5.32c-.05-.92-1.46-.77-1.42.14L410,229.69c.08,1.67.17,3.34.26,5l-7.72,9.49-5.32,6.53L395.37,215l-.27-5.33c-.05-.92-1.47-.77-1.42.14q1,18.79,1.94,37.58c.09,1.67.18,3.34.26,5q-6.51,8-13,16-.93-17.88-1.85-35.76l-.27-5.33c-.05-.92-1.47-.77-1.42.15q1,18.78,1.94,37.57c.09,1.67.18,3.35.26,5l-13,16q-.93-17.9-1.85-35.77c-.09-1.78-.18-3.55-.28-5.33,0-.91-1.46-.77-1.41.15q1,18.78,1.94,37.57l.26,5c-.51.63-1,1.26-1.54,1.9l-5.66,7a36.16,36.16,0,0,0-2.66,3.27,1,1,0,0,1-.12.15.71.71,0,0,0,1.1.9q3.39-4.17,6.79-8.35c1.07-1.3,2.13-2.61,3.2-3.92l36.88-5.69,5.27-.81c.9-.14.76-1.56-.15-1.42l-37.18,5.74-3.49.54,11.79-14.5c.42-.5.83-1,1.25-1.52l36.88-5.69,5.27-.82c.9-.14.76-1.55-.15-1.41l-37.18,5.74-3.48.53q6.51-8,13-16Z" transform="translate(14.16)"/></g><path class="cls-8" d="M414.37,250.55c-1.44,2-2.95,4.06-4.58,6.06-14.12,17.35-31.73,28.24-46.33,30.13a33.93,33.93,0,0,0,1.78,4.41s20.86,5.94,34.22-9.34C405.34,275.09,410.47,262.52,414.37,250.55Z" transform="translate(14.16)"/><path class="cls-7" d="M457.11,262.12s-44.35.35-63,8.42-20.94,25.25-20.94,25.25,13.56,10.82,32.59,3.78S457.11,262.12,457.11,262.12Z" transform="translate(14.16)"/><g class="cls-9"><path class="cls-10" d="M452,285.16l4.69,1c.8.18,1.45-.9.65-1.08l-33-7.34-3.09-.68,4.25-1.71,14.91-6,32.76,7.27,4.68,1c.8.18,1.45-.9.65-1.08l-33-7.34-3.09-.68,8.25-3.31,8.32-3.34c1.27-.51,2.7-1,3.92-1.57l.18-.08c.85-.34.45-1.34-.4-1l-10,4L442,267.62l17.89-26.78,2.67-4c.46-.69-.76-1-1.22-.34q-9.41,14.07-18.8,28.13L440,268.41,428.64,273l-7.81,3.14,17.89-26.78c.89-1.33,1.78-2.65,2.66-4,.46-.69-.76-1-1.21-.34q-9.41,14.07-18.8,28.13-1.26,1.88-2.51,3.76l-19.17,7.69,17.9-26.78q1.32-2,2.66-4c.46-.69-.76-1-1.22-.34l-18.79,28.13q-1.26,1.88-2.51,3.76l-19.17,7.69,17.89-26.78,2.67-4c.46-.68-.76-1-1.22-.33l-18.8,28.13-2.51,3.75-2.26.91L366,298.09c-1.27.51-2.7,1-3.92,1.57l-.18.08c-.85.34-.45,1.34.4,1l10-4,4.69-1.88,32.76,7.27,4.68,1c.8.18,1.46-.91.65-1.08l-33-7.34-3.09-.68,17.34-7,1.83-.73,32.75,7.27,4.68,1c.81.18,1.46-.91.65-1.08l-33-7.34-3.1-.68,19.17-7.69Z" transform="translate(14.16)"/></g><path class="cls-8" d="M434.72,281.29q-3.39,1.57-7,3c-20.76,8.33-40.83,10.84-53.6,7.7a23.09,23.09,0,0,0-1,3.78s13.56,10.82,32.59,3.78C414.15,296.47,425.09,288.85,434.72,281.29Z" transform="translate(14.16)"/><path class="cls-5" d="M12.46,169.82s26.2,38.42,44.4,47.42,35.19-4.48,35.19-4.48S94,191.17,76.47,180.9,12.46,169.82,12.46,169.82Z" transform="translate(14.16)"/><g class="cls-11"><path class="cls-7" d="M36.4,153.5c-.6-1.67-1.19-3.35-1.79-5-.3-.86-1.67-.46-1.36.4l12.59,35.46c.4,1.11.79,2.21,1.18,3.32l-4-2.18-14.13-7.63q-6.26-17.58-12.49-35.16c-.6-1.67-1.19-3.35-1.79-5-.3-.86-1.67-.45-1.36.41q6.3,17.73,12.59,35.46c.4,1.11.79,2.21,1.18,3.32l-7.82-4.22-7.89-4.26a36.1,36.1,0,0,0-3.72-2,1.4,1.4,0,0,1-.17-.09.71.71,0,0,0-.67,1.26l9.47,5.11,10.13,5.46-34.79,8.51-5.18,1.27c-.9.22-.49,1.58.4,1.36l36.55-8.94,4.88-1.19,10.77,5.81,7.41,4-34.79,8.51-5.19,1.27c-.89.22-.48,1.58.41,1.36l36.55-8.94,4.88-1.19,18.18,9.81L31.6,208.24l-5.19,1.26c-.89.22-.48,1.58.41,1.37l36.55-8.94,4.88-1.2,18.17,9.81-34.79,8.51-5.18,1.27c-.89.21-.48,1.58.41,1.36l36.55-8.94,4.88-1.19,2.15,1.15L98.33,217a35.09,35.09,0,0,0,3.72,2l.16.09a.71.71,0,0,0,.68-1.25l-9.47-5.12L89,210.29q-6.25-17.58-12.49-35.16l-1.79-5c-.31-.86-1.67-.46-1.36.41Q79.61,188.24,85.92,206c.39,1.1.79,2.21,1.18,3.32l-16.44-8.87-1.73-.94q-6.26-17.58-12.49-35.16l-1.79-5c-.3-.86-1.67-.46-1.36.41q6.3,17.73,12.59,35.45c.39,1.11.79,2.22,1.18,3.32l-18.17-9.8Q42.64,171.09,36.4,153.5Z" transform="translate(14.16)"/></g><path class="cls-8" d="M43,172.1c2.27,1,4.54,2.14,6.8,3.36,19.69,10.63,33.68,25.89,38.28,39.88a33.17,33.17,0,0,0,4-2.58S94,191.17,76.47,180.9C68.77,176.38,55.46,173.69,43,172.1Z" transform="translate(14.16)"/><path class="cls-7" d="M46.33,128S55,171.46,66.39,188.24s28.73,15.85,28.73,15.85,8.09-15.34-2.39-32.72S46.33,128,46.33,128Z" transform="translate(14.16)"/><g class="cls-12"><path class="cls-10" d="M69.92,128.65l.15-4.8c0-.82-1.16-1.26-1.19-.43l-1,33.81c0,1.06-.06,2.11-.1,3.17l-2.47-3.87L56.62,143l1-33.54.14-4.79c0-.82-1.16-1.26-1.18-.44l-1,33.82c0,1.05-.07,2.11-.1,3.16l-4.8-7.48-4.83-7.55c-.74-1.15-1.44-2.48-2.28-3.56a.62.62,0,0,1-.1-.16c-.5-.77-1.41-.19-.91.58q2.89,4.55,5.8,9.07l6.21,9.69L24.92,129.24l-4.41-1.87c-.76-.33-.86.93-.1,1.25l31.15,13.21,4.16,1.76,6.59,10.3L66.86,161,37.21,148.41l-4.42-1.87c-.76-.32-.85.94-.1,1.26L63.84,161,68,162.76l11.14,17.39L49.49,167.58l-4.42-1.87c-.75-.32-.85.94-.09,1.26l31.14,13.2,4.16,1.77q5.58,8.69,11.14,17.38L61.77,186.76l-4.41-1.87c-.76-.33-.86.93-.1,1.25l31.15,13.21,4.16,1.76,1.31,2.06q2.43,3.77,4.84,7.54c.74,1.16,1.44,2.48,2.28,3.56a1.4,1.4,0,0,1,.1.16c.5.77,1.4.19.91-.58l-5.81-9.06-2.73-4.26,1-33.54.14-4.79c0-.82-1.15-1.26-1.18-.44l-1,33.82c0,1-.07,2.11-.1,3.16L82.25,183l-1.06-1.65,1-33.54.14-4.79c0-.83-1.16-1.27-1.18-.44q-.51,16.91-1,33.81l-.09,3.17L68.91,162.18Q69.42,145.41,69.92,128.65Z" transform="translate(14.16)"/></g><path class="cls-8" d="M69.36,146.36c1.45,2,2.88,4.12,4.26,6.28,12.07,18.84,18.3,38.08,17.6,51.22a23.8,23.8,0,0,0,3.9.23s8.09-15.34-2.39-32.72C88.11,163.72,78.59,154.41,69.36,146.36Z" transform="translate(14.16)"/><rect class="cls-13" x="95.73" y="113.24" width="299.83" height="197.82" rx="5.51"/><rect class="cls-3" x="110.12" y="128.66" width="271.05" height="172.28"/><path class="cls-13" d="M62.09,293v15.91a6.24,6.24,0,0,0,6.23,6.23H394.65a6.24,6.24,0,0,0,6.23-6.23V293Z" transform="translate(14.16)"/><path class="cls-14" d="M194.6,292.24v11.35a1.85,1.85,0,0,0,1.84,1.85h70.09a1.85,1.85,0,0,0,1.84-1.85V292.24Z" transform="translate(14.16)"/><rect class="cls-15" x="125.59" y="143.34" width="235.15" height="135.96"/><rect class="cls-2" x="125.59" y="143.34" width="235.15" height="13.1"/><path class="cls-7" d="M122.86,150.19a3,3,0,1,1-3-3A3,3,0,0,1,122.86,150.19Z" transform="translate(14.16)"/><path class="cls-5" d="M133,150.19a3,3,0,1,1-3-3A3,3,0,0,1,133,150.19Z" transform="translate(14.16)"/><path class="cls-13" d="M143.05,150.19a3,3,0,1,1-3-3A3,3,0,0,1,143.05,150.19Z" transform="translate(14.16)"/><path class="cls-3" d="M225.4,225.24a10.16,10.16,0,0,1,4.48-8.81l1.44-1a16.77,16.77,0,0,0,2.86-2.19,3,3,0,0,0,.8-2.13q0-3.21-5.37-3.21a21.48,21.48,0,0,0-5.16.66,23.63,23.63,0,0,0-5,1.88v-8.53a27.23,27.23,0,0,1,11.42-2.32q6.81,0,10.8,2.85a9.16,9.16,0,0,1,4,7.89,7.55,7.55,0,0,1-1.28,4.57,18.89,18.89,0,0,1-4.32,3.91c-1.36,1-2.36,1.76-3,2.3a5.21,5.21,0,0,0-1.41,1.8,5.59,5.59,0,0,0-.47,2.44v1.05H225.4Zm1.13,13.26a5.24,5.24,0,0,1,0-7.28,5.06,5.06,0,0,1,3.69-1.44,5.11,5.11,0,0,1,3.68,1.47,5.08,5.08,0,0,1,0,7.25,5.11,5.11,0,0,1-3.68,1.47A5,5,0,0,1,226.53,238.5Z" transform="translate(14.16)"/><path class="cls-3" d="M231.48,265.54a47.2,47.2,0,1,1,47.2-47.2A47.25,47.25,0,0,1,231.48,265.54Zm0-91.49a44.3,44.3,0,1,0,44.3,44.29A44.34,44.34,0,0,0,231.48,174.05Z" transform="translate(14.16)"/><rect class="cls-7" x="306.08" y="172.7" width="151.25" height="38.2" rx="5.15"/><rect class="cls-10" x="350.35" y="177.8" width="2.06" height="27.99"/><path class="cls-15" d="M325.65,197.35l-7-3.57a6.94,6.94,0,1,0-.85,1.68l7,3.57ZM309.77,196a5.06,5.06,0,1,1,4.57-9h0a5.07,5.07,0,0,1,2.23,6.8,5.05,5.05,0,0,1-6.8,2.22Z" transform="translate(14.16)"/><path class="cls-15" d="M309,189.56l1,.51a2.07,2.07,0,0,1,2.77-.9l.51-1A3.19,3.19,0,0,0,309,189.56Z" transform="translate(14.16)"/><rect class="cls-16" x="39.12" y="214.5" width="138.79" height="88.29"/><rect class="cls-2" x="39.12" y="214.5" width="138.79" height="11.01"/><circle class="cls-7" cx="46.21" cy="220.26" r="2.52"/><path class="cls-5" d="M43.05,220.26a2.52,2.52,0,1,1-2.52-2.52A2.52,2.52,0,0,1,43.05,220.26Z" transform="translate(14.16)"/><circle class="cls-13" cx="63.18" cy="220.26" r="2.52"/><path class="cls-10" d="M45.4,262.94a50,50,0,0,1,6.12-6.14,67.66,67.66,0,0,1,6.12-4.7,65.46,65.46,0,0,1,36.71-11.32,64.32,64.32,0,0,1,24.48,4.71,65.25,65.25,0,0,1,12.24,6.56,69.16,69.16,0,0,1,6.11,4.71,50.47,50.47,0,0,1,6.12,6.18,50.47,50.47,0,0,1-6.12,6.18,69.16,69.16,0,0,1-6.11,4.71,65.34,65.34,0,0,1-61.19,6.5,65.77,65.77,0,0,1-12.24-6.55,67.66,67.66,0,0,1-6.12-4.7A50,50,0,0,1,45.4,262.94Z" transform="translate(14.16)"/><path class="cls-7" d="M106.26,264.18a11.68,11.68,0,0,1-9.41-18.63,17.21,17.21,0,0,0-2.5-.2,17.59,17.59,0,1,0,17.59,17.59c0-.08,0-.15,0-.23A11.56,11.56,0,0,1,106.26,264.18Z" transform="translate(14.16)"/><path class="cls-13" d="M45.4,262.94a61.05,61.05,0,0,1,9.89-9.72,71.29,71.29,0,0,1,11.76-7.58,63.63,63.63,0,0,1,13.19-5,60.64,60.64,0,0,1,14.08-1.8c1.19,0,2.38,0,3.57.11l3.54.33a58.67,58.67,0,0,1,7,1.35,69.76,69.76,0,0,1,6.76,2.14l3.24,1.39,1.61.73,1.55.84a76.22,76.22,0,0,1,21.72,17.23,112.39,112.39,0,0,0-23.14-14.26l-1.53-.69-1.58-.58-3.13-1.18a74.94,74.94,0,0,0-13-2.88l-3.31-.25c-1.1-.09-2.21,0-3.31-.06a65.71,65.71,0,0,0-25.89,5.57,89.21,89.21,0,0,0-12,6.29A90.51,90.51,0,0,0,45.4,262.94Z" transform="translate(14.16)"/><rect class="cls-13" x="52.98" y="260.93" width="80.68" height="2.88" transform="translate(-144.03 142.83) rotate(-45)"/><rect class="cls-16" x="188.62" y="24.74" width="138.79" height="88.29"/><rect class="cls-2" x="188.62" y="24.74" width="138.79" height="11.01"/><circle class="cls-17" cx="195.71" cy="30.5" r="2.52"/><path class="cls-17" d="M192.55,30.5A2.52,2.52,0,1,1,190,28,2.52,2.52,0,0,1,192.55,30.5Z" transform="translate(14.16)"/><circle class="cls-17" cx="212.68" cy="30.5" r="2.52"/><rect class="cls-16" x="176.25" y="45.35" width="138.79" height="88.29"/><rect class="cls-2" x="176.25" y="45.35" width="138.79" height="11.01"/><circle class="cls-7" cx="183.34" cy="51.11" r="2.52"/><path class="cls-5" d="M180.18,51.11a2.52,2.52,0,1,1-2.52-2.52A2.52,2.52,0,0,1,180.18,51.11Z" transform="translate(14.16)"/><circle class="cls-13" cx="200.31" cy="51.11" r="2.52"/><path class="cls-7" d="M256.6,120h-50c-2.81,0-5-1.12-6.1-3.09s-.79-4.44.75-6.8h0l24.34-37.3a6.82,6.82,0,0,1,12,0L262,110.11c1.54,2.36,1.81,4.84.75,6.8S259.42,120,256.6,120Zm-50.91-7c-.54.84-.55,1.32-.52,1.41a2.39,2.39,0,0,0,1.45.31h50a2.28,2.28,0,0,0,1.47-.33,2.37,2.37,0,0,0-.54-1.39L233.19,75.7a1.64,1.64,0,0,0-3.15,0Z" transform="translate(14.16)"/><path class="cls-7" d="M230.08,109.89a2.16,2.16,0,0,1,0-3,2.06,2.06,0,0,1,1.5-.61,2.12,2.12,0,0,1,1.51.61,2.11,2.11,0,0,1,0,3,2.11,2.11,0,0,1-1.51.6A2.05,2.05,0,0,1,230.08,109.89Zm-1.24-24.82h5.55l-1,17.77h-3.49Z" transform="translate(14.16)"/><path class="cls-5" d="M383.83,41a30.52,30.52,0,0,0-47.12,38.09q-1.53,6-3.08,12a2.6,2.6,0,0,0,3.17,3.17l13.46-3.41A30.52,30.52,0,0,0,383.83,41Zm3.4,28.08a25.7,25.7,0,0,1-14.12,17,25.5,25.5,0,0,1-18.92.84c-1.6-.55-3-1.56-4.75-1.16-3.26.75-6.5,1.6-9.74,2.45.35-1.38.71-2.75,1.06-4.13s.77-2.88,1.11-4.33a3.17,3.17,0,0,0-.16-2.36c-.79-1.49-1.77-2.83-2.45-4.39a25.4,25.4,0,1,1,48-3.9Z" transform="translate(14.16)"/><path class="cls-18" d="M362.56,45.88A17.08,17.08,0,1,0,379.64,63,17.1,17.1,0,0,0,362.56,45.88ZM350.51,63a12.07,12.07,0,0,1,12.05-12.05,11.84,11.84,0,0,1,6.55,2L352.46,69.51A11.84,11.84,0,0,1,350.51,63ZM362.56,75A12,12,0,0,1,356,73.07l16.66-16.66A11.93,11.93,0,0,1,374.61,63,12.06,12.06,0,0,1,362.56,75Z" transform="translate(14.16)"/><path class="cls-5" d="M439.77,139.8A23.08,23.08,0,0,0,437,137a31.22,31.22,0,0,0-2.75-2.12,30.25,30.25,0,0,0-5.5-3,29.39,29.39,0,0,0-27.51,3,29.8,29.8,0,0,0-2.74,2.1,22.71,22.71,0,0,0-2.78,2.79l-.64.78.64.77a22.53,22.53,0,0,0,2.77,2.78,33.41,33.41,0,0,0,2.76,2.12,29.51,29.51,0,0,0,5.5,2.94,29,29,0,0,0,11,2.15h0a29.26,29.26,0,0,0,11-2.12,29.78,29.78,0,0,0,5.51-3,29.14,29.14,0,0,0,2.74-2.11,23.63,23.63,0,0,0,2.78-2.8l.63-.77Zm-4.37,2.55a28,28,0,0,1-2.52,1.93,26.83,26.83,0,0,1-15.14,4.63,27,27,0,0,1-10.1-2,28.06,28.06,0,0,1-7.57-4.62c-.49-.43-1.14-1-1.82-1.72a23.93,23.93,0,0,1,1.83-1.73A27.34,27.34,0,0,1,402.6,137a27,27,0,0,1,15.17-4.65,26.45,26.45,0,0,1,10.06,1.93,27,27,0,0,1,7.57,4.63,22.45,22.45,0,0,1,1.83,1.74A24.21,24.21,0,0,1,435.4,142.35Z" transform="translate(14.16)"/><path class="cls-5" d="M424.5,139.08l-1.22.68a3.2,3.2,0,0,1-1.51.39,3.13,3.13,0,0,1-3.13-3.12,3,3,0,0,1,.62-1.85l.83-1.13-1.39-.2a6.88,6.88,0,0,0-1-.07,6.79,6.79,0,1,0,6.78,6.79v-.09Z" transform="translate(14.16)"/><rect class="cls-7" x="398.44" y="139.66" width="38.59" height="1.82" transform="translate(37.12 336.55) rotate(-45)"/><path class="cls-13" d="M86.15,87.89a6.38,6.38,0,0,0-2.51.48,10.7,10.7,0,0,0-1.89-4.55,6.42,6.42,0,0,0,2.11-1.43c1.6-1.6,2.18-3.6,1.31-4.47s-2.87-.28-4.46,1.31a6.42,6.42,0,0,0-1.43,2.11,10.74,10.74,0,0,0-4.55-1.88A6.61,6.61,0,0,0,75.2,77c0-2.26-1-4.08-2.23-4.08S70.74,74.69,70.74,77a6.42,6.42,0,0,0,.47,2.51,10.69,10.69,0,0,0-4.55,1.88,6.42,6.42,0,0,0-1.43-2.11c-1.6-1.59-3.6-2.18-4.47-1.31s-.28,2.87,1.31,4.47a6.42,6.42,0,0,0,2.11,1.43,10.69,10.69,0,0,0-1.88,4.55,6.42,6.42,0,0,0-2.51-.48c-2.26,0-4.08,1-4.08,2.24s1.82,2.23,4.08,2.23a6.61,6.61,0,0,0,2.51-.47,10.8,10.8,0,0,0,1.88,4.55,6.42,6.42,0,0,0-2.11,1.43c-1.59,1.59-2.18,3.59-1.31,4.46s2.87.29,4.47-1.31a6.42,6.42,0,0,0,1.43-2.11,10.7,10.7,0,0,0,4.55,1.89,6.37,6.37,0,0,0-.47,2.5c0,2.26,1,4.09,2.23,4.09s2.23-1.83,2.23-4.09a6.55,6.55,0,0,0-.47-2.5,10.76,10.76,0,0,0,4.55-1.89A6.42,6.42,0,0,0,80.71,101c1.59,1.6,3.59,2.18,4.46,1.31s.29-2.87-1.31-4.46a6.42,6.42,0,0,0-2.11-1.43,10.81,10.81,0,0,0,1.89-4.55,6.57,6.57,0,0,0,2.51.47c2.25,0,4.08-1,4.08-2.23S88.4,87.89,86.15,87.89ZM73,97.24a7.12,7.12,0,1,1,7.11-7.11A7.11,7.11,0,0,1,73,97.24Z" transform="translate(14.16)"/><path class="cls-13" d="M121.48,63.87a9.35,9.35,0,0,0-3.63-.73,15.68,15.68,0,0,0-.08-7.15,9.17,9.17,0,0,0,3.62-.78c3-1.28,4.89-3.66,4.18-5.31s-3.71-1.94-6.72-.65a9.19,9.19,0,0,0-3.07,2.07,15.59,15.59,0,0,0-5.11-5,9.43,9.43,0,0,0,2-3.12c1.22-3,.86-6-.8-6.71s-4,1.25-5.22,4.29a9.48,9.48,0,0,0-.72,3.63,15.54,15.54,0,0,0-7.15.08A9.31,9.31,0,0,0,98,40.86c-1.28-3-3.66-4.89-5.31-4.19S90.75,40.39,92,43.4a9.33,9.33,0,0,0,2.06,3.07,15.57,15.57,0,0,0-5,5.11,9.27,9.27,0,0,0-3.12-2c-3-1.22-6-.87-6.71.79s1.25,4,4.29,5.22a9.32,9.32,0,0,0,3.63.73,15.68,15.68,0,0,0,.07,7.15,9.13,9.13,0,0,0-3.61.78c-3,1.28-4.89,3.66-4.19,5.3s3.71,2,6.73.66a9.3,9.3,0,0,0,3.07-2.07,15.56,15.56,0,0,0,5.1,5,9.41,9.41,0,0,0-2,3.12c-1.22,3-.87,6,.79,6.71s4-1.25,5.22-4.29a9.11,9.11,0,0,0,.72-3.63,15.54,15.54,0,0,0,7.15-.08A9.34,9.34,0,0,0,107,78.6c1.28,3,3.66,4.89,5.3,4.19s1.94-3.72.66-6.73A9.34,9.34,0,0,0,110.93,73a15.6,15.6,0,0,0,5-5.11,9.17,9.17,0,0,0,3.12,2c3,1.22,6,.87,6.71-.79S124.52,65.09,121.48,63.87ZM98.66,69.32a10.34,10.34,0,1,1,13.44-5.73A10.34,10.34,0,0,1,98.66,69.32Z" transform="translate(14.16)"/><path class="cls-19" d="M320.25,94a2.06,2.06,0,1,1-2.06-2.07A2.06,2.06,0,0,1,320.25,94Z" transform="translate(14.16)"/><path class="cls-10" d="M282.2,313c-.89,1.35-.9,2.14-.85,2.27a3.77,3.77,0,0,0,2.35.51h80.78a3.69,3.69,0,0,0,2.37-.53A3.92,3.92,0,0,0,366,313l-39.34-60.28a2.65,2.65,0,0,0-5.1,0Z" transform="translate(14.16)"/><path class="cls-7" d="M364.48,324.35H283.7c-4.55,0-8.15-1.82-9.87-5s-1.28-7.18,1.21-11h0l39.35-60.28c2.41-3.69,5.94-5.8,9.7-5.8s7.29,2.11,9.7,5.8l39.35,60.28c2.48,3.82,2.93,7.82,1.21,11S369,324.35,364.48,324.35ZM282.2,313c-.89,1.35-.9,2.14-.85,2.27a3.77,3.77,0,0,0,2.35.51h80.78a3.69,3.69,0,0,0,2.37-.53A3.92,3.92,0,0,0,366,313l-39.34-60.28a2.65,2.65,0,0,0-5.1,0Z" transform="translate(14.16)"/><path class="cls-7" d="M321.61,308a3.4,3.4,0,0,1,2.42-5.82,3.4,3.4,0,0,1,2.45,1,3.4,3.4,0,0,1,0,4.84,3.39,3.39,0,0,1-2.45,1A3.3,3.3,0,0,1,321.61,308Zm-2-40.11h9l-1.67,28.71h-5.64Z" transform="translate(14.16)"/><path class="cls-15" d="M352.28,188.15c.16,0,.36-.05.61-.07l.56,0,.51,0c.21,0,.43,0,.64.05l-.5,2.25-.13,0c0,.35.06.74.08,1.19l.06,1.32c0,.45,0,.84,0,1.18v2.46l-.47.06h-.87a3.8,3.8,0,0,1-.5-.06Zm2.43,4c-.14-.31-.26-.63-.39-.93s-.22-.58-.3-.82l-.92-1,1.5-1.22,1.9,4.42c.16.36.31.71.44,1l.34.84,1,1.08-1.62,1.07Zm4.29-4v8.42l-.38.05-.46,0h-.85l-.65-.06.52-2.13.15-.05c0-.38-.06-.8-.09-1.26s0-.9-.05-1.32,0-.78,0-1.06v-1.51a1.29,1.29,0,0,1,.27-.93,1.15,1.15,0,0,1,.84-.27h.64Z" transform="translate(14.16)"/><path class="cls-15" d="M361.62,192.34A6.27,6.27,0,0,1,362,190a3.29,3.29,0,0,1,1.22-1.54,3.65,3.65,0,0,1,2.06-.55,3.92,3.92,0,0,1,1.63.32,3,3,0,0,1,1.15.9,3.93,3.93,0,0,1,.68,1.39,7.07,7.07,0,0,1,.22,1.79,6.29,6.29,0,0,1-.4,2.32,3.31,3.31,0,0,1-1.22,1.54,3.57,3.57,0,0,1-2.06.55,3.88,3.88,0,0,1-1.63-.32,2.93,2.93,0,0,1-1.15-.9,4,4,0,0,1-.67-1.39A6.71,6.71,0,0,1,361.62,192.34Zm2.07,0c0,.33,0,.66.05,1a3.84,3.84,0,0,0,.22.93,1.62,1.62,0,0,0,.49.7,1.25,1.25,0,0,0,.85.26,1.3,1.3,0,0,0,.86-.26,1.69,1.69,0,0,0,.48-.7,3.42,3.42,0,0,0,.21-.93,8.51,8.51,0,0,0,.06-1,8.22,8.22,0,0,0-.06-1,3.49,3.49,0,0,0-.21-.94,1.72,1.72,0,0,0-.48-.69,1.36,1.36,0,0,0-.86-.26,1.31,1.31,0,0,0-.85.26,1.64,1.64,0,0,0-.49.69,3.92,3.92,0,0,0-.22.94C363.71,191.68,363.69,192,363.69,192.34Z" transform="translate(14.16)"/><path class="cls-15" d="M382.42,192.34a8.9,8.9,0,0,1-.11,1.39,4.05,4.05,0,0,1-.39,1.25,3.21,3.21,0,0,1-.89,1,2.37,2.37,0,0,1-.69.36,4.67,4.67,0,0,1-.82.2,5.38,5.38,0,0,1-.76.06h-1.05l-1,0-1.05,0-.08-.08v-8.33l.08-.08,1.05,0h2.07a5.5,5.5,0,0,1,.76.07,4.45,4.45,0,0,1,.82.19,2.49,2.49,0,0,1,.69.36,3.18,3.18,0,0,1,.88,1,4.07,4.07,0,0,1,.4,1.25A8.77,8.77,0,0,1,382.42,192.34Zm-2,0a8,8,0,0,0-.06-1,3.52,3.52,0,0,0-.22-.89,1.6,1.6,0,0,0-.49-.65,1.34,1.34,0,0,0-.85-.25h-1.23v5.53h1.23a1.34,1.34,0,0,0,.85-.25,1.51,1.51,0,0,0,.49-.66,3.52,3.52,0,0,0,.22-.89A8,8,0,0,0,380.38,192.34Z" transform="translate(14.16)"/><path class="cls-15" d="M386.82,188.12c.16,0,.34,0,.57-.05l.57,0,.58,0a4.17,4.17,0,0,1,.57.06l2.66,8.31a1.73,1.73,0,0,1-.53.18,3.38,3.38,0,0,1-.6.06,1.16,1.16,0,0,1-.74-.22,1.71,1.71,0,0,1-.45-.85l-.88-3.14c-.09-.35-.2-.75-.33-1.22s-.24-.91-.35-1.32h-.07c-.05.23-.1.48-.17.76s-.14.56-.22.84l-.21.75-1.27,4.3a2.28,2.28,0,0,1-.39.06h-.45l-.5,0a2,2,0,0,1-.45-.09l-.07-.11Zm.15,6.68H385.3l.6-1.54h4l.5,1.54H387Z" transform="translate(14.16)"/><path class="cls-15" d="M392.5,189.77a3.56,3.56,0,0,1-.06-.44c0-.14,0-.27,0-.38s0-.24,0-.39a3.56,3.56,0,0,1,.06-.44h6.12a1.91,1.91,0,0,1,.07.36,2.91,2.91,0,0,1,0,.4.86.86,0,0,1-.25.69,1.28,1.28,0,0,1-.78.2H392.5Zm2.06.9v-.45c0-.14,0-.29,0-.47v-.81h2v1.28c0,.13,0,.28,0,.45v5.9a4.35,4.35,0,0,1-.52.06h-.94a4.35,4.35,0,0,1-.52-.06Z" transform="translate(14.16)"/><path class="cls-15" d="M402,188.12l.57-.05.58,0,.57,0a4,4,0,0,1,.57.06l2.66,8.31a1.56,1.56,0,0,1-.53.18,3.21,3.21,0,0,1-.6.06,1.18,1.18,0,0,1-.74-.22,1.79,1.79,0,0,1-.44-.85l-.89-3.14c-.09-.35-.2-.75-.33-1.22s-.24-.91-.35-1.32H403c0,.23-.1.48-.17.76s-.14.56-.22.84-.14.53-.21.75l-1.26,4.3a2.57,2.57,0,0,1-.4.06h-.44l-.51,0a2,2,0,0,1-.44-.09l-.08-.11Zm.15,6.68h-1.67l.6-1.54h4l.5,1.54h-3.44Z" transform="translate(14.16)"/></g></g></svg>