<svg xmlns="http://www.w3.org/2000/svg" xmlns:xlink="http://www.w3.org/1999/xlink" viewBox="0 0 459.42 361.22"><defs><style>.cls-1{fill:none;}.cls-2{fill:#c8d3fb;}.cls-3{fill:#edf1ff;}.cls-4{fill:#ecf0fd;}.cls-5{fill:#ff735e;}.cls-6{clip-path:url(#clip-path);}.cls-7{fill:#ffaba1;}.cls-8{clip-path:url(#clip-path-2);}.cls-9{fill:#ffad36;}.cls-10{fill:#ffd06e;}.cls-11{fill:#6680e1;}.cls-12{fill:#e1ecfd;}.cls-13{fill:#cddcf8;}.cls-14{fill:#f4f9ff;}.cls-15{fill:#f2f2f2;}.cls-16{fill:#ddeafd;}.cls-17{clip-path:url(#clip-path-3);}.cls-18{fill:#0044a4;opacity:0.1;}.cls-19{opacity:0.3;}.cls-20{fill:#fff;}.cls-21{clip-path:url(#clip-path-4);}.cls-22{fill:#becff4;}.cls-23{fill:#e1e7ff;}</style><clipPath id="clip-path"><path class="cls-1" d="M380.83,335.05s-10.72-48.25,56.05-62.45C436.88,272.6,442.24,325.06,380.83,335.05Z"/></clipPath><clipPath id="clip-path-2"><path class="cls-1" d="M85.32,265.07s-63.25-9.69-49.07-96.91C36.25,168.16,102.07,186.29,85.32,265.07Z"/></clipPath><clipPath id="clip-path-3"><polygon class="cls-1" points="192.18 143.11 122.33 143.11 147.49 50.76 167.02 50.76 192.18 143.11"/></clipPath><clipPath id="clip-path-4"><polygon class="cls-1" points="403.24 341.09 283.05 341.09 326.35 182.19 359.95 182.19 403.24 341.09"/></clipPath></defs><g id="Layer_2" data-name="Layer 2"><g id="Layer_1-2" data-name="Layer 1"><polygon class="cls-2" points="47.56 128.17 47.56 123.81 44.66 123.81 44.66 128.17 40.29 128.17 40.29 131.07 44.66 131.07 44.66 135.44 47.56 135.44 47.56 131.07 51.93 131.07 51.93 128.17 47.56 128.17"/><polygon class="cls-2" points="101.22 55.64 101.22 50.06 97.51 50.06 97.51 55.64 91.93 55.64 91.93 59.35 97.51 59.35 97.51 64.93 101.22 64.93 101.22 59.35 106.8 59.35 106.8 55.64 101.22 55.64"/><polygon class="cls-2" points="224.39 113.14 224.39 102.95 217.62 102.95 217.62 113.14 207.43 113.14 207.43 119.91 217.62 119.91 217.62 130.1 224.39 130.1 224.39 119.91 234.58 119.91 234.58 113.14 224.39 113.14"/><polygon class="cls-2" points="366.76 43.39 366.76 39.02 363.86 39.02 363.86 43.39 359.5 43.39 359.5 46.29 363.86 46.29 363.86 50.65 366.76 50.65 366.76 46.29 371.13 46.29 371.13 43.39 366.76 43.39"/><polygon class="cls-2" points="426.21 67.94 426.21 62.36 422.5 62.36 422.5 67.94 416.92 67.94 416.92 71.65 422.5 71.65 422.5 77.23 426.21 77.23 426.21 71.65 431.79 71.65 431.79 67.94 426.21 67.94"/><polygon class="cls-2" points="27.25 93.36 27.25 83.17 20.48 83.17 20.48 93.36 10.29 93.36 10.29 100.14 20.48 100.14 20.48 110.32 27.25 110.32 27.25 100.14 37.44 100.14 37.44 93.36 27.25 93.36"/><path class="cls-3" d="M297,1.93A1.93,1.93,0,1,1,295.09,0,1.92,1.92,0,0,1,297,1.93Z"/><circle class="cls-3" cx="159.01" cy="17.32" r="3.65"/><circle class="cls-3" cx="37.44" cy="44.84" r="3.65"/><path class="cls-3" d="M438.92,98.3A1.93,1.93,0,1,1,437,96.38,1.92,1.92,0,0,1,438.92,98.3Z"/><path class="cls-3" d="M445,261a1.93,1.93,0,1,1-1.93-1.93A1.93,1.93,0,0,1,445,261Z"/><circle class="cls-3" cx="448.33" cy="305.51" r="3.65"/><circle class="cls-3" cx="6.5" cy="175.94" r="3.65"/><path class="cls-3" d="M106.32,3.85a1.93,1.93,0,1,1-1.92-1.92A1.93,1.93,0,0,1,106.32,3.85Z"/><path class="cls-3" d="M18.36,317.91A1.93,1.93,0,1,1,16.44,316,1.92,1.92,0,0,1,18.36,317.91Z"/><ellipse class="cls-4" cx="229.71" cy="344.16" rx="229.71" ry="17.06"/><path class="cls-5" d="M380.83,335.05s-10.72-48.25,56.05-62.45C436.88,272.6,442.24,325.06,380.83,335.05Z"/><g class="cls-6"><path class="cls-7" d="M442,283.29l.09-.53a54.22,54.22,0,0,0-18.7.71c3.62-2.85,7.51-5.69,11.74-8.47l-.3-.45a166.05,166.05,0,0,0-19.1,14.61,55,55,0,0,1,4.54-18.75l-.48-.24c0,.07-3.85,7.67-4.65,19.5-2.47,2.22-4.76,4.43-6.9,6.6l-.06,0v0q-2.58,2.63-4.86,5.18c-1.44-14,2.83-23.8,2.88-23.9l-.5-.22c0,.1-4.49,10.23-2.88,24.67-1.8,2-3.45,4-5,5.94h0q-1.81,2.29-3.38,4.45a226.13,226.13,0,0,1-.43-24.73l-.54,0a222,222,0,0,0,.47,25.43,116,116,0,0,0-8.3,13.25c-2.33-11-1.63-26.12-1.62-26.28l-.55,0c0,.15-.74,15.93,1.77,27.05a58.7,58.7,0,0,0-2.62,5.62l.51.19a75.87,75.87,0,0,1,5.49-10.73c15.53-5,32.24-1.59,32.41-1.56l.11-.53c-.17,0-16.6-3.36-32.1,1.39a127.68,127.68,0,0,1,9.11-13c13.87-4.77,34.52-1.79,34.73-1.76l.08-.53c-.21,0-20.22-2.93-34.19,1.51,2.8-3.49,6.05-7.17,9.77-11,11.39-5.73,32.63-4.9,32.85-4.89l0-.55c-.2,0-20-.78-31.77,4.33a160.28,160.28,0,0,1,12.75-11.37A54,54,0,0,1,442,283.29Z"/></g><path class="cls-5" d="M85.32,265.07s-63.25-9.69-49.07-96.91C36.25,168.16,102.07,186.29,85.32,265.07Z"/><g class="cls-8"><path class="cls-7" d="M51.57,167l-.6-.37a70.36,70.36,0,0,0-7.91,22.9c-1.75-5.7-3.34-11.73-4.71-18.13l-.69.15a215.18,215.18,0,0,0,8.67,29.89C33,195,25.92,187.2,25.84,187.12l-.52.47c.07.08,7.45,8.25,21.36,14.75,1.51,4,3.1,7.82,4.72,11.43a.28.28,0,0,1,0,.09h0c1.3,2.9,2.63,5.67,4,8.3C37.81,217.31,28,207.56,27.92,207.46l-.5.5c.1.1,10.23,10.22,28.41,15,1.61,3.13,3.23,6.05,4.84,8.79v0h0q1.91,3.27,3.78,6.17a290.71,290.71,0,0,1-30-11.08l-.29.64A288.26,288.26,0,0,0,65,238.9a151,151,0,0,0,12.09,16.23c-14.37-2.36-32.28-10.29-32.47-10.37l-.28.65c.18.08,18.87,8.36,33.47,10.55a75.66,75.66,0,0,0,5.55,5.8l.47-.53A96.75,96.75,0,0,1,73.5,249.58c1.28-21.07,13.2-39.66,13.32-39.84l-.59-.39c-.12.19-11.85,18.46-13.38,39.4a167.35,167.35,0,0,1-11.47-17.12c.75-19,14-42.49,14.17-42.72l-.61-.35c-.13.23-13,23-14.2,41.95a186.52,186.52,0,0,1-8.64-16.92c-1.58-16.43,9.38-41.68,9.5-41.93l-.65-.28c-.11.24-10.33,23.78-9.68,40.36A208,208,0,0,1,43.53,191,69.71,69.71,0,0,1,51.57,167Z"/></g><path class="cls-9" d="M102.23,331.22a66.23,66.23,0,0,1-6.58-3,125.21,125.21,0,0,1-16-9.86,141.93,141.93,0,0,1-20.71-18.23,144.38,144.38,0,0,1-20.45-28,156.74,156.74,0,0,1-15.35-39.19c-.47-1.9-.9-3.81-1.31-5.73-.25-1.21,1.61-1.71,1.87-.49a159,159,0,0,0,14.26,40.38,143.23,143.23,0,0,0,19.89,29,139.46,139.46,0,0,0,20.64,19A127,127,0,0,0,95,325.68c1.75.93,3.53,1.82,5.33,2.65L102,329l.35.14.32.13.11,0c1.16.44.66,2.3-.51,1.87Z"/><path class="cls-9" d="M27.48,244.47s9.11-14.55-10.53-40C17,204.51,12.93,233.49,27.48,244.47Z"/><path class="cls-10" d="M18.79,210.57c.81,2.4,1.61,4.8,2.35,7.22s1.48,4.83,2.11,7.27,1.27,4.88,1.83,7.34c.28,1.23.54,2.46.77,3.71s.45,2.48.72,3.73a61.6,61.6,0,0,0-.87-7.56c-.43-2.51-1-5-1.66-7.44s-1.42-4.87-2.3-7.26A68.35,68.35,0,0,0,18.79,210.57Z"/><path class="cls-9" d="M34.57,262.15s-2.06-17-33.32-24.45C1.25,237.7,16.36,262.76,34.57,262.15Z"/><path class="cls-10" d="M6.5,241.25c2.14,1.36,4.27,2.73,6.37,4.13s4.18,2.83,6.2,4.33,4.06,3,6.05,4.56c1,.78,2,1.57,2.93,2.39s1.91,1.65,2.9,2.45a60.72,60.72,0,0,0-5.43-5.33c-1.91-1.67-3.92-3.23-6-4.74s-4.18-2.89-6.36-4.19A69.5,69.5,0,0,0,6.5,241.25Z"/><path class="cls-9" d="M34.8,261.65s14.71-8.86,8.68-40.41C43.48,221.24,26.79,245.28,34.8,261.65Z"/><path class="cls-10" d="M42.39,227.48c-.36,2.51-.74,5-1.17,7.5s-.87,5-1.41,7.44-1.07,4.93-1.69,7.38c-.3,1.22-.62,2.44-1,3.65s-.72,2.42-1,3.65A62.24,62.24,0,0,0,38.74,250c.74-2.43,1.34-4.9,1.88-7.38s.93-5,1.23-7.52A68.81,68.81,0,0,0,42.39,227.48Z"/><path class="cls-9" d="M48.35,285.58s-5.08-16.4-37.16-18.09C11.19,267.49,30.54,289.45,48.35,285.58Z"/><path class="cls-10" d="M17,270.05c2.35.95,4.69,1.91,7,2.92s4.63,2,6.89,3.15,4.53,2.22,6.76,3.4c1.12.59,2.22,1.19,3.31,1.83s2.18,1.28,3.3,1.89A61.12,61.12,0,0,0,38,279c-2.18-1.3-4.43-2.48-6.72-3.59s-4.62-2.1-7-3A70.21,70.21,0,0,0,17,270.05Z"/><path class="cls-9" d="M48.49,285s12.88-11.34,1.3-41.3C49.79,243.74,37.67,270.38,48.49,285Z"/><path class="cls-10" d="M49.83,250.08q.15,3.79.2,7.58c0,2.53,0,5-.06,7.57s-.17,5-.34,7.56c-.07,1.26-.17,2.52-.31,3.77s-.28,2.52-.38,3.78a61.16,61.16,0,0,0,1.33-7.49c.29-2.52.44-5.06.53-7.6s0-5.08-.14-7.61A68.52,68.52,0,0,0,49.83,250.08Z"/><path class="cls-9" d="M67.68,307.59s-9-14.62-40.49-8.27C27.19,299.32,51.39,315.77,67.68,307.59Z"/><path class="cls-10" d="M33.44,300.35c2.51.34,5,.69,7.51,1.09s5,.82,7.45,1.34,4.94,1,7.39,1.61c1.23.29,2.45.6,3.67.95s2.43.7,3.66,1A60.43,60.43,0,0,0,56,303.78c-2.44-.72-4.91-1.3-7.4-1.81s-5-.88-7.53-1.16A71.24,71.24,0,0,0,33.44,300.35Z"/><path class="cls-9" d="M67.68,307s9.65-14.19-9-40.33C58.66,266.71,53.55,295.52,67.68,307Z"/><path class="cls-10" d="M60.28,272.84c.72,2.43,1.42,4.85,2.07,7.3s1.3,4.88,1.83,7.34,1.09,4.93,1.56,7.41c.24,1.24.45,2.48.63,3.73s.36,2.5.58,3.75a62.09,62.09,0,0,0-.59-7.58c-.34-2.52-.82-5-1.37-7.49s-1.24-4.93-2-7.34A68.44,68.44,0,0,0,60.28,272.84Z"/><path class="cls-9" d="M89.25,324s-11.37-12.86-41.31-1.22C47.94,322.78,74.6,334.85,89.25,324Z"/><path class="cls-10" d="M54.28,322.73c2.53-.1,5.06-.18,7.58-.21s5,0,7.57,0,5,.16,7.56.32c1.26.08,2.52.18,3.78.31s2.51.27,3.77.37a63.07,63.07,0,0,0-7.49-1.31c-2.52-.29-5.06-.44-7.6-.52s-5.08,0-7.61.16A68.54,68.54,0,0,0,54.28,322.73Z"/><path class="cls-9" d="M89.16,323.46s7.08-15.64-15.79-38.19C73.37,285.27,73.27,314.53,89.16,323.46Z"/><path class="cls-10" d="M76,291c1.13,2.27,2.24,4.54,3.3,6.83s2.11,4.59,3.06,6.93,1.91,4.67,2.79,7c.45,1.18.88,2.37,1.27,3.57s.77,2.4,1.21,3.6a60.91,60.91,0,0,0-1.88-7.38c-.76-2.42-1.67-4.79-2.63-7.14s-2.07-4.64-3.26-6.89A67.31,67.31,0,0,0,76,291Z"/><path class="cls-9" d="M353.58,306.26a62.11,62.11,0,0,0,6.39-3.41A124.46,124.46,0,0,0,375.36,292a141.63,141.63,0,0,0,19.57-19.45,144.59,144.59,0,0,0,18.72-29.17,157.22,157.22,0,0,0,12.94-40q.53-2.9,1-5.8c.18-1.22-1.71-1.61-1.89-.38a159,159,0,0,1-11.79,41.17,143.23,143.23,0,0,1-18.1,30.12,140.57,140.57,0,0,1-19.44,20.26,127.29,127.29,0,0,1-15.86,11.56c-1.69,1-3.41,2-5.17,3l-1.58.81c.27-.14-.22.1-.34.16l-.32.15-.1.05c-1.13.5-.52,2.33.62,1.82Z"/><path class="cls-9" d="M422.94,215.15s-10-14,8.09-40.53C431,174.62,436.8,203.31,422.94,215.15Z"/><path class="cls-10" d="M429.56,180.79q-1,3.66-1.91,7.34c-.59,2.46-1.18,4.91-1.66,7.39s-1,4.95-1.38,7.44c-.21,1.24-.4,2.49-.55,3.74s-.3,2.51-.49,3.77a60.29,60.29,0,0,1,.41-7.6c.28-2.52.71-5,1.2-7.52s1.13-4.95,1.86-7.38A70.2,70.2,0,0,1,429.56,180.79Z"/><path class="cls-9" d="M416.93,233.22s1-17.13,31.78-26.42C448.71,206.8,435.15,232.74,416.93,233.22Z"/><path class="cls-10" d="M443.68,210.67c-2.05,1.48-4.09,3-6.1,4.51s-4,3.07-5.93,4.7-3.87,3.23-5.76,4.91c-.94.83-1.87,1.69-2.78,2.57s-1.81,1.76-2.75,2.62a60.62,60.62,0,0,1,5.1-5.65c1.8-1.79,3.71-3.47,5.66-5.09s4-3.14,6.09-4.58A70.73,70.73,0,0,1,443.68,210.67Z"/><path class="cls-9" d="M416.67,232.74s-15.22-8-11.11-39.81C405.56,192.93,423.68,215.92,416.67,232.74Z"/><path class="cls-10" d="M407,199.1c.51,2.48,1,5,1.62,7.41s1.17,4.91,1.86,7.34,1.37,4.86,2.13,7.26c.37,1.21.77,2.4,1.2,3.59s.87,2.37,1.27,3.58a60.75,60.75,0,0,1-3.07-7c-.89-2.38-1.64-4.81-2.33-7.25s-1.23-4.93-1.68-7.43A71.05,71.05,0,0,1,407,199.1Z"/><path class="cls-9" d="M404.6,257.45s4.08-16.68,36-20.31C440.59,237.14,422.61,260.23,404.6,257.45Z"/><path class="cls-10" d="M435,240.05c-2.29,1.09-4.56,2.19-6.81,3.34s-4.49,2.31-6.68,3.56-4.39,2.49-6.55,3.8c-1.08.65-2.14,1.33-3.19,2s-2.1,1.41-3.18,2.09a60.44,60.44,0,0,1,6-4.65c2.1-1.43,4.28-2.74,6.49-4s4.49-2.38,6.8-3.41A69.39,69.39,0,0,1,435,240.05Z"/><path class="cls-9" d="M404.43,256.92s-13.55-10.54-3.81-41.15C400.62,215.77,414.33,241.63,404.43,256.92Z"/><path class="cls-10" d="M401,222.1c.06,2.54.14,5.06.26,7.58s.27,5,.52,7.56.48,5,.79,7.52c.16,1.25.33,2.5.54,3.75s.44,2.49.61,3.75a62.74,62.74,0,0,1-1.78-7.4c-.44-2.5-.75-5-1-7.55s-.33-5.07-.33-7.61A71.36,71.36,0,0,1,401,222.1Z"/><path class="cls-9" d="M386.64,280.59s8.1-15.14,39.92-10.71C426.56,269.88,403.39,287.76,386.64,280.59Z"/><path class="cls-10" d="M420.38,271.29c-2.49.49-5,1-7.43,1.54s-4.93,1.12-7.36,1.79-4.87,1.32-7.28,2.06c-1.21.36-2.41.74-3.6,1.16s-2.38.85-3.6,1.23a62.71,62.71,0,0,1,7-3c2.39-.86,4.82-1.59,7.27-2.25s4.94-1.18,7.44-1.61A71.22,71.22,0,0,1,420.38,271.29Z"/><path class="cls-9" d="M386.61,280s-10.5-13.58,6.55-40.8C393.16,239.24,400,267.69,386.61,280Z"/><path class="cls-10" d="M391.92,245.45c-.57,2.47-1.13,4.94-1.63,7.41s-1,4.95-1.38,7.45-.79,5-1.1,7.48c-.17,1.25-.3,2.51-.41,3.77s-.2,2.51-.35,3.78a60.41,60.41,0,0,1,.13-7.61c.18-2.53.52-5.05.92-7.56s.94-5,1.57-7.45A70.26,70.26,0,0,1,391.92,245.45Z"/><path class="cls-9" d="M366.1,298.28s10.57-13.53,41.16-3.73C407.26,294.55,381.38,308.22,366.1,298.28Z"/><path class="cls-10" d="M400.93,294.89q-3.8.08-7.58.25c-2.52.13-5,.26-7.55.5s-5,.47-7.53.78c-1.25.15-2.5.32-3.75.53s-2.49.43-3.75.6a62.66,62.66,0,0,1,7.4-1.76c2.51-.44,5-.74,7.56-1s5.07-.32,7.61-.31A66.41,66.41,0,0,1,400.93,294.89Z"/><path class="cls-9" d="M366.16,297.73s-8-15.18,13.44-39.08C379.6,258.65,381.48,287.86,366.16,297.73Z"/><path class="cls-10" d="M377.32,264.56c-1,2.34-2,4.67-2.88,7s-1.82,4.7-2.63,7.09-1.63,4.78-2.37,7.19c-.37,1.21-.72,2.42-1,3.64s-.63,2.45-1,3.67a61.25,61.25,0,0,1,1.42-7.48c.62-2.46,1.38-4.89,2.2-7.29s1.78-4.76,2.83-7.07A69.72,69.72,0,0,1,377.32,264.56Z"/><rect class="cls-11" x="72.72" y="143.11" width="313.98" height="197.98" rx="8"/><rect class="cls-12" x="100.84" y="155.78" width="257.73" height="172.64"/><path class="cls-13" d="M283.53,216.91H248.08V181.18H175.75V305.51H283.67V217.06Zm-51.91,57.4a6.79,6.79,0,0,1-4.89,1.95,6.63,6.63,0,0,1-4.88-1.95,7,7,0,0,1,0-9.65,6.71,6.71,0,0,1,4.88-1.91,6.79,6.79,0,0,1,4.89,1.95,6.72,6.72,0,0,1,0,9.61ZM245.46,243a25.44,25.44,0,0,1-5.73,5.18q-2.72,2-4,3a7.25,7.25,0,0,0-1.87,2.39,7.63,7.63,0,0,0-.62,3.23v1.39H220.35v-1.54a13.47,13.47,0,0,1,5.94-11.67l1.91-1.32a21.85,21.85,0,0,0,3.78-2.9,4,4,0,0,0,1.07-2.83c0-2.84-2.38-4.26-7.12-4.26a28.45,28.45,0,0,0-6.83.88,31.13,31.13,0,0,0-6.68,2.5V225.82a36.06,36.06,0,0,1,15.12-3.08q9,0,14.32,3.78A12.16,12.16,0,0,1,247.14,237,10.07,10.07,0,0,1,245.46,243Z"/><polygon class="cls-13" points="254.11 184.35 254.11 210.82 280.36 210.82 254.11 184.35"/><rect class="cls-14" x="56.38" y="220.5" width="163.48" height="120.59"/><rect class="cls-13" x="56.38" y="220.5" width="163.48" height="15.04"/><path class="cls-5" d="M69.5,228.37a3.44,3.44,0,1,1-3.44-3.45A3.44,3.44,0,0,1,69.5,228.37Z"/><path class="cls-9" d="M81.09,228.37a3.44,3.44,0,1,1-3.44-3.45A3.44,3.44,0,0,1,81.09,228.37Z"/><path class="cls-11" d="M92.68,228.37a3.44,3.44,0,1,1-3.44-3.45A3.44,3.44,0,0,1,92.68,228.37Z"/><path class="cls-13" d="M205.53,287.79a67.75,67.75,0,0,0-8.43-7.05,93,93,0,0,0-8.42-5.37,97.75,97.75,0,0,0-16.75-7.44,103.57,103.57,0,0,0-33.36-5.33h-.08a104.77,104.77,0,0,0-33.42,5.4,97.81,97.81,0,0,0-16.78,7.45,92.43,92.43,0,0,0-8.35,5.29,68.77,68.77,0,0,0-8.47,7.05l-1.91,1.85,1.91,1.85a69.23,69.23,0,0,0,8.43,7,93.6,93.6,0,0,0,8.42,5.35,98.13,98.13,0,0,0,16.74,7.42,104.66,104.66,0,0,0,33.44,5.4h.08a103.17,103.17,0,0,0,33.34-5.33,97.3,97.3,0,0,0,16.8-7.45,93.45,93.45,0,0,0,8.34-5.32,67.46,67.46,0,0,0,8.47-7.09l1.89-1.84Zm-67,19.94a18.1,18.1,0,1,1,7.71-34.45,7,7,0,1,0,9.36,10.39,18,18,0,0,1-17.07,24.06Z"/><path class="cls-5" d="M138.12,248.08a41.56,41.56,0,1,0,41.56,41.56A41.6,41.6,0,0,0,138.12,248.08Zm0,7.84A33.55,33.55,0,0,1,159,263.2l-47.33,47.33a33.69,33.69,0,0,1,26.44-54.61Zm0,67.44a33.53,33.53,0,0,1-20.9-7.29l47.33-47.33a33.69,33.69,0,0,1-26.43,54.62Z"/><rect class="cls-15" x="249.59" y="84.19" width="153.44" height="113.19"/><rect class="cls-16" x="249.59" y="84.19" width="153.44" height="14.12"/><path class="cls-5" d="M261.91,91.57a3.23,3.23,0,1,1-3.23-3.23A3.23,3.23,0,0,1,261.91,91.57Z"/><circle class="cls-9" cx="269.56" cy="91.57" r="3.23"/><circle class="cls-11" cx="280.44" cy="91.57" r="3.23"/><polygon class="cls-9" points="192.18 143.11 122.33 143.11 147.49 50.76 167.02 50.76 192.18 143.11"/><g class="cls-17"><rect class="cls-10" x="101.21" y="89.5" width="112.09" height="10.73"/><rect class="cls-10" x="101.21" y="116" width="112.09" height="10.73"/><rect class="cls-10" x="101.21" y="63.01" width="112.09" height="10.73"/></g><path class="cls-18" d="M192.18,143.11,167,50.76h-9.26c7.53,13.06,12,29.63,12,47.66,0,16.69-3.86,32.13-10.41,44.69Z"/><rect class="cls-5" x="115.09" y="137.2" width="84.33" height="5.91"/><g class="cls-19"><path class="cls-20" d="M149.87,58.72l-6.54,24Q138.11,101.88,132.9,121c-.79,2.92-1.59,5.83-2.38,8.75a1.73,1.73,0,0,0,3.34.92l6.54-24q5.22-19.12,10.43-38.27c.79-2.91,1.59-5.82,2.38-8.74a1.73,1.73,0,0,0-3.34-.92Z"/></g><polygon class="cls-9" points="403.24 341.09 283.05 341.09 326.35 182.19 359.95 182.19 403.24 341.09"/><g class="cls-21"><rect class="cls-10" x="246.71" y="248.85" width="192.87" height="18.47"/><rect class="cls-10" x="246.71" y="294.43" width="192.87" height="18.47"/><rect class="cls-10" x="246.71" y="203.26" width="192.87" height="18.47"/></g><path class="cls-18" d="M403.24,341.09,360,182.19H344c13,22.47,20.71,51,20.71,82,0,28.72-6.65,55.28-17.91,76.9Z"/><rect class="cls-5" x="270.59" y="330.93" width="145.11" height="10.16"/><g class="cls-19"><path class="cls-20" d="M330.44,195.88q-5.62,20.67-11.26,41.34l-17.94,65.85q-2.06,7.51-4.1,15c-1,3.7,4.73,5.29,5.74,1.59q5.63-20.68,11.26-41.35l17.94-65.84q2.06-7.51,4.1-15c1-3.71-4.73-5.29-5.74-1.59Z"/></g><rect class="cls-5" x="337.28" y="42.8" width="4.3" height="61.08" transform="translate(189.91 386.76) rotate(-76.69)"/><rect class="cls-11" x="353.15" y="63.24" width="7.16" height="28.39" transform="translate(199.24 406.75) rotate(-76.69)"/><circle class="cls-11" cx="299.75" cy="61.75" r="22.37" transform="translate(-1.1 5.62) rotate(-1.07)"/><circle class="cls-22" cx="299.75" cy="61.75" r="17.48" transform="translate(14.49 172.61) rotate(-32.88)"/><path class="cls-20" d="M310.54,55.21a5.56,5.56,0,1,1-4.13-6.69A5.56,5.56,0,0,1,310.54,55.21Z"/><path class="cls-23" d="M208.26,60.64A9.41,9.41,0,0,1,214.59,54l1.54-.5a16,16,0,0,0,3.12-1.18,2.81,2.81,0,0,0,1.28-1.68q.85-2.86-3.91-4.29a19.9,19.9,0,0,0-4.76-.78,21.62,21.62,0,0,0-5,.33l2.27-7.58a25.24,25.24,0,0,1,10.75,1q6.06,1.82,8.83,5.41a8.47,8.47,0,0,1,1.44,8.07,7,7,0,0,1-2.35,3.72A17.52,17.52,0,0,1,223,58.84c-1.48.52-2.57.93-3.27,1.24A5,5,0,0,0,218,61.3a5.32,5.32,0,0,0-1.07,2l-.28.94L208,61.68Zm-2.53,12.09a4.59,4.59,0,0,1-.34-3.62,4.51,4.51,0,0,1,2.28-2.85,4.69,4.69,0,0,1,3.65-.3,4.76,4.76,0,0,1,2.88,2.29,4.71,4.71,0,0,1-1.93,6.44,4.74,4.74,0,0,1-3.66.32A4.6,4.6,0,0,1,205.73,72.73Z"/><path class="cls-23" d="M83.11,99.66a9.45,9.45,0,0,1,.86,9.13l-.64,1.49a15.5,15.5,0,0,0-1.15,3.13,2.83,2.83,0,0,0,.43,2.07c1.06,1.68,3,1.63,5.8-.15a19.58,19.58,0,0,0,3.71-3.08,21.69,21.69,0,0,0,3-4L99.36,115a25.17,25.17,0,0,1-7.78,7.49c-3.55,2.25-6.85,3.3-9.87,3.13a8.51,8.51,0,0,1-7-4.21,6.94,6.94,0,0,1-1.27-4.21,17.88,17.88,0,0,1,1.44-5.2c.58-1.46,1-2.55,1.21-3.28a5.19,5.19,0,0,0,.21-2.11,5.45,5.45,0,0,0-.84-2.15l-.52-.82,7.63-4.84Zm-7.48-9.82a4.87,4.87,0,0,1,3.62,5.7,5,5,0,0,1-5.78,3.63,4.69,4.69,0,0,1-3.6-5.68,4.75,4.75,0,0,1,2.15-3A4.6,4.6,0,0,1,75.63,89.84Z"/><path class="cls-23" d="M419.75,140.61a6.71,6.71,0,0,1,4.5-4.71l1.09-.35a10.88,10.88,0,0,0,2.22-.84,2,2,0,0,0,.91-1.19c.4-1.35-.52-2.37-2.78-3.05a14,14,0,0,0-3.38-.55,15.35,15.35,0,0,0-3.53.23l1.61-5.38a17.78,17.78,0,0,1,7.64.69,11.91,11.91,0,0,1,6.27,3.85,6,6,0,0,1,1,5.73,5,5,0,0,1-1.66,2.64,12.64,12.64,0,0,1-3.47,1.65c-1.05.37-1.82.66-2.32.88a3.5,3.5,0,0,0-1.23.87,3.62,3.62,0,0,0-.76,1.45l-.2.66-6.15-1.84ZM418,149.2a3.28,3.28,0,0,1-.24-2.57,3.24,3.24,0,0,1,1.62-2A3.55,3.55,0,0,1,424,146a3.19,3.19,0,0,1,.28,2.58,3.15,3.15,0,0,1-1.65,2,3.36,3.36,0,0,1-2.6.23A3.3,3.3,0,0,1,418,149.2Z"/><path class="cls-16" d="M23.71,150.48a1.93,1.93,0,1,1-1.92-1.93A1.92,1.92,0,0,1,23.71,150.48Z"/><path class="cls-5" d="M284.85,157.81a14,14,0,0,1-1.23-2.56,7.12,7.12,0,0,1-.51-2.46,5.14,5.14,0,0,1,.34-1.79c.22-.63.43-1.16.62-1.61l8.5-19a9.58,9.58,0,0,1,2.66-.09,12.51,12.51,0,0,1,2.81.59A4.28,4.28,0,0,1,300,132l-3.49,7.85c-.41,1-.95,2.14-1.61,3.57s-1.36,2.85-2.1,4.26a29,29,0,0,1-2.11,3.47l.16.26q1.07-.13,2.52-.21l2.7-.13,1.66,0H304c.66,0,1.15,0,1.46,0l1.5,0h1.41a10.19,10.19,0,0,1,.15,1.45c0,.49,0,1,0,1.46s0,1.15-.1,1.84a9.62,9.62,0,0,1-.39,1.95h-11.8c-.68,0-1.31,0-1.91.05s-1.25.06-1.94.06Zm11.3,3.66c0-.69,0-1.33,0-1.91s0-1.2,0-1.86v-5.35c0-.19,0-.56,0-1.12s0-.94,0-1.17v-1.69a7.1,7.1,0,0,1,1.47-4.71,5.11,5.11,0,0,1,4.15-1.76h1.87l.36.37v5c0,.69,0,1.32,0,1.89s0,1.19,0,1.85v6.65q0,1,0,1.86c0,.58,0,1.22,0,1.91v2.18a19.46,19.46,0,0,1-2.06.24c-.67,0-1.3.05-1.89.05s-1.18,0-1.84-.05a19.46,19.46,0,0,1-2.06-.24Z"/><path class="cls-5" d="M314.27,147.2a45.07,45.07,0,0,1,.62-7.7,12.35,12.35,0,0,1,3-6.23,13.46,13.46,0,0,1,3.46-2.35,14.62,14.62,0,0,1,10.21,0,13.47,13.47,0,0,1,3.43,2.35,12.41,12.41,0,0,1,3,6.23,46.52,46.52,0,0,1,0,15.38,12.52,12.52,0,0,1-3,6.25,13,13,0,0,1-3.43,2.35,14.48,14.48,0,0,1-10.21,0,13,13,0,0,1-3.46-2.35,12.68,12.68,0,0,1-3-6.25A43.89,43.89,0,0,1,314.27,147.2Zm8.31,0c0,2.31.08,4.22.23,5.75a11.42,11.42,0,0,0,.71,3.4,2.8,2.8,0,0,0,1.22,1.46,3.63,3.63,0,0,0,1.74.44,3.74,3.74,0,0,0,1.8-.43,2.59,2.59,0,0,0,1.17-1.47,14,14,0,0,0,.68-3.4,66.6,66.6,0,0,0,0-11.53,13.79,13.79,0,0,0-.68-3.36,2.86,2.86,0,0,0-1.2-1.46,3.57,3.57,0,0,0-1.77-.44,3.63,3.63,0,0,0-1.74.44,2.8,2.8,0,0,0-1.22,1.46,14.2,14.2,0,0,0-.69,3.36A56.12,56.12,0,0,0,322.58,147.2Z"/><path class="cls-5" d="M346.18,157.81a14.74,14.74,0,0,1-1.23-2.56,7.12,7.12,0,0,1-.51-2.46,5.14,5.14,0,0,1,.34-1.79c.22-.63.43-1.16.62-1.61l8.5-19a9.58,9.58,0,0,1,2.66-.09,12.51,12.51,0,0,1,2.81.59,4.28,4.28,0,0,1,1.94,1.17l-3.49,7.85c-.41,1-.95,2.14-1.61,3.57s-1.36,2.85-2.1,4.26a29,29,0,0,1-2.11,3.47l.16.26q1.06-.13,2.52-.21l2.7-.13,1.67,0h6.23c.66,0,1.15,0,1.46,0l1.5,0h1.41a8.92,8.92,0,0,1,.15,1.45c0,.49,0,1,0,1.46a18.27,18.27,0,0,1-.1,1.84,9.62,9.62,0,0,1-.39,1.95h-11.8c-.68,0-1.31,0-1.91.05s-1.25.06-1.94.06Zm11.31,3.66c0-.69,0-1.33,0-1.91s0-1.2,0-1.86v-5.35c0-.19,0-.56,0-1.12s0-.94,0-1.17v-1.69a7.15,7.15,0,0,1,1.46-4.71,5.13,5.13,0,0,1,4.15-1.76H365l.36.37v5c0,.69,0,1.32,0,1.89s0,1.19,0,1.85v6.65q0,1,0,1.86c0,.58,0,1.22,0,1.91v2.18a19.17,19.17,0,0,1-2.06.24c-.67,0-1.3.05-1.89.05s-1.18,0-1.84-.05a19.29,19.29,0,0,1-2.05-.24Z"/></g></g></svg>