<svg xmlns="http://www.w3.org/2000/svg" viewBox="0 0 466 350"><defs><style>.cls-1{fill:#c8d3fb;}.cls-2{fill:#edf1ff;}.cls-3{fill:#ecf0fd;}.cls-4{fill:#e1e7ff;}.cls-5{fill:#ff735e;}.cls-6{fill:#8aa8f7;}.cls-7{fill:#cddcf8;}.cls-15,.cls-8{fill:#f4f9ff;}.cls-9{fill:#ffad36;}.cls-10{fill:#6680e1;}.cls-11{fill:#ffd06e;}.cls-12{fill:#0044a4;opacity:0.1;}.cls-13{fill:#f7faff;}.cls-14{fill:#fff;}.cls-15{opacity:0.3;}</style></defs><g id="Layer_2" data-name="Layer 2"><g id="Layer_1-2" data-name="Layer 1"><polygon class="cls-1" points="371.29 29.28 365.23 29.28 365.23 23.21 360.93 23.21 360.93 29.28 354.86 29.28 354.86 33.58 360.93 33.58 360.93 39.65 365.23 39.65 365.23 33.58 371.29 33.58 371.29 29.28"/><polygon class="cls-1" points="334.73 6.4 330.33 6.4 330.33 2 327.21 2 327.21 6.4 322.81 6.4 322.81 9.52 327.21 9.52 327.21 13.92 330.33 13.92 330.33 9.52 334.73 9.52 334.73 6.4"/><polygon class="cls-1" points="144.69 77.73 140.29 77.73 140.29 73.33 137.17 73.33 137.17 77.73 132.77 77.73 132.77 80.85 137.17 80.85 137.17 85.25 140.29 85.25 140.29 80.85 144.69 80.85 144.69 77.73"/><polygon class="cls-1" points="25.83 176.99 19.76 176.99 19.76 170.92 15.46 170.92 15.46 176.99 9.4 176.99 9.4 181.29 15.46 181.29 15.46 187.36 19.76 187.36 19.76 181.29 25.83 181.29 25.83 176.99"/><polygon class="cls-1" points="439.82 71.77 435.42 71.77 435.42 67.37 432.3 67.37 432.3 71.77 427.9 71.77 427.9 74.89 432.3 74.89 432.3 79.29 435.42 79.29 435.42 74.89 439.82 74.89 439.82 71.77"/><circle class="cls-2" cx="321.25" cy="39.48" r="3.79"/><circle class="cls-2" cx="385.23" cy="2" r="2"/><path class="cls-2" d="M215.3,101.72a2,2,0,1,1-2-2A2,2,0,0,1,215.3,101.72Z"/><path class="cls-2" d="M416.28,35.36a3.79,3.79,0,1,1-3.79-3.79A3.79,3.79,0,0,1,416.28,35.36Z"/><path class="cls-2" d="M184.7,68.13a2,2,0,1,1-2-2A2,2,0,0,1,184.7,68.13Z"/><path class="cls-2" d="M127.64,4a2,2,0,1,1-2-2A2,2,0,0,1,127.64,4Z"/><path class="cls-2" d="M41.69,121.88a3.8,3.8,0,1,1-3.79-3.79A3.79,3.79,0,0,1,41.69,121.88Z"/><circle class="cls-2" cx="141.06" cy="154.97" r="3.79"/><circle class="cls-2" cx="44.04" cy="23.79" r="3.79"/><path class="cls-2" d="M5.19,208.88a2,2,0,1,1-2-2A2,2,0,0,1,5.19,208.88Z"/><path class="cls-2" d="M445.43,278.33a2,2,0,1,1-2-2A2,2,0,0,1,445.43,278.33Z"/><ellipse class="cls-3" cx="225.19" cy="320.07" rx="224.59" ry="29.93"/><path class="cls-4" d="M422.88,149.49c12.72,3.68,30.95-5,25.9-14.79-4.22-8.22-19.35,6.3-25,12.13q1.86-5.43,3.46-11c10.87-7.47,15.85-26.8,5.12-29.24-9.19-2.08-7.53,19.79-6.68,27.44-.71,2.54-1.48,5.07-2.29,7.58,1-11.31-5-23.67-13.54-20.39-9.74,3.74,7.88,24.44,11,28l-.35,1q-2.16,5.9-4.67,11.67c1.74-11.05-3.09-23.46-11.72-21-9.85,2.78,5.05,24.26,8.2,28.62q-2.13,4.37-4.48,8.6c-1.18,2.12-2.42,4.2-3.69,6.26,3.91-11.28.21-26.24-9.26-24.36-10.24,2,3.58,25.43,6,29.42a134,134,0,0,1-9.66,12.7c5-10.93,2.65-26.45-7.05-25.36-10.11,1.12.86,24.43,3.36,29.47a105.42,105.42,0,0,1-12.71,11.47c7.07-9.68,7.86-25.22-1.8-26.14-10.06-1-4.24,23.75-2.78,29.43a90.19,90.19,0,0,1-11.46,6.58q-2.13,1-4.3,1.91c-1.17.48-.66,2.42.53,1.93a92.56,92.56,0,0,0,16.77-9.06c9.62,9.23,30.2,9.75,30.06-1.41-.11-9.17-19.82-3.09-27.58-.34A102.51,102.51,0,0,0,385.69,211c1.26-1.22,2.48-2.49,3.68-3.77,11.32,7,31.46,3.29,29.05-7.58-2-8.86-19.68.84-26.85,5.18a135.86,135.86,0,0,0,11.3-14.75c11.9,5.79,31.32.4,28-10.15-2.68-8.59-19.28,2.32-26.17,7.31q1.26-2,2.46-4c2.54-4.27,4.88-8.66,7.05-13.13,12.32,5,31.53-1.93,27.38-12.26-3.52-8.74-20.54,5-26.35,10.12q3.11-6.6,5.73-13.4C421.65,152.87,422.27,151.19,422.88,149.49Z"/><path class="cls-4" d="M43.66,238.46C43,225.24,28.84,210.84,21.2,218.83c-6.38,6.68,12.3,16.22,19.65,19.62-3.83,0-7.67.11-11.49.32C18.74,231-1.16,232.57.05,243.5c1,9.38,21.17.64,28.12-2.67,2.63-.16,5.27-.26,7.91-.32-11,2.8-20.71,12.52-14.84,19.48,6.73,8,20.52-15.46,22.83-19.53h1.07q6.28.12,12.55.6c-11,2-21.15,10.6-16,17.95,5.86,8.4,21.27-12.71,24.36-17.12q4.81.59,9.6,1.42c2.38.42,4.76.91,7.12,1.43-11.94,0-24.86,8.4-20,16.74,5.26,9,22.86-11.72,25.83-15.33a134.43,134.43,0,0,1,15.17,5c-12-1.17-25.86,6.16-21.67,15,4.38,9.18,22.81-8.81,26.75-12.82a106.16,106.16,0,0,1,15,8.25c-11.47-3.51-26.41.83-24.12,10.27,2.39,9.81,23.83-3.78,28.72-7a89.2,89.2,0,0,1,10,8.68c1.1,1.11,2.18,2.26,3.21,3.43.84.95,2.51-.17,1.65-1.14a92.6,92.6,0,0,0-14.05-12.87c5.57-12.11-.67-31.73-11.18-27.94-8.62,3.1,3.58,19.74,8.72,26.17a103.51,103.51,0,0,0-12.83-7.63c-1.57-.79-3.17-1.52-4.77-2.24,2.9-13-7.2-30.81-16.69-25-7.72,4.76,7.24,18.32,13.7,23.68a136.52,136.52,0,0,0-17.64-5.85c1.57-13.14-9.88-29.72-18.77-23.16-7.24,5.34,8.51,17.46,15.48,22.33-1.53-.36-3-.7-4.58-1-4.87-1-9.78-1.78-14.71-2.37.7-13.28-12.16-29.15-20.55-21.85-7.11,6.19,11.49,17.75,18.18,21.59q-7.25-.78-14.53-1C47.26,238.51,45.46,238.48,43.66,238.46Z"/><path class="cls-5" d="M428.79,195.51a89.29,89.29,0,0,1,9.41-4.9c15.27,2.36,27.8-6.75,27.8-6.75-17.32-5.23-25.49,2.34-28,5.4-1,.47-2,.94-3,1.43a89.49,89.49,0,0,0-13.62,8.2c9.24-10.12,10-23.33,10-23.33-16.52,11-14.13,23.31-13.4,25.91a87.38,87.38,0,0,0-10.37,9.8c6.1-13.44,1.56-27.33,1.56-27.33-11.18,16.12-4.71,26.65-3,28.95a85.84,85.84,0,0,0-6.62,8.78c-.61.92-1.17,1.87-1.74,2.81,2.73-14.28-4.64-26.56-4.64-26.56-7.16,17.79.94,26.61,3.36,28.75a96.16,96.16,0,0,0-6.43,13.9c1.83-13.5-4.93-24.77-4.93-24.77-7.3,18.15,1.28,27,3.51,28.88a110.78,110.78,0,0,0-2.95,10.89c-.18.82,1.07,1.16,1.25.34a105.33,105.33,0,0,1,5.19-17c15.69-.62,26.29-12.35,26.29-12.35-14.6-1.26-21.6,4.47-24.68,8.55a93.29,93.29,0,0,1,6.06-11.33c15.36,3,28.35-5.88,28.35-5.88-14.42-4.82-22.63-.4-26.41,2.91a84.61,84.61,0,0,1,7.92-9.94c14.84,4.79,28.75-2.4,28.75-2.4-12.44-5.94-20.75-3.71-25.29-1.15.89-.86,1.81-1.7,2.75-2.52a88.66,88.66,0,0,1,8.34-6.45c13.73,7.56,28.82,3,28.82,3C442.22,193.44,433.77,193.9,428.79,195.51Z"/><path class="cls-5" d="M39.12,288.32a89.15,89.15,0,0,1-10.59-.6c-11.93-9.83-27.35-8.4-27.35-8.4,12.21,13.35,23.11,11,26.8,9.64,1.11.13,2.23.24,3.33.33a90.89,90.89,0,0,0,15.91-.09c-13.12,4-20.56,14.93-20.56,14.93,19.82-1,24.07-12.82,24.76-15.42a89.63,89.63,0,0,0,13.93-3.13C53.23,294,50,308.27,50,308.27c17.85-8.14,17.66-20.5,17.35-23.36a86.26,86.26,0,0,0,10.18-4.16c1-.49,2-1,2.93-1.53-9.64,10.88-9.59,25.21-9.59,25.21,15.25-11.64,12.8-23.37,11.81-26.43a97.39,97.39,0,0,0,12.63-8.67c-8.47,10.67-8.42,23.81-8.42,23.81,15.55-11.87,12.68-23.85,11.74-26.62a109.11,109.11,0,0,0,8.1-7.85c.57-.61-.33-1.55-.9-.94a105.94,105.94,0,0,1-13.13,11.95c-13.81-7.49-28.91-2.83-28.91-2.83,11.9,8.55,20.85,7.2,25.59,5.27a95.33,95.33,0,0,1-11,6.64C66.75,268.32,51,269.33,51,269.33c9.93,11.5,19.25,11.9,24.19,11a87.28,87.28,0,0,1-11.89,4.5C53,273.12,37.4,272.19,37.4,272.19,45.06,283.65,53.34,286,58.56,286.1c-1.21.28-2.43.53-3.66.76a87.35,87.35,0,0,1-10.46,1.28c-7.94-13.51-23.23-17.33-23.23-17.33C26.51,283.24,34,287.16,39.12,288.32Z"/><rect class="cls-6" x="232.13" y="85.9" width="163.92" height="238.33" rx="4.4"/><rect class="cls-7" x="239.84" y="98.73" width="148.51" height="203.85"/><rect class="cls-8" x="256.89" y="113.96" width="114.4" height="172.38"/><rect class="cls-4" x="256.89" y="113.96" width="114.4" height="10.53"/><path class="cls-5" d="M266.07,119.47a2.41,2.41,0,1,1-2.41-2.41A2.4,2.4,0,0,1,266.07,119.47Z"/><path class="cls-9" d="M274.18,119.47a2.41,2.41,0,1,1-2.4-2.41A2.4,2.4,0,0,1,274.18,119.47Z"/><path class="cls-10" d="M282.3,119.47a2.41,2.41,0,1,1-2.41-2.41A2.41,2.41,0,0,1,282.3,119.47Z"/><polygon class="cls-4" points="346.94 181.89 337.27 172.21 314.09 195.39 290.91 172.21 281.24 181.89 304.42 205.06 281.24 228.24 290.91 237.92 314.09 214.74 337.27 237.92 346.94 228.24 323.77 205.06 346.94 181.89"/><rect class="cls-10" x="69" y="172.21" width="225.8" height="148.98" rx="4.15"/><rect class="cls-7" x="75.61" y="179.14" width="212.6" height="135.13"/><path class="cls-10" d="M54.33,307.55v12A4.7,4.7,0,0,0,59,324.23H304.79a4.7,4.7,0,0,0,4.69-4.69v-12Z"/><path class="cls-6" d="M144.13,307.55v3.55a1.39,1.39,0,0,0,1.39,1.39H218.3a1.39,1.39,0,0,0,1.39-1.39v-3.55Z"/><path class="cls-9" d="M418.32,298.06a7.51,7.51,0,0,1-7,5.6H344.41a7.51,7.51,0,0,1-7-5.6l-14.92-67.2a4.42,4.42,0,0,1,4.49-5.61H428.75a4.42,4.42,0,0,1,4.49,5.61Z"/><path class="cls-11" d="M392.79,233.26a8.74,8.74,0,0,0-7.67,5.41l-3.18,8.9a8.76,8.76,0,0,1-7.67,5.41H325.69a4.19,4.19,0,0,0-4.25,5.54l16.15,60.17a7.93,7.93,0,0,0,7.23,5.54h66.31a7.93,7.93,0,0,0,7.23-5.54l16.15-60.17c.81-3,2.35-8,3.41-10.95l3.19-8.9c1.06-3-.66-5.41-3.81-5.41Z"/><path class="cls-12" d="M437.3,233.26H419.4A60,60,0,0,1,422.74,253c0,34.29-28.88,62.09-64.51,62.09a66.59,66.59,0,0,1-22.67-3.95l2,7.57a7.93,7.93,0,0,0,7.23,5.54h66.31a7.93,7.93,0,0,0,7.23-5.54l16.15-60.17c.81-3,2.35-8,3.41-10.95l3.19-8.9C442.17,235.69,440.45,233.26,437.3,233.26Z"/><path class="cls-5" d="M371.29,278.33c0,3.33-1.93,6-4.32,6s-4.32-2.7-4.32-6,1.94-6,4.32-6S371.29,275,371.29,278.33Z"/><path class="cls-5" d="M400,278.33c0,3.33-1.93,6-4.32,6s-4.32-2.7-4.32-6,1.94-6,4.32-6S400,275,400,278.33Z"/><path class="cls-5" d="M371.43,295.19a14.36,14.36,0,0,1,5.6-3.63c5.19-1.88,10.2.08,14.16,3.63,1.05.95,2.62-.61,1.56-1.56-4.38-3.94-10.07-6.25-15.9-4.35a16.67,16.67,0,0,0-7,4.35c-1,1.05.6,2.62,1.56,1.56Z"/><rect class="cls-13" x="89.77" y="224.55" width="97.92" height="72.23"/><rect class="cls-4" x="89.77" y="224.55" width="97.92" height="9.01"/><path class="cls-5" d="M97.64,229.26a2.07,2.07,0,1,1-2.07-2.06A2.07,2.07,0,0,1,97.64,229.26Z"/><path class="cls-9" d="M104.58,229.26a2.07,2.07,0,1,1-2.06-2.06A2.06,2.06,0,0,1,104.58,229.26Z"/><path class="cls-10" d="M111.52,229.26a2.06,2.06,0,1,1-2.06-2.06A2.06,2.06,0,0,1,111.52,229.26Z"/><path class="cls-7" d="M133,269.44a8.16,8.16,0,0,1,3.59-7.06l1.16-.8a12.76,12.76,0,0,0,2.28-1.75,2.41,2.41,0,0,0,.65-1.71q0-2.58-4.31-2.58a16.8,16.8,0,0,0-4.13.54,18.54,18.54,0,0,0-4,1.5v-6.83a21.8,21.8,0,0,1,9.14-1.86q5.46,0,8.65,2.28a7.34,7.34,0,0,1,3.2,6.33,6.06,6.06,0,0,1-1,3.66,15.57,15.57,0,0,1-3.46,3.13c-1.1.8-1.9,1.41-2.4,1.84a4.37,4.37,0,0,0-1.13,1.44,4.61,4.61,0,0,0-.38,1.95v.85H133Zm.91,10.63a4.2,4.2,0,0,1,0-5.84,4,4,0,0,1,2.95-1.15,4.11,4.11,0,0,1,3,1.17,4.08,4.08,0,0,1,0,5.82,4.11,4.11,0,0,1-3,1.17A4,4,0,0,1,133.94,280.07Z"/><rect class="cls-8" x="174.83" y="194.61" width="97.92" height="72.23"/><rect class="cls-4" x="174.83" y="194.61" width="97.92" height="9.01"/><circle class="cls-5" cx="180.63" cy="199.33" r="2.06"/><path class="cls-9" d="M189.63,199.33a2.06,2.06,0,1,1-2.06-2.07A2.06,2.06,0,0,1,189.63,199.33Z"/><circle class="cls-10" cx="194.52" cy="199.33" r="2.06"/><path class="cls-7" d="M218.09,239.5a8.16,8.16,0,0,1,3.59-7.06l1.16-.8a12.67,12.67,0,0,0,2.28-1.75,2.41,2.41,0,0,0,.65-1.71q0-2.56-4.31-2.57a17.27,17.27,0,0,0-4.13.53,19.4,19.4,0,0,0-4,1.51v-6.84a21.81,21.81,0,0,1,9.15-1.86q5.46,0,8.65,2.29a7.34,7.34,0,0,1,3.2,6.32,6.06,6.06,0,0,1-1,3.66,15.1,15.1,0,0,1-3.46,3.13c-1.1.8-1.9,1.42-2.4,1.84a4.18,4.18,0,0,0-1.13,1.45,4.4,4.4,0,0,0-.38,2v.84h-7.81Zm.91,10.63a4.19,4.19,0,0,1,0-5.83,4.3,4.3,0,0,1,5.9,0,4.07,4.07,0,0,1,0,5.81,4.07,4.07,0,0,1-3,1.18A4,4,0,0,1,219,250.13Z"/><path class="cls-4" d="M200.41,105.64l-15.5,4.21-4.25-15.63L149,102.82l14.77,54.39L211,144.38l-10.51-38.7Zm-15.88,31.28a3.09,3.09,0,0,1-1.91,1.43,3,3,0,0,1-2.37-.27,3,3,0,0,1-1.42-1.87,2.94,2.94,0,0,1,.28-2.35,3.23,3.23,0,0,1,4.27-1.15,3.06,3.06,0,0,1,1.15,4.21Zm2.33-15.33a11.54,11.54,0,0,1-1.89,3c-.63.79-1.09,1.39-1.37,1.8a3.28,3.28,0,0,0-.54,1.27,3.43,3.43,0,0,0,.12,1.49l.16.61-5.65,1.53-.18-.67a6.11,6.11,0,0,1,1.21-5.82l.68-.8a9.82,9.82,0,0,0,1.31-1.72,1.81,1.81,0,0,0,.13-1.36q-.51-1.86-3.62-1a12.48,12.48,0,0,0-2.89,1.2,14,14,0,0,0-2.62,1.88L170.36,118a16.39,16.39,0,0,1,6.25-3.15,11,11,0,0,1,6.72,0,5.48,5.48,0,0,1,3.55,3.94A4.52,4.52,0,0,1,186.86,121.59Z"/><polygon class="cls-4" points="183.67 94.89 186.82 106.47 198.3 103.35 183.67 94.89"/><path class="cls-4" d="M288.32,43.66,267.45,37l6.74-21L231.58,2.29,208.13,75.51,271.7,95.87l16.68-52.1Zm-41.4,24a4.18,4.18,0,0,1-3.24.22,4.13,4.13,0,0,1-2.51-2.06A4.31,4.31,0,0,1,243,60.15a4.13,4.13,0,0,1,3.24-.2A4.19,4.19,0,0,1,248.74,62a4,4,0,0,1,.28,3.22A4,4,0,0,1,246.92,67.68ZM261,51.87a15.75,15.75,0,0,1-4.35,2c-1.31.43-2.28.78-2.91,1a4.43,4.43,0,0,0-1.55,1,4.77,4.77,0,0,0-1,1.79l-.26.82-7.61-2.44.29-.9a8.36,8.36,0,0,1,5.71-5.76l1.37-.42a13.46,13.46,0,0,0,2.77-1,2.45,2.45,0,0,0,1.16-1.46q.81-2.52-3.39-3.85A16.74,16.74,0,0,0,247,42a19,19,0,0,0-4.4.21l2.13-6.66a22.33,22.33,0,0,1,9.49,1q5.33,1.71,7.72,4.93a7.52,7.52,0,0,1,1.14,7.16A6.19,6.19,0,0,1,261,51.87Z"/><polygon class="cls-4" points="277.14 18.93 272.15 34.52 287.61 39.48 277.14 18.93"/><rect class="cls-5" x="306.63" y="58.56" width="105.86" height="72.53" rx="8.32"/><path class="cls-14" d="M383.81,119.45H335.32c-2.74,0-4.9-1.09-5.93-3s-.76-4.31.73-6.6h0l23.62-36.19a6.61,6.61,0,0,1,11.64,0L389,109.86c1.5,2.29,1.76,4.69.73,6.6S386.54,119.45,383.81,119.45Zm-49.4-6.79c-.53.81-.53,1.28-.5,1.36a2.18,2.18,0,0,0,1.41.31h48.49a2.2,2.2,0,0,0,1.42-.32,2.38,2.38,0,0,0-.52-1.35L361.09,76.48a1.59,1.59,0,0,0-3.06,0Z"/><path class="cls-14" d="M358.08,109.64a2.08,2.08,0,0,1,0-2.9,2,2,0,0,1,1.45-.59,2.06,2.06,0,0,1,1.47.59,2.05,2.05,0,0,1,0,2.9,2.06,2.06,0,0,1-1.47.59A2,2,0,0,1,358.08,109.64Zm-1.21-24.07h5.39l-1,17.23h-3.38Z"/><rect class="cls-5" x="37.9" y="140.6" width="87.74" height="60.11" rx="6.9"/><path class="cls-14" d="M81.77,146.65a24,24,0,1,0,24,24A24,24,0,0,0,81.77,146.65Zm0,4.53a19.39,19.39,0,0,1,12.07,4.2L66.49,182.73a19.46,19.46,0,0,1,15.28-31.55Zm0,39a19.4,19.4,0,0,1-12.08-4.21L97,158.59a19.46,19.46,0,0,1-15.27,31.55Z"/><rect class="cls-5" x="243.1" y="303.61" width="61.58" height="7.28" transform="translate(-105.71 148.12) rotate(-25.54)"/><rect class="cls-11" x="279.91" y="295.27" width="22.88" height="7.28" transform="translate(-100.41 154.83) rotate(-25.54)"/><path class="cls-5" d="M353.83,269.06a31,31,0,1,0-14.62,41.37A31,31,0,0,0,353.83,269.06ZM303.94,292.9a24.27,24.27,0,1,1,32.35,11.43A24.27,24.27,0,0,1,303.94,292.9Z"/><circle class="cls-15" cx="325.83" cy="282.43" r="24.26" transform="translate(-54.28 78.85) rotate(-12.75)"/><path class="cls-14" d="M325.41,276.73a7.06,7.06,0,1,1,3.33-9.42A7.05,7.05,0,0,1,325.41,276.73Z"/><path class="cls-7" d="M164.06,40.51a11.69,11.69,0,0,1,7.32-8.7l1.87-.74a18.41,18.41,0,0,0,3.77-1.7,3.45,3.45,0,0,0,1.46-2.18q.84-3.6-5.18-5a24.37,24.37,0,0,0-6-.6,27.33,27.33,0,0,0-6.14.79l2.23-9.55a31.24,31.24,0,0,1,13.39.37q7.63,1.77,11.35,6a10.52,10.52,0,0,1,2.41,9.88A8.67,8.67,0,0,1,188,33.88a22,22,0,0,1-5.85,3.25c-1.8.76-3.11,1.36-4,1.79a6.37,6.37,0,0,0-2,1.65A6.56,6.56,0,0,0,175,43.18l-.27,1.18-10.92-2.55Zm-2.19,15.16a6,6,0,0,1,1.9-8.16,5.79,5.79,0,0,1,4.5-.65,5.88,5.88,0,0,1,3.75,2.6,5.84,5.84,0,0,1-1.9,8.13,5.86,5.86,0,0,1-4.51.68A5.73,5.73,0,0,1,161.87,55.67Z"/><path class="cls-7" d="M90.4,123.69a7,7,0,0,1,.11-6.76l.59-1a11.64,11.64,0,0,0,1.09-2.2,2,2,0,0,0-.15-1.55q-1-2-4.26-.36a14.19,14.19,0,0,0-3,2,15.88,15.88,0,0,0-2.53,2.66l-2.56-5.23a18.7,18.7,0,0,1,6.3-4.86,12.49,12.49,0,0,1,7.49-1.49,6.29,6.29,0,0,1,4.82,3.65,5.22,5.22,0,0,1,.59,3.19,13,13,0,0,1-1.48,3.69c-.54,1-.92,1.79-1.15,2.31a3.72,3.72,0,0,0-.32,1.53,3.77,3.77,0,0,0,.44,1.64l.32.64-6,2.93Zm4.69,7.8a3.42,3.42,0,0,1-2-1.79A3.32,3.32,0,0,1,92.9,127a3.4,3.4,0,0,1,1.83-2,3.48,3.48,0,0,1,2.7-.21,3.48,3.48,0,0,1,2.18,4.45,3.49,3.49,0,0,1-1.82,2A3.46,3.46,0,0,1,95.09,131.49Z"/><path class="cls-11" d="M80.45,80V76h-5A13.27,13.27,0,0,0,73,70l3.51-3.51-2.77-2.78-3.52,3.52a13.28,13.28,0,0,0-6-2.49v-5H60.28v5a13.28,13.28,0,0,0-6,2.49l-3.51-3.52L48,66.52,51.5,70A13.28,13.28,0,0,0,49,76H44V80h5a13.24,13.24,0,0,0,2.49,6L48,89.49l2.78,2.77,3.51-3.51a13.39,13.39,0,0,0,6,2.49v5H64.2v-5a13.39,13.39,0,0,0,6-2.49l3.52,3.51,2.77-2.77L73,86a13.22,13.22,0,0,0,2.48-6ZM62.24,86.3A8.3,8.3,0,1,1,70.53,78,8.3,8.3,0,0,1,62.24,86.3Z"/><path class="cls-9" d="M122.71,55.8V50.31h-7a18.66,18.66,0,0,0-3.48-8.41L117.19,37l-3.88-3.89L108.39,38A18.66,18.66,0,0,0,100,34.54v-7H94.49v7A18.62,18.62,0,0,0,86.08,38L81.16,33.1,77.28,37,82.2,41.9a18.55,18.55,0,0,0-3.48,8.41h-7V55.8h7a18.51,18.51,0,0,0,3.48,8.41l-4.92,4.92L81.16,73l4.92-4.92a18.63,18.63,0,0,0,8.41,3.49v7H100v-7a18.68,18.68,0,0,0,8.41-3.49L113.31,73l3.88-3.88-4.92-4.92a18.62,18.62,0,0,0,3.48-8.41ZM97.23,64.66a11.61,11.61,0,1,1,11.61-11.6A11.6,11.6,0,0,1,97.23,64.66Z"/></g></g></svg>