<svg xmlns="http://www.w3.org/2000/svg" viewBox="0 0 992.78 992.78"><defs><style>.cls-1{fill:#fbb03b;}.cls-2{fill:#00a79d;}.cls-3{fill:#1d3461;}</style></defs><g id="Layer_2" data-name="Layer 2"><g id="Layer_1-2" data-name="Layer 1"><path class="cls-1" d="M169.9,478.29q-.5,9-.51,18.1t.51,18.1a90.63,90.63,0,0,0-38.9,18,590.88,590.88,0,0,0-91.18,90.6,476,476,0,0,1,0-253.38A590.88,590.88,0,0,0,131,460.3,90.63,90.63,0,0,0,169.9,478.29Z"/><path class="cls-1" d="M622,952.09a475.88,475.88,0,0,1-251.75.38,590.43,590.43,0,0,0,90.46-91.25,90.58,90.58,0,0,0,18-39.15c5.54.27,11.14.42,16.76.42q9.18,0,18.24-.53a90.61,90.61,0,0,0,17.86,38.7A590.12,590.12,0,0,0,622,952.09Z"/><path class="cls-1" d="M495.49,23.55A472.37,472.37,0,0,1,622,40.69a590.56,590.56,0,0,0-90.44,91.43,90.61,90.61,0,0,0-17.86,38.7q-9-.51-18.24-.52c-5.62,0-11.22.14-16.76.41a90.63,90.63,0,0,0-18-39.15,590.87,590.87,0,0,0-90.46-91.25A473,473,0,0,1,495.49,23.55Z"/><path class="cls-1" d="M968.33,496.39a473.07,473.07,0,0,1-16.72,125,590.29,590.29,0,0,0-91.49-90.27,90.68,90.68,0,0,0-39-17.85c.29-5.6.43-11.25.43-16.92s-.14-11.32-.43-16.92a90.66,90.66,0,0,0,39-17.84,590.36,590.36,0,0,0,91.49-90.28A473.07,473.07,0,0,1,968.33,496.39Z"/><path class="cls-2" d="M724.64,441.81a493,493,0,0,1-156.81,50.38,72.44,72.44,0,0,0-67.11-68.06,492,492,0,0,1,50.58-156.6A235.85,235.85,0,0,1,724.64,441.81Z"/><path class="cls-2" d="M724.64,551A235.88,235.88,0,0,1,551.3,725.26a492.13,492.13,0,0,1-50.58-156.6,72.45,72.45,0,0,0,67.11-68.07A493.22,493.22,0,0,1,724.64,551Z"/><path class="cls-3" d="M992.78,0V.91c0,158-73.8,298.74-188.82,389.65A327.71,327.71,0,0,0,602.59,188.38C693.5,73.61,834.08,0,991.88,0Z"/><path class="cls-3" d="M992.78,991.88v.9h-.9c-157.8,0-298.38-73.6-389.29-188.37A327.73,327.73,0,0,0,804,602.23C919,693.14,992.78,833.88,992.78,991.88Z"/><path class="cls-3" d="M389.79,187.89A327.59,327.59,0,0,0,187.42,389.43C73.21,298.51,0,158.25,0,.91V0H.91C158.47,0,298.89,73.41,389.79,187.89Z"/><path class="cls-3" d="M389.79,804.9C298.89,919.38,158.47,992.78.91,992.78H0v-.9c0-157.34,73.21-297.6,187.42-388.53A327.63,327.63,0,0,0,389.79,804.9Z"/><path class="cls-2" d="M492,568.79a492.11,492.11,0,0,1-50.76,156.85A235.87,235.87,0,0,1,266.53,551.81a492.09,492.09,0,0,1,156.64-50.94A72.47,72.47,0,0,0,492,568.79Z"/><path class="cls-2" d="M492,424a72.46,72.46,0,0,0-68.87,67.92A492.11,492.11,0,0,1,266.53,441,235.86,235.86,0,0,1,441.28,267.15,492.11,492.11,0,0,1,492,424Z"/><circle class="cls-1" cx="495.49" cy="496.39" r="45.29"/></g></g></svg>